TitilliumWeb-Light.ufo
<glyph name="exclam" format="2">
  <advance width="239.01960784313724"/>
  <unicode hex="0021"/>
  <outline>
    <contour>
      <point x="91.43137254901961" y="223.1764705882353" type="line"/>
      <point x="147.58823529411765" y="223.1764705882353" type="line"/>
      <point x="151.15686274509804" y="694.9019607843137" type="line"/>
      <point x="88.11764705882354" y="694.9019607843137" type="line"/>
    </contour>
    <contour>
      <point x="86.62745098039215" y="0.0" type="line"/>
      <point x="153.13725490196077" y="0.0" type="line"/>
      <point x="153.13725490196077" y="100.64705882352942" type="line"/>
      <point x="86.62745098039215" y="100.64705882352942" type="line"/>
    </contour>
  </outline>
</glyph>
<glyph name="quotedbl" format="2">
  <advance width="364.05882352941177"/>
  <unicode hex="0022"/>
  <outline>
    <contour>
      <point x="236.47058823529412" y="477.2549019607843" type="line"/>
      <point x="291.1372549019608" y="477.2549019607843" type="line"/>
      <point x="295.156862745098" y="694.9019607843137" type="line"/>
      <point x="233.2156862745098" y="694.9019607843137" type="line"/>
    </contour>
    <contour>
      <point x="72.66666666666667" y="477.2549019607843" type="line"/>
      <point x="127.33333333333333" y="477.2549019607843" type="line"/>
      <point x="131.09803921568627" y="694.9019607843137" type="line"/>
      <point x="69.15686274509804" y="694.9019607843137" type="line"/>
    </contour>
  </outline>
</glyph>
<glyph name="numbersign" format="2">
  <advance width="560.0"/>
  <unicode hex="0023"/>
  <outline>
    <contour>
      <point x="140.31372549019608" y="0.0" type="line"/>
      <point x="196.70588235294116" y="0.0" type="line"/>
      <point x="196.70588235294116" y="179.54901960784315" type="line"/>
      <point x="363.29411764705884" y="179.54901960784315" type="line"/>
      <point x="363.29411764705884" y="0.0" type="line"/>
      <point x="419.6862745098039" y="0.0" type="line"/>
      <point x="419.6862745098039" y="179.54901960784315" type="line"/>
      <point x="533.5686274509804" y="179.54901960784315" type="line"/>
      <point x="533.5686274509804" y="231.94117647058823" type="line"/>
      <point x="419.6862745098039" y="231.94117647058823" type="line"/>
      <point x="419.6862745098039" y="432.45098039215685" type="line"/>
      <point x="533.5686274509804" y="432.45098039215685" type="line"/>
      <point x="533.5686274509804" y="484.843137254902" type="line"/>
      <point x="419.6862745098039" y="484.843137254902" type="line"/>
      <point x="419.6862745098039" y="667.4509803921569" type="line"/>
      <point x="363.29411764705884" y="667.4509803921569" type="line"/>
      <point x="363.29411764705884" y="484.843137254902" type="line"/>
      <point x="196.70588235294116" y="484.843137254902" type="line"/>
      <point x="196.70588235294116" y="667.4509803921569" type="line"/>
      <point x="140.31372549019608" y="667.4509803921569" type="line"/>
      <point x="140.31372549019608" y="484.843137254902" type="line"/>
      <point x="26.431372549019606" y="484.843137254902" type="line"/>
      <point x="26.431372549019606" y="432.45098039215685" type="line"/>
      <point x="140.31372549019608" y="432.45098039215685" type="line"/>
      <point x="140.31372549019608" y="231.94117647058823" type="line"/>
      <point x="26.431372549019606" y="231.94117647058823" type="line"/>
      <point x="26.431372549019606" y="179.54901960784315" type="line"/>
      <point x="140.31372549019608" y="179.54901960784315" type="line"/>
    </contour>
    <contour>
      <point x="196.70588235294116" y="231.94117647058823" type="line"/>
      <point x="196.70588235294116" y="432.45098039215685" type="line"/>
      <point x="363.29411764705884" y="432.45098039215685" type="line"/>
      <point x="363.29411764705884" y="231.94117647058823" type="line"/>
    </contour>
  </outline>
</glyph>
<glyph name="dollar" format="2">
  <advance width="560.0"/>
  <unicode hex="0024"/>
  <outline>
    <contour>
      <point x="206.39215686274508" y="-115.54901960784314" type="line"/>
      <point x="251.33333333333334" y="-122.54901960784314" type="line"/>
      <point x="307.5686274509804" y="316.88235294117646" type="line"/>
      <point x="263.62745098039215" y="325.156862745098" type="line"/>
    </contour>
    <contour>
      <point x="268.156862745098" y="360.921568627451" type="line"/>
      <point x="312.3529411764706" y="353.6470588235294" type="line"/>
      <point x="369.3333333333333" y="795.0980392156863" type="line"/>
      <point x="324.3921568627451" y="795.0980392156863" type="line"/>
    </contour>
    <contour>
      <point x="283.72549019607845" y="-8.274509803921568" type="curve" smooth="yes"/>
      <point x="413.72549019607845" y="-8.274509803921568"/>
      <point x="490.11764705882354" y="46.80392156862745"/>
      <point x="490.11764705882354" y="193.0392156862745" type="curve" smooth="yes"/>
      <point x="490.11764705882354" y="309.7450980392157"/>
      <point x="429.2352941176471" y="340.80392156862746"/>
      <point x="299.6470588235294" y="367.1764705882353" type="curve" smooth="yes"/>
      <point x="183.4313725490196" y="389.5098039215686"/>
      <point x="132.84313725490196" y="404.5098039215686"/>
      <point x="132.84313725490196" y="500.156862745098" type="curve" smooth="yes"/>
      <point x="132.84313725490196" y="581.156862745098"/>
      <point x="186.9607843137255" y="616.0980392156863"/>
      <point x="285.03921568627453" y="616.0980392156863" type="curve" smooth="yes"/>
      <point x="324.54901960784315" y="616.0980392156863"/>
      <point x="414.5686274509804" y="607.3529411764706"/>
      <point x="470.5882352941176" y="600.3529411764706" type="curve"/>
      <point x="476.37254901960785" y="651.9607843137255" type="line"/>
      <point x="425.5882352941176" y="659.9803921568628"/>
      <point x="337.27450980392155" y="669.7647058823529"/>
      <point x="281.47058823529414" y="669.7647058823529" type="curve" smooth="yes"/>
      <point x="154.1764705882353" y="669.7647058823529"/>
      <point x="72.86274509803921" y="621.9411764705883"/>
      <point x="72.86274509803921" y="496.11764705882354" type="curve" smooth="yes"/>
      <point x="72.86274509803921" y="366.27450980392155"/>
      <point x="143.01960784313727" y="336.88235294117646"/>
      <point x="277.11764705882354" y="312.01960784313724" type="curve" smooth="yes"/>
      <point x="387.7647058823529" y="291.72549019607845"/>
      <point x="430.1372549019608" y="270.4901960784314"/>
      <point x="430.1372549019608" y="188.50980392156862" type="curve" smooth="yes"/>
      <point x="430.1372549019608" y="88.33333333333333"/>
      <point x="379.01960784313724" y="45.3921568627451"/>
      <point x="280.94117647058823" y="45.3921568627451" type="curve" smooth="yes"/>
      <point x="231.68627450980392" y="45.3921568627451"/>
      <point x="139.68627450980392" y="55.3921568627451"/>
      <point x="83.43137254901961" y="61.64705882352941" type="curve"/>
      <point x="77.13725490196079" y="10.549019607843137" type="line"/>
      <point x="133.88235294117646" y="3.019607843137255"/>
      <point x="228.15686274509804" y="-8.274509803921568"/>
    </contour>
  </outline>
</glyph>
<glyph name="percent" format="2">
  <advance width="560.0"/>
  <unicode hex="0025"/>
  <outline>
    <contour>
      <point x="203.9607843137255" y="-14.862745098039216" type="line"/>
      <point x="402.45098039215685" y="663.313725490196" type="line"/>
      <point x="360.0" y="676.6470588235294" type="line"/>
      <point x="162.2549019607843" y="-2.784313725490196" type="line"/>
    </contour>
    <contour>
      <point x="139.2156862745098" y="392.921568627451" type="curve" smooth="yes"/>
      <point x="203.54901960784315" y="392.921568627451"/>
      <point x="246.54901960784315" y="436.70588235294116"/>
      <point x="246.54901960784315" y="532.9607843137255" type="curve" smooth="yes"/>
      <point x="246.54901960784315" y="629.2156862745098"/>
      <point x="204.2941176470588" y="669.7647058823529"/>
      <point x="139.2156862745098" y="669.7647058823529" type="curve" smooth="yes"/>
      <point x="73.3921568627451" y="669.7647058823529"/>
      <point x="31.88235294117647" y="629.2156862745098"/>
      <point x="31.88235294117647" y="533.7058823529412" type="curve" smooth="yes"/>
      <point x="31.88235294117647" y="436.70588235294116"/>
      <point x="74.13725490196079" y="392.921568627451"/>
    </contour>
    <contour>
      <point x="139.2156862745098" y="437.156862745098" type="curve" smooth="yes"/>
      <point x="98.11764705882354" y="437.156862745098"/>
      <point x="82.94117647058823" y="471.3137254901961"/>
      <point x="82.94117647058823" y="533.7058823529412" type="curve" smooth="yes"/>
      <point x="82.94117647058823" y="595.3529411764706"/>
      <point x="98.11764705882354" y="625.5294117647059"/>
      <point x="139.2156862745098" y="625.5294117647059" type="curve" smooth="yes"/>
      <point x="181.05882352941177" y="625.5294117647059"/>
      <point x="195.49019607843138" y="595.3529411764706"/>
      <point x="195.49019607843138" y="532.9607843137255" type="curve" smooth="yes"/>
      <point x="195.49019607843138" y="470.5686274509804"/>
      <point x="181.05882352941177" y="437.156862745098"/>
    </contour>
    <contour>
      <point x="421.52941176470586" y="-9.764705882352942" type="curve" smooth="yes"/>
      <point x="485.8627450980392" y="-9.764705882352942"/>
      <point x="528.8627450980392" y="34.01960784313725"/>
      <point x="528.8627450980392" y="130.27450980392157" type="curve" smooth="yes"/>
      <point x="528.8627450980392" y="226.52941176470588"/>
      <point x="486.6078431372549" y="267.078431372549"/>
      <point x="421.52941176470586" y="267.078431372549" type="curve" smooth="yes"/>
      <point x="355.70588235294116" y="267.078431372549"/>
      <point x="314.19607843137254" y="226.52941176470588"/>
      <point x="314.19607843137254" y="131.01960784313727" type="curve" smooth="yes"/>
      <point x="314.19607843137254" y="34.01960784313725"/>
      <point x="356.45098039215685" y="-9.764705882352942"/>
    </contour>
    <contour>
      <point x="421.52941176470586" y="34.470588235294116" type="curve" smooth="yes"/>
      <point x="380.4313725490196" y="34.470588235294116"/>
      <point x="365.2549019607843" y="68.62745098039215"/>
      <point x="365.2549019607843" y="131.01960784313727" type="curve" smooth="yes"/>
      <point x="365.2549019607843" y="192.66666666666666"/>
      <point x="380.4313725490196" y="222.84313725490196"/>
      <point x="421.52941176470586" y="222.84313725490196" type="curve" smooth="yes"/>
      <point x="463.37254901960785" y="222.84313725490196"/>
      <point x="477.80392156862746" y="192.66666666666666"/>
      <point x="477.80392156862746" y="130.27450980392157" type="curve" smooth="yes"/>
      <point x="477.80392156862746" y="67.88235294117646"/>
      <point x="463.37254901960785" y="34.470588235294116"/>
    </contour>
  </outline>
</glyph>
<glyph name="ampersand" format="2">
  <advance width="685.3529411764706"/>
  <unicode hex="0026"/>
  <outline>
    <contour>
      <point x="283.88235294117646" y="-9.764705882352942" type="curve" smooth="yes"/>
      <point x="381.54901960784315" y="-9.764705882352942"/>
      <point x="455.3137254901961" y="28.235294117647058"/>
      <point x="501.54901960784315" y="110.76470588235294" type="curve"/>
      <point x="626.1764705882352" y="-8.274509803921568" type="line"/>
      <point x="663.4313725490196" y="33.27450980392157" type="line"/>
      <point x="530.5686274509804" y="160.33333333333334" type="line"/>
      <point x="549.0784313725491" y="206.84313725490196"/>
      <point x="568.843137254902" y="299.7843137254902"/>
      <point x="575.6078431372549" y="369.29411764705884" type="curve"/>
      <point x="516.3921568627451" y="370.05882352941177" type="line"/>
      <point x="513.156862745098" y="318.6666666666667"/>
      <point x="497.94117647058823" y="234.7450980392157"/>
      <point x="485.47058823529414" y="199.58823529411765" type="curve"/>
      <point x="321.156862745098" y="362.4117647058824" type="line"/>
      <point x="431.8235294117647" y="408.05882352941177"/>
      <point x="479.01960784313724" y="452.54901960784315"/>
      <point x="479.01960784313724" y="549.2549019607843" type="curve" smooth="yes"/>
      <point x="479.01960784313724" y="639.3529411764706"/>
      <point x="427.62745098039215" y="698.5882352941177"/>
      <point x="313.01960784313724" y="698.5882352941177" type="curve" smooth="yes"/>
      <point x="204.921568627451" y="698.5882352941177"/>
      <point x="146.76470588235293" y="639.3529411764706"/>
      <point x="146.76470588235293" y="552.8039215686274" type="curve" smooth="yes"/>
      <point x="146.76470588235293" y="496.2352941176471"/>
      <point x="152.54901960784315" y="461.52941176470586"/>
      <point x="201.58823529411765" y="406.45098039215685" type="curve"/>
      <point x="94.41176470588235" y="372.921568627451"/>
      <point x="43.94117647058823" y="325.62745098039215"/>
      <point x="43.94117647058823" y="204.94117647058823" type="curve" smooth="yes"/>
      <point x="43.94117647058823" y="71.9607843137255"/>
      <point x="100.74509803921569" y="-9.764705882352942"/>
    </contour>
    <contour>
      <point x="281.03921568627453" y="45.41176470588235" type="curve" smooth="yes"/>
      <point x="152.86274509803923" y="45.41176470588235"/>
      <point x="104.68627450980392" y="103.0"/>
      <point x="104.68627450980392" y="208.49019607843138" type="curve" smooth="yes"/>
      <point x="104.68627450980392" y="300.7450980392157"/>
      <point x="142.11764705882354" y="338.98039215686276"/>
      <point x="238.2941176470588" y="367.19607843137254" type="curve"/>
      <point x="458.98039215686276" y="148.0" type="line"/>
      <point x="423.8235294117647" y="77.05882352941177"/>
      <point x="361.3529411764706" y="45.41176470588235"/>
    </contour>
    <contour>
      <point x="283.6666666666667" y="399.6666666666667" type="curve"/>
      <point x="212.58823529411765" y="471.5098039215686"/>
      <point x="207.50980392156862" y="492.5098039215686"/>
      <point x="207.50980392156862" y="545.156862745098" type="curve" smooth="yes"/>
      <point x="207.50980392156862" y="612.2745098039215"/>
      <point x="244.94117647058823" y="645.686274509804"/>
      <point x="313.01960784313724" y="645.686274509804" type="curve" smooth="yes"/>
      <point x="388.3137254901961" y="645.686274509804"/>
      <point x="418.27450980392155" y="609.313725490196"/>
      <point x="418.27450980392155" y="546.1764705882352" type="curve" smooth="yes"/>
      <point x="418.27450980392155" y="469.62745098039215"/>
      <point x="380.37254901960785" y="437.6666666666667"/>
    </contour>
  </outline>
</glyph>
<glyph name="quotesingle" format="2">
  <advance width="200.2549019607843"/>
  <unicode hex="0027"/>
  <outline>
    <contour>
      <point x="71.92156862745098" y="477.2549019607843" type="line"/>
      <point x="126.58823529411765" y="477.2549019607843" type="line"/>
      <point x="132.09803921568627" y="694.9019607843137" type="line"/>
      <point x="69.41176470588235" y="694.9019607843137" type="line"/>
    </contour>
  </outline>
</glyph>
<glyph name="parenleft" format="2">
  <advance width="252.86274509803923"/>
  <unicode hex="0028"/>
  <outline>
    <contour>
      <point x="155.49019607843138" y="-125.0" type="curve"/>
      <point x="213.94117647058823" y="-125.0" type="line"/>
      <point x="172.94117647058823" y="-23.274509803921568"/>
      <point x="118.94117647058823" y="162.7058823529412"/>
      <point x="118.94117647058823" y="301.0" type="curve" smooth="yes"/>
      <point x="118.94117647058823" y="440.7843137254902"/>
      <point x="172.94117647058823" y="639.2745098039215"/>
      <point x="213.94117647058823" y="750.0" type="curve"/>
      <point x="155.49019607843138" y="750.0" type="line"/>
      <point x="111.45098039215686" y="647.3333333333334"/>
      <point x="53.64705882352941" y="454.1372549019608"/>
      <point x="53.64705882352941" y="301.0" type="curve" smooth="yes"/>
      <point x="53.64705882352941" y="147.86274509803923"/>
      <point x="111.45098039215686" y="-32.33333333333333"/>
    </contour>
  </outline>
</glyph>
<glyph name="parenright" format="2">
  <advance width="252.86274509803923"/>
  <unicode hex="0029"/>
  <outline>
    <contour>
      <point x="98.11764705882354" y="-125.0" type="line"/>
      <point x="142.15686274509804" y="-32.33333333333333"/>
      <point x="199.96078431372547" y="147.86274509803923"/>
      <point x="199.96078431372547" y="301.0" type="curve" smooth="yes"/>
      <point x="199.96078431372547" y="454.1372549019608"/>
      <point x="142.15686274509804" y="647.3333333333334"/>
      <point x="98.11764705882354" y="750.0" type="curve"/>
      <point x="39.66666666666667" y="750.0" type="line"/>
      <point x="80.66666666666667" y="639.2745098039215"/>
      <point x="134.66666666666666" y="440.7843137254902"/>
      <point x="134.66666666666666" y="301.0" type="curve" smooth="yes"/>
      <point x="134.66666666666666" y="162.7058823529412"/>
      <point x="80.66666666666667" y="-23.274509803921568"/>
      <point x="39.66666666666667" y="-125.0" type="curve"/>
    </contour>
  </outline>
</glyph>
<glyph name="asterisk" format="2">
  <advance width="419.03921568627453"/>
  <unicode hex="002A"/>
  <outline>
    <contour>
      <point x="233.98039215686273" y="374.1372549019608" type="line"/>
      <point x="276.4313725490196" y="387.19607843137254" type="line"/>
      <point x="235.45098039215685" y="513.9019607843137" type="line"/>
      <point x="368.88235294117646" y="513.9019607843137" type="line"/>
      <point x="368.88235294117646" y="558.0980392156863" type="line"/>
      <point x="236.94117647058823" y="558.0980392156863" type="line"/>
      <point x="277.921568627451" y="686.0588235294117" type="line"/>
      <point x="234.9607843137255" y="699.8823529411765" type="line"/>
      <point x="193.72549019607843" y="572.9215686274509" type="line"/>
      <point x="86.01960784313725" y="651.8823529411765" type="line"/>
      <point x="59.3921568627451" y="615.7058823529412" type="line"/>
      <point x="166.60784313725492" y="537.4901960784314" type="line"/>
      <point x="57.88235294117647" y="458.0" type="line"/>
      <point x="84.01960784313725" y="422.843137254902" type="line"/>
      <point x="192.23529411764707" y="501.843137254902" type="line"/>
    </contour>
  </outline>
</glyph>
<glyph name="plus" format="2">
  <advance width="560.0"/>
  <unicode hex="002B"/>
  <outline>
    <contour>
      <point x="250.29411764705884" y="20.254901960784313" type="line"/>
      <point x="307.70588235294116" y="20.254901960784313" type="line"/>
      <point x="307.70588235294116" y="223.0392156862745" type="line"/>
      <point x="503.29411764705884" y="223.0392156862745" type="line"/>
      <point x="503.29411764705884" y="278.96078431372547" type="line"/>
      <point x="307.70588235294116" y="278.96078431372547" type="line"/>
      <point x="307.70588235294116" y="479.7450980392157" type="line"/>
      <point x="250.29411764705884" y="479.7450980392157" type="line"/>
      <point x="250.29411764705884" y="278.96078431372547" type="line"/>
      <point x="56.705882352941174" y="278.96078431372547" type="line"/>
      <point x="56.705882352941174" y="223.0392156862745" type="line"/>
      <point x="250.29411764705884" y="223.0392156862745" type="line"/>
    </contour>
  </outline>
</glyph>
<glyph name="comma" format="2">
  <advance width="213.8235294117647"/>
  <unicode hex="002C"/>
  <outline>
    <contour>
      <point x="37.88235294117647" y="-123.0" type="line"/>
      <point x="88.50980392156862" y="-123.0" type="line"/>
      <point x="149.45098039215685" y="99.74509803921569" type="line"/>
      <point x="81.92156862745098" y="99.74509803921569" type="line"/>
    </contour>
  </outline>
</glyph>
<glyph name="period" format="2">
  <advance width="206.8235294117647"/>
  <unicode hex="002E"/>
  <outline>
    <contour>
      <point x="70.15686274509804" y="0.0" type="line"/>
      <point x="136.66666666666666" y="0.0" type="line"/>
      <point x="136.66666666666666" y="101.92156862745098" type="line"/>
      <point x="70.15686274509804" y="101.92156862745098" type="line"/>
    </contour>
  </outline>
</glyph>
<glyph name="slash" format="2">
  <advance width="398.94117647058823"/>
  <unicode hex="002F"/>
  <outline>
    <contour>
      <point x="87.15686274509804" y="-9.411764705882351" type="line"/>
      <point x="366.96078431372547" y="684.9411764705883" type="line"/>
      <point x="312.29411764705884" y="706.0784313725491" type="line"/>
      <point x="32.490196078431374" y="10.980392156862745" type="line"/>
    </contour>
  </outline>
</glyph>
<glyph name="zero" format="2">
  <advance width="560.0"/>
  <unicode hex="0030"/>
  <outline>
    <contour>
      <point x="280.0" y="-9.764705882352942" type="curve" smooth="yes"/>
      <point x="427.6078431372549" y="-9.764705882352942"/>
      <point x="516.6274509803922" y="64.82352941176471"/>
      <point x="516.6274509803922" y="318.54901960784315" type="curve" smooth="yes"/>
      <point x="516.6274509803922" y="595.3725490196078"/>
      <point x="432.8235294117647" y="670.5098039215686"/>
      <point x="279.2549019607843" y="670.5098039215686" type="curve" smooth="yes"/>
      <point x="130.15686274509804" y="670.5098039215686"/>
      <point x="42.627450980392155" y="594.6274509803922"/>
      <point x="42.627450980392155" y="317.80392156862746" type="curve" smooth="yes"/>
      <point x="42.627450980392155" y="62.588235294117645"/>
      <point x="132.39215686274508" y="-9.764705882352942"/>
    </contour>
    <contour>
      <point x="280.2549019607843" y="46.15686274509804" type="curve" smooth="yes"/>
      <point x="170.45098039215685" y="46.15686274509804"/>
      <point x="107.13725490196077" y="99.92156862745098"/>
      <point x="107.13725490196077" y="317.05882352941177" type="curve" smooth="yes"/>
      <point x="107.13725490196077" y="555.3725490196078"/>
      <point x="164.49019607843138" y="614.5882352941177"/>
      <point x="279.5098039215686" y="614.5882352941177" type="curve" smooth="yes"/>
      <point x="396.7647058823529" y="614.5882352941177"/>
      <point x="452.11764705882354" y="553.1372549019608"/>
      <point x="452.11764705882354" y="318.54901960784315" type="curve" smooth="yes"/>
      <point x="452.11764705882354" y="100.66666666666666"/>
      <point x="390.05882352941177" y="46.15686274509804"/>
    </contour>
  </outline>
</glyph>
<glyph name="one" format="2">
  <advance width="560.0"/>
  <unicode hex="0031"/>
  <outline>
    <contour>
      <point x="319.4901960784314" y="0.0" type="line"/>
      <point x="381.4901960784314" y="0.0" type="line"/>
      <point x="381.4901960784314" y="660.0" type="line"/>
      <point x="322.54901960784315" y="660.0" type="line"/>
      <point x="114.98039215686275" y="521.7058823529412" type="line"/>
      <point x="143.7058823529412" y="473.843137254902" type="line"/>
      <point x="319.4901960784314" y="591.1764705882352" type="line"/>
    </contour>
  </outline>
</glyph>
<glyph name="two" format="2">
  <advance width="560.0"/>
  <unicode hex="0032"/>
  <outline>
    <contour>
      <point x="70.2156862745098" y="0.0" type="line"/>
      <point x="490.7647058823529" y="0.0" type="line"/>
      <point x="490.7647058823529" y="54.43137254901961" type="line"/>
      <point x="145.98039215686276" y="54.43137254901961" type="line"/>
      <point x="336.98039215686276" y="251.5686274509804" type="line" smooth="yes"/>
      <point x="425.11764705882354" y="339.3921568627451"/>
      <point x="472.3137254901961" y="397.3921568627451"/>
      <point x="472.3137254901961" y="495.6666666666667" type="curve" smooth="yes"/>
      <point x="472.3137254901961" y="620.156862745098"/>
      <point x="400.8627450980392" y="669.7647058823529"/>
      <point x="264.7647058823529" y="669.7647058823529" type="curve" smooth="yes"/>
      <point x="195.49019607843138" y="669.7647058823529"/>
      <point x="116.2156862745098" y="654.2549019607843"/>
      <point x="75.70588235294117" y="642.7450980392157" type="curve"/>
      <point x="81.2156862745098" y="590.1372549019608" type="line"/>
      <point x="124.43137254901961" y="599.8627450980392"/>
      <point x="201.37254901960785" y="613.3333333333334"/>
      <point x="255.09803921568627" y="613.3333333333334" type="curve" smooth="yes"/>
      <point x="355.19607843137254" y="613.3333333333334"/>
      <point x="407.80392156862746" y="582.9019607843137"/>
      <point x="407.80392156862746" y="490.5686274509804" type="curve" smooth="yes"/>
      <point x="407.80392156862746" y="409.4313725490196"/>
      <point x="356.8235294117647" y="354.70588235294116"/>
      <point x="275.29411764705884" y="269.6862745098039" type="curve" smooth="yes"/>
      <point x="70.2156862745098" y="52.92156862745098" type="line"/>
    </contour>
  </outline>
</glyph>
<glyph name="three" format="2">
  <advance width="560.0"/>
  <unicode hex="0033"/>
  <outline>
    <contour>
      <point x="280.19607843137254" y="-9.764705882352942" type="curve" smooth="yes"/>
      <point x="426.29411764705884" y="-9.764705882352942"/>
      <point x="492.52941176470586" y="54.78431372549019"/>
      <point x="492.52941176470586" y="186.33333333333334" type="curve" smooth="yes"/>
      <point x="492.52941176470586" y="297.6862745098039"/>
      <point x="441.3921568627451" y="327.6470588235294"/>
      <point x="371.4901960784314" y="350.19607843137254" type="curve"/>
      <point x="384.47058823529414" y="358.3529411764706"/>
      <point x="475.3137254901961" y="390.4313725490196"/>
      <point x="475.3137254901961" y="501.1764705882353" type="curve" smooth="yes"/>
      <point x="475.3137254901961" y="616.7254901960785"/>
      <point x="420.54901960784315" y="670.5098039215686"/>
      <point x="268.9019607843137" y="670.5098039215686" type="curve" smooth="yes"/>
      <point x="195.90196078431373" y="670.5098039215686"/>
      <point x="115.41176470588235" y="655.4705882352941"/>
      <point x="74.66666666666667" y="644.9411764705883" type="curve"/>
      <point x="81.43137254901961" y="593.6078431372549" type="line"/>
      <point x="120.94117647058823" y="602.3529411764706"/>
      <point x="198.921568627451" y="614.5882352941177"/>
      <point x="267.0980392156863" y="614.5882352941177" type="curve" smooth="yes"/>
      <point x="372.3529411764706" y="614.5882352941177"/>
      <point x="410.80392156862746" y="581.6470588235294"/>
      <point x="410.80392156862746" y="499.62745098039215" type="curve" smooth="yes"/>
      <point x="410.80392156862746" y="415.88235294117646"/>
      <point x="333.80392156862746" y="372.37254901960785"/>
      <point x="282.0980392156863" y="372.37254901960785" type="curve" smooth="yes"/>
      <point x="149.09803921568627" y="372.37254901960785" type="line"/>
      <point x="149.09803921568627" y="317.98039215686276" type="line"/>
      <point x="282.843137254902" y="317.98039215686276" type="line" smooth="yes"/>
      <point x="362.19607843137254" y="314.2549019607843"/>
      <point x="428.01960784313724" y="284.4901960784314"/>
      <point x="428.01960784313724" y="183.33333333333334" type="curve" smooth="yes"/>
      <point x="428.01960784313724" y="92.52941176470588"/>
      <point x="380.3529411764706" y="46.90196078431372"/>
      <point x="275.0980392156863" y="46.15686274509804" type="curve" smooth="yes"/>
      <point x="203.7058823529412" y="46.15686274509804"/>
      <point x="115.72549019607843" y="58.64705882352941"/>
      <point x="69.9607843137255" y="68.13725490196077" type="curve"/>
      <point x="63.705882352941174" y="16.03921568627451" type="line"/>
      <point x="111.47058823529412" y="4.764705882352941"/>
      <point x="202.98039215686273" y="-9.764705882352942"/>
    </contour>
  </outline>
</glyph>
<glyph name="four" format="2">
  <advance width="560.0"/>
  <unicode hex="0034"/>
  <outline>
    <contour>
      <point x="369.921568627451" y="0.0" type="line"/>
      <point x="431.921568627451" y="0.0" type="line"/>
      <point x="431.921568627451" y="133.58823529411765" type="line"/>
      <point x="521.0" y="133.58823529411765" type="line"/>
      <point x="521.0" y="189.50980392156862" type="line"/>
      <point x="431.921568627451" y="189.50980392156862" type="line"/>
      <point x="431.921568627451" y="399.843137254902" type="line"/>
      <point x="369.921568627451" y="399.843137254902" type="line"/>
      <point x="369.921568627451" y="189.50980392156862" type="line"/>
      <point x="107.2156862745098" y="189.50980392156862" type="line"/>
      <point x="302.0980392156863" y="660.0" type="line"/>
      <point x="234.29411764705884" y="660.0" type="line"/>
      <point x="40.0" y="182.70588235294116" type="line"/>
      <point x="40.0" y="133.58823529411765" type="line"/>
      <point x="369.921568627451" y="133.58823529411765" type="line"/>
    </contour>
  </outline>
</glyph>
<glyph name="five" format="2">
  <advance width="560.0"/>
  <unicode hex="0035"/>
  <outline>
    <contour>
      <point x="281.7647058823529" y="-8.274509803921568" type="curve" smooth="yes"/>
      <point x="418.3137254901961" y="-8.274509803921568"/>
      <point x="501.80392156862746" y="67.7843137254902"/>
      <point x="501.80392156862746" y="220.50980392156862" type="curve" smooth="yes"/>
      <point x="501.80392156862746" y="362.4901960784314"/>
      <point x="419.8235294117647" y="414.29411764705884"/>
      <point x="292.27450980392155" y="414.29411764705884" type="curve" smooth="yes"/>
      <point x="231.15686274509804" y="414.29411764705884"/>
      <point x="163.27450980392157" y="389.11764705882354"/>
      <point x="128.8235294117647" y="370.1764705882353" type="curve"/>
      <point x="146.5686274509804" y="602.5882352941177" type="line"/>
      <point x="473.6078431372549" y="602.5882352941177" type="line"/>
      <point x="473.6078431372549" y="660.0" type="line"/>
      <point x="93.70588235294117" y="660.0" type="line"/>
      <point x="74.9607843137255" y="320.88235294117646" type="line"/>
      <point x="121.19607843137254" y="313.05882352941177" type="line"/>
      <point x="155.62745098039215" y="332.72549019607845"/>
      <point x="224.2549019607843" y="358.37254901960785"/>
      <point x="286.4313725490196" y="358.37254901960785" type="curve" smooth="yes"/>
      <point x="374.7647058823529" y="358.37254901960785"/>
      <point x="437.29411764705884" y="325.4117647058824"/>
      <point x="437.29411764705884" y="216.68627450980392" type="curve" smooth="yes"/>
      <point x="437.29411764705884" y="106.0"/>
      <point x="373.72549019607845" y="47.64705882352941"/>
      <point x="276.6862745098039" y="47.64705882352941" type="curve" smooth="yes"/>
      <point x="210.98039215686273" y="47.64705882352941"/>
      <point x="122.2156862745098" y="60.88235294117647"/>
      <point x="73.94117647058823" y="70.37254901960785" type="curve"/>
      <point x="66.3921568627451" y="19.03921568627451" type="line"/>
      <point x="115.68627450980392" y="7.509803921568627"/>
      <point x="208.2549019607843" y="-8.274509803921568"/>
    </contour>
  </outline>
</glyph>
<glyph name="six" format="2">
  <advance width="560.0"/>
  <unicode hex="0036"/>
  <outline>
    <contour>
      <point x="285.01960784313724" y="-9.764705882352942" type="curve" smooth="yes"/>
      <point x="432.52941176470586" y="-9.764705882352942"/>
      <point x="513.6078431372549" y="69.68627450980392"/>
      <point x="513.6078431372549" y="208.2549019607843" type="curve" smooth="yes"/>
      <point x="513.6078431372549" y="344.5882352941176"/>
      <point x="437.843137254902" y="410.3333333333333"/>
      <point x="293.3137254901961" y="410.3333333333333" type="curve" smooth="yes"/>
      <point x="220.86274509803923" y="410.3333333333333"/>
      <point x="131.6470588235294" y="371.27450980392155"/>
      <point x="118.13725490196077" y="368.19607843137254" type="curve"/>
      <point x="118.88235294117646" y="527.7450980392157"/>
      <point x="186.9607843137255" y="613.843137254902"/>
      <point x="307.01960784313724" y="613.843137254902" type="curve" smooth="yes"/>
      <point x="368.01960784313724" y="613.843137254902"/>
      <point x="440.8235294117647" y="607.8235294117648"/>
      <point x="478.11764705882354" y="603.313725490196" type="curve"/>
      <point x="484.156862745098" y="654.9215686274509" type="line" name="hr00"/>
      <point x="444.0980392156863" y="660.9607843137255"/>
      <point x="368.01960784313724" y="669.7647058823529"/>
      <point x="307.01960784313724" y="669.7647058823529" type="curve" smooth="yes"/>
      <point x="152.921568627451" y="669.7647058823529"/>
      <point x="53.627450980392155" y="570.8039215686274"/>
      <point x="53.627450980392155" y="334.45098039215685" type="curve" smooth="yes"/>
      <point x="53.627450980392155" y="119.98039215686275"/>
      <point x="123.92156862745098" y="-9.764705882352942"/>
    </contour>
    <contour>
      <point x="285.01960784313724" y="46.15686274509804" type="curve" smooth="yes"/>
      <point x="163.76470588235293" y="46.15686274509804"/>
      <point x="119.37254901960785" y="159.66666666666666"/>
      <point x="117.13725490196077" y="312.29411764705884" type="curve"/>
      <point x="155.80392156862746" y="330.2352941176471"/>
      <point x="229.64705882352942" y="354.4117647058824"/>
      <point x="289.5098039215686" y="354.4117647058824" type="curve" smooth="yes"/>
      <point x="388.7647058823529" y="354.4117647058824"/>
      <point x="449.0980392156863" y="307.5098039215686"/>
      <point x="449.0980392156863" y="208.2549019607843" type="curve" smooth="yes"/>
      <point x="449.0980392156863" y="103.27450980392157"/>
      <point x="391.4901960784314" y="46.15686274509804"/>
    </contour>
  </outline>
</glyph>
<glyph name="seven" format="2">
  <advance width="560.0"/>
  <unicode hex="0037"/>
  <outline>
    <contour>
      <point x="226.94117647058823" y="-9.764705882352942" type="line"/>
      <point x="486.52941176470586" y="571.8039215686274" type="line"/>
      <point x="486.52941176470586" y="660.0" type="line"/>
      <point x="79.43137254901961" y="660.0" type="line"/>
      <point x="79.43137254901961" y="603.313725490196" type="line"/>
      <point x="423.03921568627453" y="603.313725490196" type="line"/>
      <point x="423.03921568627453" y="578.0196078431372" type="line"/>
      <point x="168.23529411764707" y="9.843137254901961" type="line"/>
    </contour>
  </outline>
</glyph>
<glyph name="eight" format="2">
  <advance width="560.0"/>
  <unicode hex="0038"/>
  <outline>
    <contour>
      <point x="278.0" y="-9.764705882352942" type="curve" smooth="yes"/>
      <point x="414.7647058823529" y="-9.764705882352942"/>
      <point x="526.5294117647059" y="32.549019607843135"/>
      <point x="526.5294117647059" y="179.0" type="curve" smooth="yes"/>
      <point x="526.5294117647059" y="276.9019607843137"/>
      <point x="472.19607843137254" y="316.8627450980392"/>
      <point x="396.843137254902" y="345.96078431372547" type="curve"/>
      <point x="478.4313725490196" y="377.05882352941177"/>
      <point x="516.5294117647059" y="414.98039215686276"/>
      <point x="516.5294117647059" y="501.4313725490196" type="curve" smooth="yes"/>
      <point x="516.5294117647059" y="617.4313725490196"/>
      <point x="420.0" y="670.5098039215686"/>
      <point x="278.0" y="670.5098039215686" type="curve" smooth="yes"/>
      <point x="134.0" y="670.5098039215686"/>
      <point x="43.470588235294116" y="616.4313725490196"/>
      <point x="43.470588235294116" y="502.4313725490196" type="curve" smooth="yes"/>
      <point x="43.470588235294116" y="417.52941176470586"/>
      <point x="82.31372549019608" y="377.80392156862746"/>
      <point x="154.2156862745098" y="345.96078431372547" type="curve"/>
      <point x="82.58823529411765" y="310.9019607843137"/>
      <point x="32.470588235294116" y="273.9019607843137"/>
      <point x="32.470588235294116" y="168.0" type="curve" smooth="yes"/>
      <point x="32.470588235294116" y="31.980392156862745"/>
      <point x="146.45098039215685" y="-9.764705882352942"/>
    </contour>
    <contour>
      <point x="278.0" y="47.17647058823529" type="curve" smooth="yes"/>
      <point x="177.9607843137255" y="47.17647058823529"/>
      <point x="99.25490196078431" y="78.64705882352942"/>
      <point x="99.25490196078431" y="176.90196078431373" type="curve" smooth="yes"/>
      <point x="99.25490196078431" y="260.3137254901961"/>
      <point x="144.33333333333331" y="296.2549019607843"/>
      <point x="219.60784313725492" y="315.98039215686276" type="curve"/>
      <point x="329.2156862745098" y="315.98039215686276" type="line"/>
      <point x="401.7450980392157" y="296.5098039215686"/>
      <point x="460.4901960784314" y="271.4901960784314"/>
      <point x="460.4901960784314" y="183.60784313725492" type="curve" smooth="yes"/>
      <point x="460.4901960784314" y="77.90196078431373"/>
      <point x="383.2549019607843" y="47.17647058823529"/>
    </contour>
    <contour>
      <point x="219.60784313725492" y="370.3921568627451" type="line"/>
      <point x="146.62745098039215" y="393.88235294117646"/>
      <point x="109.50980392156862" y="427.5686274509804"/>
      <point x="109.50980392156862" y="496.078431372549" type="curve" smooth="yes"/>
      <point x="109.50980392156862" y="582.5882352941177"/>
      <point x="173.80392156862746" y="613.5686274509803"/>
      <point x="278.5098039215686" y="613.5686274509803" type="curve" smooth="yes"/>
      <point x="384.96078431372547" y="613.5686274509803"/>
      <point x="449.7450980392157" y="581.0980392156863"/>
      <point x="449.7450980392157" y="495.3333333333333" type="curve" smooth="yes"/>
      <point x="449.7450980392157" y="426.8235294117647"/>
      <point x="405.921568627451" y="392.3921568627451"/>
      <point x="329.2156862745098" y="370.3921568627451" type="curve"/>
    </contour>
  </outline>
</glyph>
<glyph name="nine" format="2">
  <advance width="560.0"/>
  <unicode hex="0039"/>
  <outline>
    <contour>
      <point x="247.2549019607843" y="-9.764705882352942" type="curve" smooth="yes"/>
      <point x="408.80392156862746" y="-9.764705882352942"/>
      <point x="505.11764705882354" y="72.0"/>
      <point x="505.11764705882354" y="326.54901960784315" type="curve" smooth="yes"/>
      <point x="505.11764705882354" y="536.2941176470588"/>
      <point x="434.3137254901961" y="669.7647058823529"/>
      <point x="270.0" y="669.7647058823529" type="curve" smooth="yes"/>
      <point x="132.921568627451" y="669.7647058823529"/>
      <point x="44.3921568627451" y="585.5294117647059"/>
      <point x="44.3921568627451" y="451.0" type="curve" smooth="yes"/>
      <point x="44.3921568627451" y="313.2156862745098"/>
      <point x="120.19607843137254" y="251.921568627451"/>
      <point x="257.98039215686276" y="251.921568627451" type="curve" smooth="yes"/>
      <point x="312.80392156862746" y="251.921568627451"/>
      <point x="390.843137254902" y="273.6078431372549"/>
      <point x="440.6078431372549" y="292.3529411764706" type="curve"/>
      <point x="439.11764705882354" y="122.80392156862746"/>
      <point x="374.7647058823529" y="46.15686274509804"/>
      <point x="247.2549019607843" y="46.15686274509804" type="curve" smooth="yes"/>
      <point x="186.2549019607843" y="46.15686274509804"/>
      <point x="113.45098039215686" y="52.92156862745098"/>
      <point x="76.15686274509804" y="57.43137254901961" type="curve"/>
      <point x="70.11764705882354" y="5.8235294117647065" type="line" name="hr00"/>
      <point x="110.17647058823529" y="-0.9607843137254903"/>
      <point x="186.2549019607843" y="-9.764705882352942"/>
    </contour>
    <contour>
      <point x="262.52941176470586" y="307.843137254902" type="curve" smooth="yes"/>
      <point x="162.0392156862745" y="307.843137254902"/>
      <point x="108.90196078431373" y="350.5098039215686"/>
      <point x="108.90196078431373" y="451.0" type="curve" smooth="yes"/>
      <point x="108.90196078431373" y="550.7647058823529"/>
      <point x="170.23529411764707" y="613.843137254902"/>
      <point x="270.0" y="613.843137254902" type="curve" smooth="yes"/>
      <point x="393.4901960784314" y="613.843137254902"/>
      <point x="438.62745098039215" y="503.5686274509804"/>
      <point x="441.6078431372549" y="347.2352941176471" type="curve"/>
      <point x="396.2352941176471" y="330.52941176470586"/>
      <point x="315.6862745098039" y="307.843137254902"/>
    </contour>
  </outline>
</glyph>
<glyph name="colon" format="2">
  <advance width="207.5686274509804"/>
  <unicode hex="003A"/>
  <outline>
    <contour>
      <point x="70.15686274509804" y="329.98039215686276" type="line"/>
      <point x="136.66666666666666" y="329.98039215686276" type="line"/>
      <point x="136.66666666666666" y="431.9019607843137" type="line"/>
      <point x="70.15686274509804" y="431.9019607843137" type="line"/>
    </contour>
    <contour>
      <point x="70.15686274509804" y="0.0" type="line"/>
      <point x="136.66666666666666" y="0.0" type="line"/>
      <point x="136.66666666666666" y="101.92156862745098" type="line"/>
      <point x="70.15686274509804" y="101.92156862745098" type="line"/>
    </contour>
  </outline>
</glyph>
<glyph name="semicolon" format="2">
  <advance width="241.0"/>
  <unicode hex="003B"/>
  <outline>
    <contour>
      <point x="53.07843137254902" y="-123.0" type="line"/>
      <point x="103.70588235294117" y="-123.0" type="line"/>
      <point x="165.39215686274508" y="99.74509803921569" type="line"/>
      <point x="96.37254901960785" y="99.74509803921569" type="line"/>
    </contour>
    <contour>
      <point x="92.09803921568627" y="329.98039215686276" type="line"/>
      <point x="158.60784313725492" y="329.98039215686276" type="line"/>
      <point x="158.60784313725492" y="431.9019607843137" type="line"/>
      <point x="92.09803921568627" y="431.9019607843137" type="line"/>
    </contour>
  </outline>
</glyph>
<glyph name="less" format="2">
  <advance width="560.0"/>
  <unicode hex="003C"/>
  <outline>
    <contour>
      <point x="478.70588235294116" y="13.725490196078432" type="line"/>
      <point x="478.70588235294116" y="78.94117647058823" type="line"/>
      <point x="120.84313725490196" y="251.76470588235293" type="line"/>
      <point x="478.70588235294116" y="422.29411764705884" type="line"/>
      <point x="478.70588235294116" y="486.01960784313724" type="line"/>
      <point x="59.294117647058826" y="278.4313725490196" type="line"/>
      <point x="59.294117647058826" y="223.5686274509804" type="line"/>
    </contour>
  </outline>
</glyph>
<glyph name="equal" format="2">
  <advance width="560.0"/>
  <unicode hex="003D"/>
  <outline>
    <contour>
      <point x="65.45098039215686" y="312.1372549019608" type="line"/>
      <point x="494.54901960784315" y="312.1372549019608" type="line"/>
      <point x="494.54901960784315" y="368.3137254901961" type="line"/>
      <point x="65.45098039215686" y="368.3137254901961" type="line"/>
    </contour>
    <contour>
      <point x="65.45098039215686" y="133.19607843137254" type="line"/>
      <point x="494.54901960784315" y="133.19607843137254" type="line"/>
      <point x="494.54901960784315" y="189.37254901960785" type="line"/>
      <point x="65.45098039215686" y="189.37254901960785" type="line"/>
    </contour>
  </outline>
</glyph>
<glyph name="greater" format="2">
  <advance width="560.0"/>
  <unicode hex="003E"/>
  <outline>
    <contour>
      <point x="80.54901960784314" y="13.725490196078432" type="line"/>
      <point x="499.96078431372547" y="223.5686274509804" type="line"/>
      <point x="499.96078431372547" y="278.4313725490196" type="line"/>
      <point x="80.54901960784314" y="486.01960784313724" type="line"/>
      <point x="80.54901960784314" y="422.29411764705884" type="line"/>
      <point x="438.4117647058823" y="251.76470588235293" type="line"/>
      <point x="80.54901960784314" y="78.94117647058823" type="line"/>
    </contour>
  </outline>
</glyph>
<glyph name="question" format="2">
  <advance width="448.921568627451"/>
  <unicode hex="003F"/>
  <outline>
    <contour>
      <point x="165.58823529411765" y="196.88235294117646" type="curve"/>
      <point x="218.19607843137254" y="196.88235294117646" type="line"/>
      <point x="218.19607843137254" y="233.09803921568627" type="line" smooth="yes"/>
      <point x="218.19607843137254" y="281.96078431372547"/>
      <point x="254.23529411764707" y="316.6078431372549"/>
      <point x="310.3333333333333" y="363.9019607843137" type="curve" smooth="yes"/>
      <point x="390.5098039215686" y="432.29411764705884"/>
      <point x="406.4901960784314" y="460.843137254902"/>
      <point x="406.4901960784314" y="545.1372549019608" type="curve" smooth="yes"/>
      <point x="406.4901960784314" y="661.6274509803922"/>
      <point x="336.54901960784315" y="704.6666666666666"/>
      <point x="205.2156862745098" y="704.6666666666666" type="curve" smooth="yes"/>
      <point x="160.60784313725492" y="704.6666666666666"/>
      <point x="83.3921568627451" y="688.3921568627451"/>
      <point x="38.19607843137255" y="675.6274509803922" type="curve"/>
      <point x="43.705882352941174" y="624.5490196078431" type="line"/>
      <point x="88.62745098039215" y="635.2745098039215"/>
      <point x="161.80392156862746" y="649.4901960784314"/>
      <point x="200.37254901960785" y="649.4901960784314" type="curve" smooth="yes"/>
      <point x="296.4313725490196" y="649.4901960784314"/>
      <point x="344.98039215686276" y="621.5098039215686"/>
      <point x="344.98039215686276" y="541.313725490196" type="curve" smooth="yes"/>
      <point x="344.98039215686276" y="480.47058823529414"/>
      <point x="326.78431372549016" y="456.52941176470586"/>
      <point x="255.01960784313724" y="393.80392156862746" type="curve" smooth="yes"/>
      <point x="202.76470588235293" y="347.8235294117647"/>
      <point x="156.94117647058823" y="305.6862745098039"/>
      <point x="156.94117647058823" y="250.62745098039215" type="curve" smooth="yes"/>
      <point x="156.94117647058823" y="229.49019607843138"/>
      <point x="162.27450980392157" y="211.13725490196077"/>
    </contour>
    <contour>
      <point x="157.7450980392157" y="0.7450980392156863" type="line"/>
      <point x="224.2549019607843" y="0.7450980392156863" type="line"/>
      <point x="224.2549019607843" y="101.3921568627451" type="line"/>
      <point x="157.7450980392157" y="101.3921568627451" type="line"/>
    </contour>
  </outline>
</glyph>
<glyph name="at" format="2">
  <advance width="977.4705882352941"/>
  <unicode hex="0040"/>
  <outline>
    <contour>
      <point x="503.7450980392157" y="-201.54901960784315" type="curve" smooth="yes"/>
      <point x="540.5294117647059" y="-201.54901960784315"/>
      <point x="609.0196078431372" y="-196.2941176470588"/>
      <point x="650.2549019607843" y="-192.2941176470588" type="curve"/>
      <point x="646.7450980392157" y="-137.88235294117646" type="line"/>
      <point x="603.7647058823529" y="-141.88235294117646"/>
      <point x="534.7843137254902" y="-147.62745098039215"/>
      <point x="503.7450980392157" y="-147.62745098039215" type="curve" smooth="yes"/>
      <point x="235.66666666666666" y="-147.62745098039215"/>
      <point x="116.11764705882354" y="-48.05882352941177"/>
      <point x="116.11764705882354" y="261.0" type="curve" smooth="yes"/>
      <point x="116.11764705882354" y="554.5098039215686"/>
      <point x="242.0392156862745" y="667.6274509803922"/>
      <point x="503.7450980392157" y="667.6274509803922" type="curve" smooth="yes"/>
      <point x="767.9019607843137" y="667.6274509803922"/>
      <point x="868.1176470588235" y="557.2549019607843"/>
      <point x="868.1176470588235" y="306.0" type="curve" smooth="yes"/>
      <point x="868.1176470588235" y="290.29411764705884" type="line" smooth="yes"/>
      <point x="868.1176470588235" y="59.33333333333333"/>
      <point x="826.2549019607843" y="43.450980392156865"/>
      <point x="762.4117647058823" y="43.450980392156865" type="curve" smooth="yes"/>
      <point x="683.8823529411765" y="43.450980392156865"/>
      <point x="678.8823529411765" y="68.13725490196077"/>
      <point x="678.8823529411765" y="302.29411764705884" type="curve" smooth="yes"/>
      <point x="678.8823529411765" y="496.94117647058823" type="line"/>
      <point x="618.6470588235294" y="496.94117647058823" type="line"/>
      <point x="618.6470588235294" y="480.2156862745098" type="line"/>
      <point x="588.9411764705883" y="491.96078431372547"/>
      <point x="535.2745098039215" y="506.70588235294116"/>
      <point x="497.0980392156863" y="506.70588235294116" type="curve" smooth="yes"/>
      <point x="338.19607843137254" y="506.70588235294116"/>
      <point x="291.94117647058823" y="414.4901960784314"/>
      <point x="291.94117647058823" y="245.0392156862745" type="curve" smooth="yes"/>
      <point x="291.94117647058823" y="17.33333333333333"/>
      <point x="388.2352941176471" y="-6.705882352941177"/>
      <point x="465.52941176470586" y="-6.705882352941177" type="curve" smooth="yes"/>
      <point x="522.2352941176471" y="-6.705882352941177"/>
      <point x="601.8823529411765" y="27.529411764705884"/>
      <point x="645.5686274509804" y="53.76470588235294" type="curve"/>
      <point x="652.3529411764706" y="27.529411764705884"/>
      <point x="687.6666666666666" y="-7.450980392156863"/>
      <point x="759.1960784313726" y="-7.450980392156863" type="curve" smooth="yes"/>
      <point x="861.843137254902" y="-7.450980392156863"/>
      <point x="929.843137254902" y="21.686274509803923"/>
      <point x="929.843137254902" y="290.29411764705884" type="curve" smooth="yes"/>
      <point x="929.843137254902" y="305.0" type="line" smooth="yes"/>
      <point x="929.843137254902" y="586.4509803921569"/>
      <point x="806.1960784313726" y="721.5490196078431"/>
      <point x="503.7450980392157" y="721.5490196078431" type="curve" smooth="yes"/>
      <point x="212.84313725490196" y="721.5490196078431"/>
      <point x="54.3921568627451" y="593.9019607843137"/>
      <point x="54.3921568627451" y="261.0" type="curve" smooth="yes"/>
      <point x="54.3921568627451" y="-100.0"/>
      <point x="207.7450980392157" y="-201.54901960784315"/>
    </contour>
    <contour>
      <point x="468.3333333333333" y="47.21568627450981" type="curve" smooth="yes"/>
      <point x="415.6470588235294" y="47.21568627450981"/>
      <point x="352.6862745098039" y="71.84313725490196"/>
      <point x="352.6862745098039" y="242.80392156862746" type="curve" smooth="yes"/>
      <point x="352.6862745098039" y="379.5098039215686"/>
      <point x="380.5882352941176" y="452.78431372549016"/>
      <point x="504.7450980392157" y="452.78431372549016" type="curve" smooth="yes"/>
      <point x="540.3529411764706" y="452.78431372549016"/>
      <point x="590.9607843137255" y="440.078431372549"/>
      <point x="618.6470588235294" y="430.11764705882354" type="curve"/>
      <point x="618.6470588235294" y="287.0" type="line" smooth="yes"/>
      <point x="618.6470588235294" y="221.4313725490196"/>
      <point x="623.3725490196078" y="142.45098039215685"/>
      <point x="628.3725490196078" y="98.29411764705883" type="curve"/>
      <point x="586.0" y="76.11764705882354"/>
      <point x="513.2352941176471" y="47.21568627450981"/>
    </contour>
  </outline>
</glyph>
<glyph name="A" format="2">
  <advance width="594.5490196078431"/>
  <unicode hex="0041"/>
  <outline>
    <contour>
      <point x="25.19607843137255" y="0.0" type="line"/>
      <point x="87.19607843137254" y="0.0" type="line"/>
      <point x="142.50980392156862" y="191.54901960784315" type="line"/>
      <point x="452.03921568627453" y="191.54901960784315" type="line"/>
      <point x="507.3529411764706" y="0.0" type="line"/>
      <point x="569.3529411764706" y="0.0" type="line"/>
      <point x="370.156862745098" y="694.9019607843137" type="line"/>
      <point x="224.39215686274508" y="694.9019607843137" type="line"/>
    </contour>
    <contour>
      <point x="157.33333333333331" y="247.47058823529412" type="line"/>
      <point x="270.29411764705884" y="640.5098039215686" type="line"/>
      <point x="324.2549019607843" y="640.5098039215686" type="line"/>
      <point x="437.21568627450984" y="247.47058823529412" type="line"/>
    </contour>
  </outline>
</glyph>
<glyph name="B" format="2">
  <advance width="617.1960784313726"/>
  <unicode hex="0042"/>
  <outline>
    <contour>
      <point x="87.41176470588235" y="0.0" type="line"/>
      <point x="349.47058823529414" y="0.0" type="line" smooth="yes"/>
      <point x="478.01960784313724" y="0.0"/>
      <point x="562.2745098039215" y="45.588235294117645"/>
      <point x="562.2745098039215" y="193.50980392156862" type="curve" smooth="yes"/>
      <point x="562.2745098039215" y="296.4117647058824"/>
      <point x="508.4313725490196" y="339.156862745098"/>
      <point x="447.45098039215685" y="358.19607843137254" type="curve"/>
      <point x="503.6862745098039" y="382.5098039215686"/>
      <point x="538.843137254902" y="426.72549019607845"/>
      <point x="538.843137254902" y="520.1176470588235" type="curve" smooth="yes"/>
      <point x="538.843137254902" y="641.1764705882352"/>
      <point x="469.05882352941177" y="694.9019607843137"/>
      <point x="334.29411764705884" y="694.9019607843137" type="curve" smooth="yes"/>
      <point x="87.41176470588235" y="694.9019607843137" type="line"/>
    </contour>
    <contour>
      <point x="149.41176470588235" y="55.41176470588235" type="line"/>
      <point x="149.41176470588235" y="326.47058823529414" type="line"/>
      <point x="341.72549019607845" y="326.47058823529414" type="line" smooth="yes"/>
      <point x="393.7450980392157" y="326.47058823529414"/>
      <point x="499.01960784313724" y="315.37254901960785"/>
      <point x="499.01960784313724" y="195.2941176470588" type="curve" smooth="yes"/>
      <point x="499.01960784313724" y="85.8235294117647"/>
      <point x="438.21568627450984" y="55.41176470588235"/>
      <point x="347.6862745098039" y="55.41176470588235" type="curve" smooth="yes"/>
    </contour>
    <contour>
      <point x="149.41176470588235" y="381.37254901960785" type="line"/>
      <point x="149.41176470588235" y="639.4901960784314" type="line"/>
      <point x="332.5098039215686" y="639.4901960784314" type="line" smooth="yes"/>
      <point x="429.21568627450984" y="639.4901960784314"/>
      <point x="475.5882352941177" y="602.0784313725491"/>
      <point x="475.5882352941177" y="515.5294117647059" type="curve" smooth="yes"/>
      <point x="475.5882352941177" y="425.7647058823529"/>
      <point x="435.94117647058823" y="381.37254901960785"/>
      <point x="340.96078431372547" y="381.37254901960785" type="curve" smooth="yes"/>
    </contour>
  </outline>
</glyph>
<glyph name="C" format="2">
  <advance width="544.4901960784314"/>
  <unicode hex="0043"/>
  <outline>
    <contour>
      <point x="313.70588235294116" y="-9.764705882352942" type="curve" smooth="yes"/>
      <point x="380.1764705882353" y="-9.764705882352942"/>
      <point x="453.03921568627453" y="1.0"/>
      <point x="502.01960784313724" y="11.0" type="curve"/>
      <point x="499.01960784313724" y="65.13725490196077" type="line"/>
      <point x="450.078431372549" y="56.15686274509804"/>
      <point x="378.4901960784314" y="46.666666666666664"/>
      <point x="319.8235294117647" y="46.666666666666664" type="curve" smooth="yes"/>
      <point x="152.64705882352942" y="46.666666666666664"/>
      <point x="126.41176470588235" y="149.54901960784315"/>
      <point x="126.41176470588235" y="345.2156862745098" type="curve" smooth="yes"/>
      <point x="126.41176470588235" y="542.686274509804"/>
      <point x="151.96078431372547" y="648.2352941176471"/>
      <point x="318.80392156862746" y="648.2352941176471" type="curve" smooth="yes"/>
      <point x="374.98039215686276" y="648.2352941176471"/>
      <point x="455.2549019607843" y="638.0"/>
      <point x="499.01960784313724" y="629.5098039215686" type="curve"/>
      <point x="502.27450980392155" y="683.6274509803922" type="line"/>
      <point x="457.29411764705884" y="692.8823529411765"/>
      <point x="383.96078431372547" y="704.6666666666666"/>
      <point x="313.70588235294116" y="704.6666666666666" type="curve" smooth="yes"/>
      <point x="103.50980392156863" y="704.6666666666666"/>
      <point x="61.90196078431373" y="573.4117647058823"/>
      <point x="61.90196078431373" y="345.2156862745098" type="curve" smooth="yes"/>
      <point x="61.90196078431373" y="119.13725490196079"/>
      <point x="106.68627450980392" y="-9.764705882352942"/>
    </contour>
  </outline>
</glyph>
<glyph name="D" format="2">
  <advance width="646.1960784313726"/>
  <unicode hex="0044"/>
  <outline>
    <contour>
      <point x="87.41176470588235" y="0.0" type="line"/>
      <point x="339.5098039215686" y="0.0" type="line" smooth="yes"/>
      <point x="532.843137254902" y="0.0"/>
      <point x="587.5294117647059" y="166.45098039215685"/>
      <point x="587.5294117647059" y="356.72549019607845" type="curve" smooth="yes"/>
      <point x="587.5294117647059" y="545.4705882352941"/>
      <point x="531.0588235294117" y="694.9019607843137"/>
      <point x="339.5098039215686" y="694.9019607843137" type="curve" smooth="yes"/>
      <point x="87.41176470588235" y="694.9019607843137" type="line"/>
    </contour>
    <contour>
      <point x="149.41176470588235" y="55.92156862745098" type="line"/>
      <point x="149.41176470588235" y="638.9803921568628" type="line"/>
      <point x="339.5098039215686" y="638.9803921568628" type="line" smooth="yes"/>
      <point x="485.4313725490196" y="638.9803921568628"/>
      <point x="523.0196078431372" y="506.47058823529414"/>
      <point x="523.0196078431372" y="356.72549019607845" type="curve" smooth="yes"/>
      <point x="523.0196078431372" y="206.47058823529412"/>
      <point x="485.4313725490196" y="55.92156862745098"/>
      <point x="339.5098039215686" y="55.92156862745098" type="curve" smooth="yes"/>
    </contour>
  </outline>
</glyph>
<glyph name="E" format="2">
  <advance width="552.5098039215686"/>
  <unicode hex="0045"/>
  <outline>
    <contour>
      <point x="87.41176470588235" y="0.0" type="line"/>
      <point x="504.3137254901961" y="0.0" type="line"/>
      <point x="504.3137254901961" y="55.92156862745098" type="line"/>
      <point x="149.41176470588235" y="55.92156862745098" type="line"/>
      <point x="149.41176470588235" y="326.21568627450984" type="line"/>
      <point x="444.3137254901961" y="326.21568627450984" type="line"/>
      <point x="444.3137254901961" y="381.62745098039215" type="line"/>
      <point x="149.41176470588235" y="381.62745098039215" type="line"/>
      <point x="149.41176470588235" y="638.9803921568628" type="line"/>
      <point x="504.3137254901961" y="638.9803921568628" type="line"/>
      <point x="504.3137254901961" y="694.9019607843137" type="line"/>
      <point x="87.41176470588235" y="694.9019607843137" type="line"/>
    </contour>
  </outline>
</glyph>
<glyph name="F" format="2">
  <advance width="525.0392156862745"/>
  <unicode hex="0046"/>
  <outline>
    <contour>
      <point x="87.41176470588235" y="0.0" type="line"/>
      <point x="149.41176470588235" y="0.0" type="line"/>
      <point x="149.41176470588235" y="296.62745098039215" type="line"/>
      <point x="445.05882352941177" y="296.62745098039215" type="line"/>
      <point x="445.05882352941177" y="352.54901960784315" type="line"/>
      <point x="149.41176470588235" y="352.54901960784315" type="line"/>
      <point x="149.41176470588235" y="638.9803921568628" type="line"/>
      <point x="496.8235294117647" y="638.9803921568628" type="line"/>
      <point x="496.8235294117647" y="694.9019607843137" type="line"/>
      <point x="87.41176470588235" y="694.9019607843137" type="line"/>
    </contour>
  </outline>
</glyph>
<glyph name="G" format="2">
  <advance width="616.9607843137255"/>
  <unicode hex="0047"/>
  <anchor x="333.921568627451" y="0.0" name="bottom"/>
  <outline>
    <contour>
      <point x="325.98039215686276" y="-9.764705882352942" type="curve" smooth="yes"/>
      <point x="391.72549019607845" y="-9.764705882352942"/>
      <point x="506.6666666666667" y="6.96078431372549"/>
      <point x="549.0392156862745" y="14.725490196078432" type="curve"/>
      <point x="549.0392156862745" y="351.3333333333333" type="line"/>
      <point x="359.98039215686276" y="351.3333333333333" type="line"/>
      <point x="359.98039215686276" y="295.4117647058824" type="line"/>
      <point x="487.54901960784315" y="295.4117647058824" type="line"/>
      <point x="487.54901960784315" y="62.07843137254902" type="line"/>
      <point x="450.1764705882353" y="55.6078431372549"/>
      <point x="378.6666666666667" y="46.15686274509804"/>
      <point x="329.29411764705884" y="46.15686274509804" type="curve" smooth="yes"/>
      <point x="160.58823529411765" y="46.15686274509804"/>
      <point x="124.41176470588235" y="150.05882352941177"/>
      <point x="124.41176470588235" y="345.2156862745098" type="curve" smooth="yes"/>
      <point x="124.41176470588235" y="542.1764705882352"/>
      <point x="160.15686274509804" y="648.2352941176471"/>
      <point x="330.3137254901961" y="648.2352941176471" type="curve" smooth="yes"/>
      <point x="396.3137254901961" y="648.2352941176471"/>
      <point x="492.29411764705884" y="635.2745098039215"/>
      <point x="545.7843137254902" y="625.5490196078431" type="curve"/>
      <point x="549.0392156862745" y="678.9019607843137" type="line"/>
      <point x="498.0" y="690.156862745098"/>
      <point x="401.70588235294116" y="704.6666666666666"/>
      <point x="324.70588235294116" y="704.6666666666666" type="curve" smooth="yes"/>
      <point x="114.76470588235294" y="704.6666666666666"/>
      <point x="59.90196078431373" y="570.8627450980392"/>
      <point x="59.90196078431373" y="345.2156862745098" type="curve" smooth="yes"/>
      <point x="59.90196078431373" y="121.68627450980392"/>
      <point x="115.90196078431373" y="-9.764705882352942"/>
    </contour>
  </outline>
</glyph>
<glyph name="H" format="2">
  <advance width="674.7647058823529"/>
  <unicode hex="0048"/>
  <outline>
    <contour>
      <point x="87.41176470588235" y="0.0" type="line"/>
      <point x="149.41176470588235" y="0.0" type="line"/>
      <point x="149.41176470588235" y="320.7450980392157" type="line"/>
      <point x="525.3529411764706" y="320.7450980392157" type="line"/>
      <point x="525.3529411764706" y="0.0" type="line"/>
      <point x="587.3529411764706" y="0.0" type="line"/>
      <point x="587.3529411764706" y="694.9019607843137" type="line"/>
      <point x="525.3529411764706" y="694.9019607843137" type="line"/>
      <point x="525.3529411764706" y="376.6666666666667" type="line"/>
      <point x="149.41176470588235" y="376.6666666666667" type="line"/>
      <point x="149.41176470588235" y="694.9019607843137" type="line"/>
      <point x="87.41176470588235" y="694.9019607843137" type="line"/>
    </contour>
  </outline>
</glyph>
<glyph name="I" format="2">
  <advance width="236.8235294117647"/>
  <unicode hex="0049"/>
  <outline>
    <contour>
      <point x="87.41176470588235" y="0.0" type="line"/>
      <point x="149.41176470588235" y="0.0" type="line"/>
      <point x="149.41176470588235" y="694.9019607843137" type="line"/>
      <point x="87.41176470588235" y="694.9019607843137" type="line"/>
    </contour>
  </outline>
</glyph>
<glyph name="J" format="2">
  <advance width="285.6078431372549"/>
  <unicode hex="004A"/>
  <outline>
    <contour>
      <point x="18.254901960784313" y="-72.23529411764706" type="line"/>
      <point x="145.90196078431373" y="-72.23529411764706"/>
      <point x="201.70588235294116" y="-60.333333333333336"/>
      <point x="201.70588235294116" y="89.66666666666666" type="curve"/>
      <point x="201.45098039215685" y="694.9019607843137" type="line"/>
      <point x="139.70588235294116" y="694.9019607843137" type="line"/>
      <point x="139.70588235294116" y="102.37254901960785" type="line" smooth="yes"/>
      <point x="139.70588235294116" y="-11.25490196078431"/>
      <point x="118.1764705882353" y="-16.313725490196077"/>
      <point x="18.254901960784313" y="-16.313725490196077" type="curve"/>
    </contour>
  </outline>
</glyph>
<glyph name="K" format="2">
  <advance width="563.1960784313726"/>
  <unicode hex="004B"/>
  <anchor x="292.80392156862746" y="0.0" name="bottom"/>
  <outline>
    <contour>
      <point x="87.41176470588235" y="0.0" type="line"/>
      <point x="149.41176470588235" y="0.0" type="line"/>
      <point x="149.41176470588235" y="311.6666666666667" type="line"/>
      <point x="270.47058823529414" y="314.21568627450984" type="line"/>
      <point x="471.6470588235294" y="0.0" type="line"/>
      <point x="546.4509803921569" y="0.0" type="line"/>
      <point x="323.66666666666663" y="345.70588235294116" type="line"/>
      <point x="533.5098039215686" y="694.9019607843137" type="line"/>
      <point x="461.45098039215685" y="694.9019607843137" type="line"/>
      <point x="268.98039215686276" y="370.1372549019608" type="line"/>
      <point x="149.41176470588235" y="367.5882352941176" type="line"/>
      <point x="149.41176470588235" y="694.9019607843137" type="line"/>
      <point x="87.41176470588235" y="694.9019607843137" type="line"/>
    </contour>
  </outline>
</glyph>
<glyph name="L" format="2">
  <advance width="480.19607843137254"/>
  <unicode hex="004C"/>
  <anchor x="273.156862745098" y="0.0" name="bottom"/>
  <outline>
    <contour>
      <point x="87.41176470588235" y="0.0" type="line"/>
      <point x="466.96078431372547" y="0.0" type="line"/>
      <point x="466.96078431372547" y="56.43137254901961" type="line"/>
      <point x="149.41176470588235" y="56.43137254901961" type="line"/>
      <point x="149.41176470588235" y="694.9019607843137" type="line"/>
      <point x="87.41176470588235" y="694.9019607843137" type="line"/>
    </contour>
  </outline>
</glyph>
<glyph name="M" format="2">
  <advance width="835.6470588235294"/>
  <unicode hex="004D"/>
  <outline>
    <contour>
      <point x="87.41176470588235" y="0.0" type="line"/>
      <point x="149.41176470588235" y="0.0" type="line"/>
      <point x="149.41176470588235" y="630.313725490196" type="line"/>
      <point x="163.66666666666666" y="630.313725490196" type="line"/>
      <point x="380.8627450980392" y="23.294117647058822" type="line"/>
      <point x="454.78431372549016" y="23.294117647058822" type="line"/>
      <point x="671.9803921568628" y="630.313725490196" type="line"/>
      <point x="686.2352941176471" y="630.313725490196" type="line"/>
      <point x="686.2352941176471" y="0.0" type="line"/>
      <point x="748.2352941176471" y="0.0" type="line"/>
      <point x="748.2352941176471" y="694.9019607843137" type="line"/>
      <point x="631.7058823529412" y="694.9019607843137" type="line"/>
      <point x="417.8235294117647" y="87.88235294117646" type="line"/>
      <point x="203.94117647058823" y="694.9019607843137" type="line"/>
      <point x="87.41176470588235" y="694.9019607843137" type="line"/>
    </contour>
  </outline>
</glyph>
<glyph name="N" format="2">
  <advance width="672.1372549019608"/>
  <unicode hex="004E"/>
  <anchor x="353.2549019607843" y="0.0" name="bottom"/>
  <outline>
    <contour>
      <point x="87.41176470588235" y="0.0" type="line"/>
      <point x="149.41176470588235" y="0.0" type="line"/>
      <point x="149.41176470588235" y="638.9803921568628" type="line"/>
      <point x="171.33333333333331" y="638.9803921568628" type="line"/>
      <point x="463.52941176470586" y="0.0" type="line"/>
      <point x="584.7254901960785" y="0.0" type="line"/>
      <point x="584.7254901960785" y="694.9019607843137" type="line"/>
      <point x="522.7254901960785" y="694.9019607843137" type="line"/>
      <point x="522.7254901960785" y="55.92156862745098" type="line"/>
      <point x="500.05882352941177" y="55.92156862745098" type="line"/>
      <point x="210.13725490196077" y="694.9019607843137" type="line"/>
      <point x="87.41176470588235" y="694.9019607843137" type="line"/>
    </contour>
  </outline>
</glyph>
<glyph name="O" format="2">
  <advance width="662.4313725490196"/>
  <unicode hex="004F"/>
  <outline>
    <contour>
      <point x="331.2156862745098" y="-9.764705882352942" type="curve" smooth="yes"/>
      <point x="545.9607843137255" y="-9.764705882352942"/>
      <point x="602.7843137254902" y="105.25490196078431"/>
      <point x="602.7843137254902" y="344.19607843137254" type="curve" smooth="yes"/>
      <point x="602.7843137254902" y="574.1960784313726"/>
      <point x="545.2156862745098" y="704.6666666666666"/>
      <point x="331.2156862745098" y="704.6666666666666" type="curve" smooth="yes"/>
      <point x="117.2156862745098" y="704.6666666666666"/>
      <point x="59.64705882352941" y="572.7058823529412"/>
      <point x="59.64705882352941" y="344.19607843137254" type="curve" smooth="yes"/>
      <point x="59.64705882352941" y="112.70588235294117"/>
      <point x="115.72549019607843" y="-9.764705882352942"/>
    </contour>
    <contour>
      <point x="331.2156862745098" y="46.15686274509804" type="curve" smooth="yes"/>
      <point x="158.86274509803923" y="46.15686274509804"/>
      <point x="124.15686274509804" y="147.70588235294116"/>
      <point x="124.15686274509804" y="344.19607843137254" type="curve" smooth="yes"/>
      <point x="124.15686274509804" y="539.9411764705883"/>
      <point x="161.09803921568627" y="648.7450980392157"/>
      <point x="331.2156862745098" y="648.7450980392157" type="curve" smooth="yes"/>
      <point x="499.843137254902" y="648.7450980392157"/>
      <point x="538.2745098039215" y="538.4509803921569"/>
      <point x="538.2745098039215" y="344.19607843137254" type="curve" smooth="yes"/>
      <point x="538.2745098039215" y="140.2549019607843"/>
      <point x="503.5686274509804" y="46.15686274509804"/>
    </contour>
  </outline>
</glyph>
<glyph name="P" format="2">
  <advance width="593.4705882352941"/>
  <unicode hex="0050"/>
  <outline>
    <contour>
      <point x="87.41176470588235" y="0.0" type="line"/>
      <point x="149.41176470588235" y="0.0" type="line"/>
      <point x="149.41176470588235" y="241.9607843137255" type="line"/>
      <point x="341.1372549019608" y="241.9607843137255" type="line" smooth="yes"/>
      <point x="489.96078431372547" y="241.9607843137255"/>
      <point x="557.0588235294117" y="326.2352941176471"/>
      <point x="557.0588235294117" y="474.54901960784315" type="curve" smooth="yes"/>
      <point x="557.0588235294117" y="622.8627450980392"/>
      <point x="489.96078431372547" y="694.9019607843137"/>
      <point x="341.1372549019608" y="694.9019607843137" type="curve" smooth="yes"/>
      <point x="87.41176470588235" y="694.9019607843137" type="line"/>
    </contour>
    <contour>
      <point x="149.41176470588235" y="297.37254901960785" type="line"/>
      <point x="149.41176470588235" y="639.4901960784314" type="line"/>
      <point x="340.88235294117646" y="639.4901960784314" type="line" smooth="yes"/>
      <point x="448.62745098039215" y="639.4901960784314"/>
      <point x="493.05882352941177" y="586.3725490196078"/>
      <point x="493.05882352941177" y="474.54901960784315" type="curve" smooth="yes"/>
      <point x="493.05882352941177" y="362.47058823529414"/>
      <point x="448.62745098039215" y="297.37254901960785"/>
      <point x="340.88235294117646" y="297.37254901960785" type="curve" smooth="yes"/>
    </contour>
  </outline>
</glyph>
<glyph name="Q" format="2">
  <advance width="662.4313725490196"/>
  <unicode hex="0051"/>
  <outline>
    <contour>
      <point x="512.156862745098" y="-142.58823529411765" type="line"/>
      <point x="571.0980392156863" y="-114.88235294117646" type="line"/>
      <point x="485.8627450980392" y="23.588235294117645" type="line"/>
      <point x="575.0196078431372" y="73.37254901960785"/>
      <point x="602.7843137254902" y="177.5686274509804"/>
      <point x="602.7843137254902" y="344.19607843137254" type="curve" smooth="yes"/>
      <point x="602.7843137254902" y="574.1960784313726"/>
      <point x="545.2156862745098" y="704.6666666666666"/>
      <point x="331.2156862745098" y="704.6666666666666" type="curve" smooth="yes"/>
      <point x="117.2156862745098" y="704.6666666666666"/>
      <point x="59.64705882352941" y="572.7058823529412"/>
      <point x="59.64705882352941" y="344.19607843137254" type="curve" smooth="yes"/>
      <point x="59.64705882352941" y="112.19607843137254"/>
      <point x="115.72549019607843" y="-9.764705882352942"/>
      <point x="331.2156862745098" y="-9.764705882352942" type="curve" smooth="yes"/>
      <point x="367.078431372549" y="-9.764705882352942"/>
      <point x="399.5098039215686" y="-5.784313725490196"/>
      <point x="424.3921568627451" y="1.431372549019608" type="curve"/>
    </contour>
    <contour>
      <point x="331.2156862745098" y="46.15686274509804" type="curve" smooth="yes"/>
      <point x="158.86274509803923" y="46.15686274509804"/>
      <point x="124.15686274509804" y="147.19607843137254"/>
      <point x="124.15686274509804" y="344.19607843137254" type="curve" smooth="yes"/>
      <point x="124.15686274509804" y="539.9411764705883"/>
      <point x="161.09803921568627" y="648.7450980392157"/>
      <point x="331.2156862745098" y="648.7450980392157" type="curve" smooth="yes"/>
      <point x="499.843137254902" y="648.7450980392157"/>
      <point x="538.2745098039215" y="538.4509803921569"/>
      <point x="538.2745098039215" y="344.19607843137254" type="curve" smooth="yes"/>
      <point x="538.2745098039215" y="139.7450980392157"/>
      <point x="503.5686274509804" y="46.15686274509804"/>
    </contour>
  </outline>
</glyph>
<glyph name="R" format="2">
  <advance width="614.7843137254902"/>
  <unicode hex="0052"/>
  <anchor x="317.47058823529414" y="0.0" name="bottom"/>
  <outline>
    <contour>
      <point x="87.41176470588235" y="0.0" type="line"/>
      <point x="149.41176470588235" y="0.0" type="line"/>
      <point x="149.41176470588235" y="274.19607843137254" type="line"/>
      <point x="361.3921568627451" y="274.19607843137254" type="line"/>
      <point x="497.7647058823529" y="0.0" type="line"/>
      <point x="566.8039215686274" y="0.0" type="line"/>
      <point x="424.3529411764706" y="286.078431372549" type="line"/>
      <point x="517.6470588235294" y="310.921568627451"/>
      <point x="557.8823529411765" y="384.3529411764706"/>
      <point x="557.8823529411765" y="488.78431372549016" type="curve" smooth="yes"/>
      <point x="557.8823529411765" y="632.6078431372549"/>
      <point x="484.80392156862746" y="694.9019607843137"/>
      <point x="341.72549019607845" y="694.9019607843137" type="curve" smooth="yes"/>
      <point x="87.41176470588235" y="694.9019607843137" type="line"/>
    </contour>
    <contour>
      <point x="149.41176470588235" y="329.6078431372549" type="line"/>
      <point x="149.41176470588235" y="639.4901960784314" type="line"/>
      <point x="341.72549019607845" y="639.4901960784314" type="line" smooth="yes"/>
      <point x="445.72549019607845" y="639.4901960784314"/>
      <point x="493.62745098039215" y="591.2745098039215"/>
      <point x="493.62745098039215" y="488.27450980392155" type="curve" smooth="yes"/>
      <point x="493.62745098039215" y="395.4901960784314"/>
      <point x="454.45098039215685" y="329.6078431372549"/>
      <point x="342.2352941176471" y="329.6078431372549" type="curve" smooth="yes"/>
    </contour>
  </outline>
</glyph>
<glyph name="S" format="2">
  <advance width="541.0196078431372"/>
  <unicode hex="0053"/>
  <anchor x="281.1764705882353" y="0.0" name="bottom"/>
  <outline>
    <contour>
      <point x="273.4901960784314" y="-8.274509803921568" type="curve" smooth="yes"/>
      <point x="410.47058823529414" y="-8.274509803921568"/>
      <point x="491.3529411764706" y="49.549019607843135"/>
      <point x="491.3529411764706" y="203.50980392156862" type="curve" smooth="yes"/>
      <point x="491.3529411764706" y="326.19607843137254"/>
      <point x="426.2352941176471" y="359.0"/>
      <point x="290.4117647058824" y="386.62745098039215" type="curve" smooth="yes"/>
      <point x="167.47058823529412" y="410.70588235294116"/>
      <point x="114.3921568627451" y="425.70588235294116"/>
      <point x="114.3921568627451" y="527.5686274509804" type="curve" smooth="yes"/>
      <point x="114.3921568627451" y="613.5490196078431"/>
      <point x="171.0" y="650.2352941176471"/>
      <point x="274.80392156862746" y="650.2352941176471" type="curve" smooth="yes"/>
      <point x="316.80392156862746" y="650.2352941176471"/>
      <point x="411.3137254901961" y="640.4901960784314"/>
      <point x="470.8235294117647" y="633.4901960784314" type="curve"/>
      <point x="476.6078431372549" y="687.3529411764706" type="line"/>
      <point x="423.3333333333333" y="695.6274509803922"/>
      <point x="329.7843137254902" y="706.156862745098"/>
      <point x="271.2352941176471" y="706.156862745098" type="curve" smooth="yes"/>
      <point x="136.9607843137255" y="706.156862745098"/>
      <point x="51.15686274509804" y="655.5882352941177"/>
      <point x="51.15686274509804" y="523.5294117647059" type="curve" smooth="yes"/>
      <point x="51.15686274509804" y="386.2156862745098"/>
      <point x="125.54901960784314" y="355.8235294117647"/>
      <point x="266.62745098039215" y="328.96078431372547" type="curve" smooth="yes"/>
      <point x="383.2549019607843" y="307.6666666666667"/>
      <point x="428.11764705882354" y="285.6862745098039"/>
      <point x="428.11764705882354" y="198.98039215686273" type="curve" smooth="yes"/>
      <point x="428.11764705882354" y="92.33333333333333"/>
      <point x="374.5098039215686" y="47.64705882352941"/>
      <point x="270.70588235294116" y="47.64705882352941" type="curve" smooth="yes"/>
      <point x="218.7058823529412" y="47.64705882352941"/>
      <point x="121.47058823529412" y="57.64705882352941"/>
      <point x="62.72549019607843" y="64.90196078431373" type="curve"/>
      <point x="56.17647058823529" y="11.549019607843137" type="line"/>
      <point x="115.66666666666667" y="3.019607843137255"/>
      <point x="215.1764705882353" y="-8.274509803921568"/>
    </contour>
  </outline>
</glyph>
<glyph name="T" format="2">
  <advance width="526.0"/>
  <unicode hex="0054"/>
  <anchor x="264.0" y="0.0" name="bottom"/>
  <outline>
    <contour>
      <point x="233.0" y="0.0" type="line"/>
      <point x="295.0" y="0.0" type="line"/>
      <point x="295.0" y="638.4705882352941" type="line"/>
      <point x="513.0" y="638.4705882352941" type="line"/>
      <point x="513.0" y="694.9019607843137" type="line"/>
      <point x="13.0" y="694.9019607843137" type="line"/>
      <point x="13.0" y="638.4705882352941" type="line"/>
      <point x="233.0" y="638.4705882352941" type="line"/>
    </contour>
  </outline>
</glyph>
<glyph name="U" format="2">
  <advance width="642.0784313725491"/>
  <unicode hex="0055"/>
  <outline>
    <contour>
      <point x="317.3137254901961" y="-9.764705882352942" type="curve" smooth="yes"/>
      <point x="472.4117647058824" y="-9.764705882352942"/>
      <point x="559.1764705882352" y="49.568627450980394"/>
      <point x="559.1764705882352" y="204.66666666666666" type="curve" smooth="yes"/>
      <point x="559.1764705882352" y="694.9019607843137" type="line"/>
      <point x="497.1764705882353" y="694.9019607843137" type="line"/>
      <point x="497.1764705882353" y="203.90196078431373" type="line" smooth="yes"/>
      <point x="497.1764705882353" y="88.88235294117646"/>
      <point x="431.843137254902" y="46.15686274509804"/>
      <point x="317.3137254901961" y="46.15686274509804" type="curve" smooth="yes"/>
      <point x="209.49019607843138" y="46.15686274509804"/>
      <point x="144.90196078431373" y="89.37254901960785"/>
      <point x="144.90196078431373" y="203.90196078431373" type="curve" smooth="yes"/>
      <point x="144.90196078431373" y="694.9019607843137" type="line"/>
      <point x="82.90196078431373" y="694.9019607843137" type="line"/>
      <point x="82.90196078431373" y="204.66666666666666" type="line" smooth="yes"/>
      <point x="82.90196078431373" y="48.82352941176471"/>
      <point x="169.66666666666666" y="-9.764705882352942"/>
    </contour>
  </outline>
</glyph>
<glyph name="V" format="2">
  <advance width="576.9215686274509"/>
  <unicode hex="0056"/>
  <outline>
    <contour>
      <point x="212.7450980392157" y="0.0" type="line"/>
      <point x="364.1764705882353" y="0.0" type="line"/>
      <point x="550.4901960784314" y="694.9019607843137" type="line"/>
      <point x="486.70588235294116" y="694.9019607843137" type="line"/>
      <point x="318.03921568627453" y="55.92156862745098" type="line"/>
      <point x="258.88235294117646" y="55.92156862745098" type="line"/>
      <point x="90.2156862745098" y="694.9019607843137" type="line"/>
      <point x="26.431372549019606" y="694.9019607843137" type="line"/>
    </contour>
  </outline>
</glyph>
<glyph name="W" format="2">
  <advance width="874.8627450980392"/>
  <unicode hex="0057"/>
  <outline>
    <contour>
      <point x="175.8235294117647" y="0.0" type="line"/>
      <point x="300.62745098039215" y="0.0" type="line"/>
      <point x="443.47058823529414" y="635.8627450980392" type="line"/>
      <point x="431.3921568627451" y="635.8627450980392" type="line"/>
      <point x="574.2352941176471" y="0.0" type="line"/>
      <point x="699.0392156862745" y="0.0" type="line"/>
      <point x="841.7058823529412" y="694.9019607843137" type="line"/>
      <point x="777.9215686274509" y="694.9019607843137" type="line"/>
      <point x="652.1960784313726" y="55.41176470588235" type="line"/>
      <point x="619.313725490196" y="55.41176470588235" type="line"/>
      <point x="474.21568627450984" y="687.4509803921569" type="line"/>
      <point x="400.6470588235294" y="687.4509803921569" type="line"/>
      <point x="255.54901960784315" y="55.41176470588235" type="line"/>
      <point x="222.66666666666666" y="55.41176470588235" type="line"/>
      <point x="96.94117647058823" y="694.9019607843137" type="line"/>
      <point x="33.15686274509804" y="694.9019607843137" type="line"/>
    </contour>
  </outline>
</glyph>
<glyph name="X" format="2">
  <advance width="555.5882352941177"/>
  <unicode hex="0058"/>
  <outline>
    <contour>
      <point x="20.92156862745098" y="0.0" type="line"/>
      <point x="89.41176470588235" y="0.0" type="line"/>
      <point x="278.01960784313724" y="299.8235294117647" type="line"/>
      <point x="463.62745098039215" y="0.0" type="line"/>
      <point x="534.6666666666666" y="0.0" type="line"/>
      <point x="318.54901960784315" y="343.4313725490196" type="line"/>
      <point x="534.6666666666666" y="694.9019607843137" type="line"/>
      <point x="466.1764705882353" y="694.9019607843137" type="line"/>
      <point x="279.05882352941177" y="388.27450980392155" type="line"/>
      <point x="91.96078431372548" y="694.9019607843137" type="line"/>
      <point x="20.92156862745098" y="694.9019607843137" type="line"/>
      <point x="239.27450980392157" y="341.6470588235294" type="line"/>
    </contour>
  </outline>
</glyph>
<glyph name="Y" format="2">
  <advance width="533.9019607843137"/>
  <unicode hex="0059"/>
  <outline>
    <contour>
      <point x="236.078431372549" y="0.0" type="line"/>
      <point x="298.078431372549" y="0.0" type="line"/>
      <point x="298.078431372549" y="294.37254901960785" type="line"/>
      <point x="520.9803921568628" y="694.9019607843137" type="line"/>
      <point x="450.6862745098039" y="694.9019607843137" type="line"/>
      <point x="266.8235294117647" y="358.3333333333333" type="line"/>
      <point x="82.96078431372548" y="694.9019607843137" type="line"/>
      <point x="12.666666666666668" y="694.9019607843137" type="line"/>
      <point x="236.078431372549" y="294.37254901960785" type="line"/>
    </contour>
  </outline>
</glyph>
<glyph name="Z" format="2">
  <advance width="537.2156862745098"/>
  <unicode hex="005A"/>
  <outline>
    <contour>
      <point x="43.23529411764706" y="-0.7450980392156863" type="line"/>
      <point x="493.2352941176471" y="-0.7450980392156863" type="line"/>
      <point x="493.2352941176471" y="55.17647058823529" type="line"/>
      <point x="113.11764705882352" y="55.17647058823529" type="line"/>
      <point x="113.11764705882352" y="76.15686274509804" type="line"/>
      <point x="493.2352941176471" y="612.156862745098" type="line"/>
      <point x="493.2352941176471" y="694.9019607843137" type="line"/>
      <point x="43.23529411764706" y="694.9019607843137" type="line"/>
      <point x="43.23529411764706" y="638.9803921568628" type="line"/>
      <point x="423.3529411764706" y="638.9803921568628" type="line"/>
      <point x="423.3529411764706" y="616.5098039215686" type="line"/>
      <point x="43.23529411764706" y="81.0" type="line"/>
    </contour>
  </outline>
</glyph>
<glyph name="bracketleft" format="2">
  <advance width="322.21568627450984"/>
  <unicode hex="005B"/>
  <outline>
    <contour>
      <point x="81.41176470588235" y="-123.0" type="line"/>
      <point x="281.2549019607843" y="-123.0" type="line"/>
      <point x="281.2549019607843" y="-68.56862745098039" type="line"/>
      <point x="142.41176470588235" y="-68.56862745098039" type="line"/>
      <point x="142.41176470588235" y="694.5686274509803" type="line"/>
      <point x="281.2549019607843" y="694.5686274509803" type="line"/>
      <point x="281.2549019607843" y="749.0" type="line"/>
      <point x="81.41176470588235" y="749.0" type="line"/>
    </contour>
  </outline>
</glyph>
<glyph name="backslash" format="2">
  <advance width="421.2549019607843"/>
  <unicode hex="005C"/>
  <outline>
    <contour>
      <point x="335.0980392156863" y="-9.176470588235293" type="line"/>
      <point x="390.7450980392157" y="13.745098039215687" type="line"/>
      <point x="84.90196078431373" y="704.8235294117648" type="line"/>
      <point x="29.764705882352942" y="681.1372549019608" type="line"/>
    </contour>
  </outline>
</glyph>
<glyph name="bracketright" format="2">
  <advance width="322.21568627450984"/>
  <unicode hex="005D"/>
  <outline>
    <contour>
      <point x="240.80392156862746" y="-123.0" type="line"/>
      <point x="240.80392156862746" y="749.0" type="line"/>
      <point x="40.96078431372549" y="749.0" type="line"/>
      <point x="40.96078431372549" y="694.5686274509803" type="line"/>
      <point x="179.80392156862746" y="694.5686274509803" type="line"/>
      <point x="179.80392156862746" y="-68.56862745098039" type="line"/>
      <point x="40.96078431372549" y="-68.56862745098039" type="line"/>
      <point x="40.96078431372549" y="-123.0" type="line"/>
    </contour>
  </outline>
</glyph>
<glyph name="asciicircum" format="2">
  <advance width="560.0"/>
  <unicode hex="005E"/>
  <outline>
    <contour>
      <point x="66.45098039215686" y="320.45098039215685" type="line"/>
      <point x="131.94117647058823" y="320.45098039215685" type="line"/>
      <point x="278.47058823529414" y="600.0392156862745" type="line"/>
      <point x="430.6862745098039" y="320.45098039215685" type="line"/>
      <point x="496.1764705882353" y="320.45098039215685" type="line"/>
      <point x="305.9019607843137" y="660.0" type="line"/>
      <point x="250.01960784313727" y="660.0" type="line"/>
    </contour>
  </outline>
</glyph>
<glyph name="underscore" format="2">
  <advance width="634.9019607843137"/>
  <unicode hex="005F"/>
  <outline>
    <contour>
      <point x="103.45098039215686" y="-150.49019607843138" type="line"/>
      <point x="531.4509803921569" y="-150.49019607843138" type="line"/>
      <point x="531.4509803921569" y="-96.09803921568627" type="line"/>
      <point x="103.45098039215686" y="-96.09803921568627" type="line"/>
    </contour>
  </outline>
</glyph>
<glyph name="grave" format="2">
  <advance width="228.50980392156862"/>
  <unicode hex="0060"/>
  <outline>
    <contour>
      <point x="3.117647058823529" y="684.9411764705883" type="line"/>
      <point x="213.70588235294116" y="597.5294117647059" type="line"/>
      <point x="232.52941176470588" y="639.8235294117648" type="line"/>
      <point x="25.235294117647058" y="737.3529411764706" type="line"/>
    </contour>
  </outline>
</glyph>
<glyph name="a" format="2">
  <advance width="499.078431372549"/>
  <unicode hex="0061"/>
  <outline>
    <contour>
      <point x="180.27450980392157" y="-9.764705882352942" type="curve" smooth="yes"/>
      <point x="248.68627450980392" y="-9.764705882352942"/>
      <point x="327.5686274509804" y="13.96078431372549"/>
      <point x="368.2549019607843" y="31.19607843137255" type="curve"/>
      <point x="380.54901960784315" y="17.450980392156865"/>
      <point x="395.3137254901961" y="7.96078431372549"/>
      <point x="412.3333333333333" y="1.4705882352941178" type="curve"/>
      <point x="431.8627450980392" y="-6.2745098039215685"/>
      <point x="454.88235294117646" y="-9.019607843137255"/>
      <point x="481.45098039215685" y="-9.019607843137255" type="curve"/>
      <point x="483.96078431372547" y="39.8235294117647" type="line"/>
      <point x="451.0" y="43.33333333333333"/>
      <point x="422.4117647058824" y="53.84313725490196"/>
      <point x="419.6666666666667" y="83.09803921568627" type="curve"/>
      <point x="419.6666666666667" y="350.70588235294116" type="line" smooth="yes"/>
      <point x="419.6666666666667" y="457.27450980392155"/>
      <point x="372.88235294117646" y="509.7647058823529"/>
      <point x="264.4901960784314" y="509.7647058823529" type="curve" smooth="yes"/>
      <point x="203.4313725490196" y="509.7647058823529"/>
      <point x="117.17647058823529" y="497.98039215686276"/>
      <point x="69.68627450980392" y="488.96078431372547" type="curve"/>
      <point x="72.94117647058823" y="440.6666666666667" type="line"/>
      <point x="123.45098039215686" y="446.6470588235294"/>
      <point x="209.9607843137255" y="455.37254901960785"/>
      <point x="261.6862745098039" y="455.37254901960785" type="curve" smooth="yes"/>
      <point x="326.27450980392155" y="455.37254901960785"/>
      <point x="359.4313725490196" y="426.4901960784314"/>
      <point x="359.4313725490196" y="350.70588235294116" type="curve" smooth="yes"/>
      <point x="359.4313725490196" y="304.05882352941177" type="line"/>
      <point x="190.58823529411765" y="287.11764705882354" type="line" smooth="yes"/>
      <point x="89.52941176470588" y="277.62745098039215"/>
      <point x="43.15686274509804" y="232.9607843137255"/>
      <point x="43.15686274509804" y="140.8235294117647" type="curve" smooth="yes"/>
      <point x="43.15686274509804" y="41.529411764705884"/>
      <point x="92.41176470588235" y="-9.764705882352942"/>
    </contour>
    <contour>
      <point x="188.41176470588235" y="41.86274509803921" type="curve" smooth="yes"/>
      <point x="133.7843137254902" y="41.86274509803921"/>
      <point x="105.13725490196077" y="78.52941176470588"/>
      <point x="105.13725490196077" y="141.84313725490196" type="curve" smooth="yes"/>
      <point x="105.13725490196077" y="202.4313725490196"/>
      <point x="130.60784313725492" y="233.58823529411765"/>
      <point x="197.64705882352942" y="240.31372549019608" type="curve" smooth="yes"/>
      <point x="359.4313725490196" y="256.5098039215686" type="line"/>
      <point x="359.4313725490196" y="76.49019607843138" type="line"/>
      <point x="320.52941176470586" y="61.294117647058826"/>
      <point x="247.72549019607843" y="41.86274509803921"/>
    </contour>
  </outline>
</glyph>
<glyph name="b" format="2">
  <advance width="521.6470588235294"/>
  <unicode hex="0062"/>
  <outline>
    <contour>
      <point x="234.64705882352942" y="-9.764705882352942" type="curve" smooth="yes"/>
      <point x="418.0980392156863" y="-9.764705882352942"/>
      <point x="468.0" y="63.6078431372549"/>
      <point x="468.0" y="257.7450980392157" type="curve" smooth="yes"/>
      <point x="468.0" y="434.843137254902"/>
      <point x="425.843137254902" y="509.7647058823529"/>
      <point x="289.843137254902" y="509.7647058823529" type="curve" smooth="yes"/>
      <point x="233.2549019607843" y="509.7647058823529"/>
      <point x="168.11764705882354" y="488.80392156862746"/>
      <point x="134.15686274509804" y="473.078431372549" type="curve"/>
      <point x="134.15686274509804" y="722.3529411764706" type="line"/>
      <point x="73.92156862745098" y="722.3529411764706" type="line"/>
      <point x="73.92156862745098" y="0.5098039215686274" type="line"/>
      <point x="116.05882352941177" y="-4.0"/>
      <point x="188.47058823529412" y="-9.764705882352942"/>
    </contour>
    <contour>
      <point x="233.90196078431373" y="44.666666666666664" type="curve" smooth="yes"/>
      <point x="211.72549019607843" y="44.666666666666664"/>
      <point x="164.58823529411765" y="47.41176470588235"/>
      <point x="134.15686274509804" y="50.15686274509804" type="curve"/>
      <point x="134.15686274509804" y="422.21568627450984" type="line"/>
      <point x="166.58823529411765" y="436.4117647058824"/>
      <point x="229.4313725490196" y="455.3333333333333"/>
      <point x="285.2549019607843" y="455.3333333333333" type="curve" smooth="yes"/>
      <point x="381.21568627450984" y="455.3333333333333"/>
      <point x="405.7647058823529" y="393.7647058823529"/>
      <point x="405.7647058823529" y="257.7450980392157" type="curve" smooth="yes"/>
      <point x="405.7647058823529" y="110.25490196078431"/>
      <point x="381.78431372549016" y="44.666666666666664"/>
    </contour>
  </outline>
</glyph>
<glyph name="c" format="2">
  <advance width="433.3333333333333"/>
  <unicode hex="0063"/>
  <outline>
    <contour>
      <point x="260.156862745098" y="-9.764705882352942" type="curve" smooth="yes"/>
      <point x="291.47058823529414" y="-9.764705882352942"/>
      <point x="354.05882352941177" y="-2.980392156862745"/>
      <point x="392.6078431372549" y="2.2941176470588234" type="curve"/>
      <point x="390.0980392156863" y="53.41176470588235" type="line"/>
      <point x="355.3529411764706" y="49.666666666666664"/>
      <point x="299.11764705882354" y="44.666666666666664"/>
      <point x="271.11764705882354" y="44.666666666666664" type="curve" smooth="yes"/>
      <point x="140.84313725490196" y="44.666666666666664"/>
      <point x="116.62745098039215" y="102.76470588235294"/>
      <point x="116.62745098039215" y="259.47058823529414" type="curve" smooth="yes"/>
      <point x="116.62745098039215" y="402.6862745098039"/>
      <point x="151.01960784313724" y="455.3333333333333"/>
      <point x="270.8627450980392" y="455.3333333333333" type="curve" smooth="yes"/>
      <point x="298.8627450980392" y="455.3333333333333"/>
      <point x="354.6078431372549" y="449.5882352941177"/>
      <point x="388.6078431372549" y="445.843137254902" type="curve"/>
      <point x="391.11764705882354" y="496.70588235294116" type="line"/>
      <point x="353.8235294117647" y="501.98039215686276"/>
      <point x="292.4901960784314" y="509.7647058823529"/>
      <point x="260.921568627451" y="509.7647058823529" type="curve" smooth="yes"/>
      <point x="111.92156862745098" y="509.7647058823529"/>
      <point x="54.3921568627451" y="442.4313725490196"/>
      <point x="54.3921568627451" y="259.47058823529414" type="curve" smooth="yes"/>
      <point x="54.3921568627451" y="61.78431372549019"/>
      <point x="97.74509803921569" y="-9.764705882352942"/>
    </contour>
  </outline>
</glyph>
<glyph name="d" format="2">
  <advance width="523.6666666666666"/>
  <unicode hex="0064"/>
  <outline>
    <contour>
      <point x="229.27450980392157" y="-9.764705882352942" type="curve" smooth="yes"/>
      <point x="287.88235294117646" y="-9.764705882352942"/>
      <point x="355.29411764705884" y="16.686274509803923"/>
      <point x="389.01960784313724" y="36.64705882352941" type="curve"/>
      <point x="389.01960784313724" y="0.0" type="line"/>
      <point x="449.0" y="0.0" type="line"/>
      <point x="449.0" y="722.3529411764706" type="line"/>
      <point x="388.7647058823529" y="722.3529411764706" type="line"/>
      <point x="388.7647058823529" y="497.2549019607843" type="line"/>
      <point x="362.2352941176471" y="501.7647058823529"/>
      <point x="304.78431372549016" y="509.7647058823529"/>
      <point x="262.88235294117646" y="509.7647058823529" type="curve" smooth="yes"/>
      <point x="106.01960784313725" y="509.7647058823529"/>
      <point x="52.90196078431373" y="419.3529411764706"/>
      <point x="52.90196078431373" y="244.54901960784315" type="curve" smooth="yes"/>
      <point x="52.90196078431373" y="18.627450980392155"/>
      <point x="144.58823529411765" y="-9.764705882352942"/>
    </contour>
    <contour>
      <point x="235.13725490196077" y="44.666666666666664" type="curve" smooth="yes"/>
      <point x="177.35294117647058" y="44.666666666666664"/>
      <point x="115.13725490196077" y="68.0392156862745"/>
      <point x="115.13725490196077" y="244.54901960784315" type="curve" smooth="yes"/>
      <point x="115.13725490196077" y="381.3137254901961"/>
      <point x="146.88235294117646" y="456.3529411764706"/>
      <point x="265.4313725490196" y="456.3529411764706" type="curve" smooth="yes"/>
      <point x="302.3921568627451" y="456.3529411764706"/>
      <point x="363.27450980392155" y="448.8627450980392"/>
      <point x="388.7647058823529" y="444.8627450980392" type="curve"/>
      <point x="388.7647058823529" y="87.23529411764706" type="line"/>
      <point x="355.843137254902" y="69.31372549019608"/>
      <point x="290.7450980392157" y="44.666666666666664"/>
    </contour>
  </outline>
</glyph>
<glyph name="e" format="2">
  <advance width="504.03921568627453"/>
  <unicode hex="0065"/>
  <outline>
    <contour>
      <point x="247.52941176470588" y="-9.764705882352942" type="curve" smooth="yes"/>
      <point x="304.3529411764706" y="-9.764705882352942"/>
      <point x="390.1372549019608" y="-1.9607843137254903"/>
      <point x="438.3921568627451" y="4.078431372549019" type="curve"/>
      <point x="436.3921568627451" y="53.15686274509804" type="line"/>
      <point x="389.4117647058824" y="49.15686274509804"/>
      <point x="306.921568627451" y="44.15686274509804"/>
      <point x="253.62745098039215" y="44.15686274509804" type="curve" smooth="yes"/>
      <point x="148.84313725490196" y="44.15686274509804"/>
      <point x="114.88235294117646" y="106.92156862745098"/>
      <point x="114.62745098039215" y="225.0392156862745" type="curve"/>
      <point x="454.078431372549" y="225.0392156862745" type="line"/>
      <point x="456.62745098039215" y="273.3333333333333" type="line"/>
      <point x="456.62745098039215" y="440.72549019607845"/>
      <point x="388.6078431372549" y="509.7647058823529"/>
      <point x="259.4901960784314" y="509.7647058823529" type="curve" smooth="yes"/>
      <point x="137.33333333333334" y="509.7647058823529"/>
      <point x="52.64705882352941" y="441.11764705882354"/>
      <point x="52.64705882352941" y="248.2156862745098" type="curve" smooth="yes"/>
      <point x="52.64705882352941" y="80.88235294117646"/>
      <point x="98.01960784313725" y="-9.019607843137255"/>
    </contour>
    <contour>
      <point x="114.37254901960785" y="274.88235294117646" type="line"/>
      <point x="114.62745098039215" y="407.5098039215686"/>
      <point x="168.66666666666666" y="457.88235294117646"/>
      <point x="259.4901960784314" y="457.88235294117646" type="curve" smooth="yes"/>
      <point x="353.03921568627453" y="457.88235294117646"/>
      <point x="395.4117647058824" y="409.52941176470586"/>
      <point x="395.4117647058824" y="274.88235294117646" type="curve"/>
    </contour>
  </outline>
</glyph>
<glyph name="f" format="2">
  <advance width="324.21568627450984"/>
  <unicode hex="0066"/>
  <outline>
    <contour>
      <point x="94.94117647058823" y="0.0" type="line"/>
      <point x="155.1764705882353" y="0.0" type="line"/>
      <point x="155.1764705882353" y="447.0980392156863" type="line"/>
      <point x="306.72549019607845" y="447.0980392156863" type="line"/>
      <point x="306.72549019607845" y="500.0" type="line"/>
      <point x="155.1764705882353" y="500.0" type="line"/>
      <point x="155.1764705882353" y="550.0588235294117" type="line" smooth="yes"/>
      <point x="155.1764705882353" y="652.4705882352941"/>
      <point x="175.60784313725492" y="677.686274509804"/>
      <point x="235.9607843137255" y="677.686274509804" type="curve" smooth="yes"/>
      <point x="256.72549019607845" y="677.686274509804"/>
      <point x="298.1764705882353" y="676.686274509804"/>
      <point x="323.88235294117646" y="675.686274509804" type="curve"/>
      <point x="324.3921568627451" y="726.5686274509804" type="line"/>
      <point x="315.47058823529414" y="728.0980392156863"/>
      <point x="250.7843137254902" y="732.1176470588235"/>
      <point x="226.7843137254902" y="732.1176470588235" type="curve" smooth="yes"/>
      <point x="131.19607843137254" y="732.1176470588235"/>
      <point x="94.94117647058823" y="695.0588235294117"/>
      <point x="94.94117647058823" y="551.0588235294117" type="curve" smooth="yes"/>
      <point x="94.94117647058823" y="500.0" type="line"/>
      <point x="29.764705882352942" y="500.0" type="line"/>
      <point x="29.764705882352942" y="447.0980392156863" type="line"/>
      <point x="94.94117647058823" y="447.0980392156863" type="line"/>
    </contour>
  </outline>
</glyph>
<glyph name="g" format="2">
  <advance width="509.4117647058824"/>
  <unicode hex="0067"/>
  <outline>
    <contour>
      <point x="261.6078431372549" y="-236.7058823529412" type="curve" smooth="yes"/>
      <point x="405.5098039215686" y="-236.7058823529412"/>
      <point x="480.72549019607845" y="-190.7058823529412"/>
      <point x="480.72549019607845" y="-79.13725490196079" type="curve" smooth="yes"/>
      <point x="480.72549019607845" y="41.80392156862745"/>
      <point x="429.0" y="66.3921568627451"/>
      <point x="293.27450980392155" y="66.64705882352942" type="curve" smooth="yes"/>
      <point x="174.0" y="66.90196078431373"/>
      <point x="166.47058823529412" y="72.15686274509804"/>
      <point x="166.47058823529412" y="115.29411764705883" type="curve" smooth="yes"/>
      <point x="166.47058823529412" y="124.29411764705883"/>
      <point x="177.68627450980392" y="155.9607843137255"/>
      <point x="186.15686274509804" y="177.39215686274508" type="curve"/>
      <point x="197.39215686274508" y="175.39215686274508"/>
      <point x="228.078431372549" y="173.39215686274508"/>
      <point x="236.84313725490196" y="173.39215686274508" type="curve" smooth="yes"/>
      <point x="363.4117647058824" y="173.39215686274508"/>
      <point x="426.2352941176471" y="213.11764705882354"/>
      <point x="426.2352941176471" y="340.45098039215685" type="curve" smooth="yes"/>
      <point x="426.2352941176471" y="399.2549019607843"/>
      <point x="411.7450980392157" y="427.98039215686276"/>
      <point x="390.8235294117647" y="448.6862745098039" type="curve"/>
      <point x="490.4117647058824" y="447.156862745098" type="line"/>
      <point x="490.4117647058824" y="500.5098039215686" type="line"/>
      <point x="345.05882352941177" y="497.0" type="line"/>
      <point x="322.29411764705884" y="503.0"/>
      <point x="277.54901960784315" y="510.0"/>
      <point x="240.33333333333334" y="510.0" type="curve" smooth="yes"/>
      <point x="130.7843137254902" y="510.0"/>
      <point x="59.3921568627451" y="462.0"/>
      <point x="59.3921568627451" y="340.45098039215685" type="curve" smooth="yes"/>
      <point x="59.3921568627451" y="246.7450980392157"/>
      <point x="97.6078431372549" y="206.76470588235293"/>
      <point x="140.80392156862746" y="189.2156862745098" type="curve"/>
      <point x="126.7843137254902" y="162.98039215686273"/>
      <point x="108.50980392156862" y="123.49019607843137"/>
      <point x="108.50980392156862" y="110.70588235294117" type="curve" smooth="yes"/>
      <point x="108.50980392156862" y="79.70588235294117"/>
      <point x="116.80392156862746" y="54.17647058823529"/>
      <point x="134.33333333333334" y="42.90196078431373" type="curve"/>
      <point x="81.35294117647058" y="3.901960784313726"/>
      <point x="52.64705882352941" y="-21.901960784313726"/>
      <point x="52.64705882352941" y="-82.80392156862746" type="curve" smooth="yes"/>
      <point x="52.64705882352941" y="-199.27450980392157"/>
      <point x="100.70588235294117" y="-236.7058823529412"/>
    </contour>
    <contour>
      <point x="262.6078431372549" y="-184.8235294117647" type="curve" smooth="yes"/>
      <point x="140.66666666666666" y="-184.8235294117647"/>
      <point x="113.11764705882354" y="-156.66666666666669"/>
      <point x="113.11764705882354" y="-78.49019607843137" type="curve" smooth="yes"/>
      <point x="113.11764705882354" y="-36.35294117647059"/>
      <point x="128.33333333333331" y="-16.88235294117647"/>
      <point x="175.88235294117646" y="17.254901960784316" type="curve"/>
      <point x="184.2549019607843" y="16.490196078431374"/>
      <point x="263.7647058823529" y="13.235294117647058"/>
      <point x="288.98039215686276" y="13.235294117647058" type="curve" smooth="yes"/>
      <point x="383.0980392156863" y="12.980392156862749"/>
      <point x="418.7450980392157" y="3.764705882352942"/>
      <point x="418.7450980392157" y="-81.17647058823529" type="curve" smooth="yes"/>
      <point x="418.7450980392157" y="-154.4313725490196"/>
      <point x="371.5686274509804" y="-184.8235294117647"/>
    </contour>
    <contour>
      <point x="239.84313725490196" y="223.23529411764707" type="curve" smooth="yes"/>
      <point x="156.0392156862745" y="223.23529411764707"/>
      <point x="120.37254901960785" y="253.9607843137255"/>
      <point x="120.37254901960785" y="340.45098039215685" type="curve" smooth="yes"/>
      <point x="120.37254901960785" y="426.94117647058823"/>
      <point x="156.0392156862745" y="459.6470588235294"/>
      <point x="239.84313725490196" y="459.6470588235294" type="curve" smooth="yes"/>
      <point x="331.843137254902" y="459.6470588235294"/>
      <point x="365.01960784313724" y="426.94117647058823"/>
      <point x="365.01960784313724" y="340.45098039215685" type="curve" smooth="yes"/>
      <point x="365.01960784313724" y="253.9607843137255"/>
      <point x="331.843137254902" y="223.23529411764707"/>
    </contour>
  </outline>
</glyph>
<glyph name="h" format="2">
  <advance width="532.8823529411765"/>
  <unicode hex="0068"/>
  <outline>
    <contour>
      <point x="74.66666666666667" y="0.0" type="line"/>
      <point x="134.90196078431373" y="0.0" type="line"/>
      <point x="134.90196078431373" y="421.45098039215685" type="line"/>
      <point x="167.5686274509804" y="435.9019607843137"/>
      <point x="231.15686274509804" y="455.3333333333333"/>
      <point x="287.7450980392157" y="455.3333333333333" type="curve" smooth="yes"/>
      <point x="387.01960784313724" y="455.3333333333333"/>
      <point x="402.98039215686276" y="406.3333333333333"/>
      <point x="402.98039215686276" y="260.54901960784315" type="curve" smooth="yes"/>
      <point x="402.98039215686276" y="0.0" type="line"/>
      <point x="463.21568627450984" y="0.0" type="line"/>
      <point x="463.21568627450984" y="262.80392156862746" type="line" smooth="yes"/>
      <point x="463.21568627450984" y="446.3529411764706"/>
      <point x="433.1764705882353" y="509.7647058823529"/>
      <point x="296.156862745098" y="509.7647058823529" type="curve" smooth="yes"/>
      <point x="239.01960784313724" y="509.7647058823529"/>
      <point x="170.86274509803923" y="488.01960784313724"/>
      <point x="134.90196078431373" y="471.52941176470586" type="curve"/>
      <point x="134.90196078431373" y="722.3529411764706" type="line"/>
      <point x="74.66666666666667" y="722.3529411764706" type="line"/>
    </contour>
  </outline>
</glyph>
<glyph name="i" format="2">
  <advance width="209.5686274509804"/>
  <unicode hex="0069"/>
  <outline>
    <contour>
      <point x="74.66666666666667" y="0.0" type="line"/>
      <point x="134.90196078431373" y="0.0" type="line"/>
      <point x="134.90196078431373" y="500.0" type="line"/>
      <point x="74.66666666666667" y="500.0" type="line"/>
    </contour>
    <contour>
      <point x="74.66666666666667" y="624.3529411764706" type="line"/>
      <point x="134.90196078431373" y="624.3529411764706" type="line"/>
      <point x="134.90196078431373" y="700.0" type="line"/>
      <point x="74.66666666666667" y="700.0" type="line"/>
    </contour>
  </outline>
</glyph>
<glyph name="j" format="2">
  <advance width="209.078431372549"/>
  <unicode hex="006A"/>
  <outline>
    <contour>
      <point x="-28.686274509803923" y="-221.05882352941177" type="line"/>
      <point x="102.86274509803921" y="-154.0392156862745"/>
      <point x="135.15686274509804" y="-109.29411764705883"/>
      <point x="135.15686274509804" y="9.588235294117647" type="curve" smooth="yes"/>
      <point x="135.15686274509804" y="500.0" type="line"/>
      <point x="74.92156862745098" y="500.0" type="line"/>
      <point x="74.92156862745098" y="10.588235294117647" type="line" smooth="yes"/>
      <point x="74.92156862745098" y="-88.56862745098039"/>
      <point x="53.21568627450981" y="-112.76470588235294"/>
      <point x="-52.627450980392155" y="-172.72549019607843" type="curve"/>
    </contour>
    <contour>
      <point x="74.92156862745098" y="624.3529411764706" type="line"/>
      <point x="135.15686274509804" y="624.3529411764706" type="line"/>
      <point x="135.15686274509804" y="700.0" type="line"/>
      <point x="74.92156862745098" y="700.0" type="line"/>
    </contour>
  </outline>
</glyph>
<glyph name="k" format="2">
  <advance width="470.29411764705884"/>
  <unicode hex="006B"/>
  <anchor x="233.19607843137254" y="0.0" name="bottom"/>
  <outline>
    <contour>
      <point x="74.66666666666667" y="0.0" type="line"/>
      <point x="134.90196078431373" y="0.0" type="line"/>
      <point x="134.90196078431373" y="238.90196078431373" type="line"/>
      <point x="220.45098039215685" y="241.19607843137254" type="line"/>
      <point x="380.3137254901961" y="0.0" type="line"/>
      <point x="450.0980392156863" y="0.0" type="line"/>
      <point x="272.11764705882354" y="271.19607843137254" type="line"/>
      <point x="442.3529411764706" y="500.0" type="line"/>
      <point x="372.8235294117647" y="500.0" type="line"/>
      <point x="219.4313725490196" y="294.6078431372549" type="line"/>
      <point x="134.90196078431373" y="292.3137254901961" type="line"/>
      <point x="134.90196078431373" y="722.3529411764706" type="line"/>
      <point x="74.66666666666667" y="722.3529411764706" type="line"/>
    </contour>
  </outline>
</glyph>
<glyph name="l" format="2">
  <advance width="221.5686274509804"/>
  <unicode hex="006C"/>
  <anchor x="111.15686274509804" y="0.0" name="bottom"/>
  <outline>
    <contour>
      <point x="80.66666666666667" y="0.0" type="line"/>
      <point x="140.90196078431373" y="0.0" type="line"/>
      <point x="140.90196078431373" y="722.3529411764706" type="line"/>
      <point x="80.66666666666667" y="722.3529411764706" type="line"/>
    </contour>
  </outline>
</glyph>
<glyph name="m" format="2">
  <advance width="835.2745098039215"/>
  <unicode hex="006D"/>
  <outline>
    <contour>
      <point x="74.66666666666667" y="0.0" type="line"/>
      <point x="134.90196078431373" y="0.0" type="line"/>
      <point x="134.90196078431373" y="413.4901960784314" type="line"/>
      <point x="163.58823529411765" y="431.921568627451"/>
      <point x="223.19607843137254" y="455.3333333333333"/>
      <point x="279.7843137254902" y="455.3333333333333" type="curve" smooth="yes"/>
      <point x="378.29411764705884" y="455.3333333333333"/>
      <point x="393.7450980392157" y="407.3529411764706"/>
      <point x="393.7450980392157" y="257.7450980392157" type="curve" smooth="yes"/>
      <point x="393.7450980392157" y="0.0" type="line"/>
      <point x="453.98039215686276" y="0.0" type="line"/>
      <point x="453.98039215686276" y="259.7450980392157" type="line" smooth="yes"/>
      <point x="453.98039215686276" y="322.7647058823529"/>
      <point x="450.4901960784314" y="377.5098039215686"/>
      <point x="439.54901960784315" y="413.98039215686276" type="curve"/>
      <point x="469.2549019607843" y="431.6666666666667"/>
      <point x="531.1176470588235" y="455.3333333333333"/>
      <point x="591.4117647058823" y="455.3333333333333" type="curve" smooth="yes"/>
      <point x="689.4117647058823" y="455.3333333333333"/>
      <point x="705.3725490196078" y="406.3333333333333"/>
      <point x="705.3725490196078" y="260.29411764705884" type="curve" smooth="yes"/>
      <point x="705.3725490196078" y="0.0" type="line"/>
      <point x="765.6078431372549" y="0.0" type="line"/>
      <point x="765.6078431372549" y="262.80392156862746" type="line" smooth="yes"/>
      <point x="765.6078431372549" y="448.3921568627451"/>
      <point x="734.5490196078431" y="509.7647058823529"/>
      <point x="598.5490196078431" y="509.7647058823529" type="curve" smooth="yes"/>
      <point x="530.8823529411765" y="509.7647058823529"/>
      <point x="456.3921568627451" y="479.7843137254902"/>
      <point x="418.62745098039215" y="457.54901960784315" type="curve"/>
      <point x="393.0980392156863" y="494.01960784313724"/>
      <point x="356.3333333333333" y="509.7647058823529"/>
      <point x="286.921568627451" y="509.7647058823529" type="curve" smooth="yes"/>
      <point x="230.80392156862746" y="509.7647058823529"/>
      <point x="167.62745098039215" y="483.03921568627453"/>
      <point x="134.64705882352942" y="463.05882352941177" type="curve"/>
      <point x="134.64705882352942" y="500.0" type="line"/>
      <point x="74.66666666666667" y="500.0" type="line"/>
    </contour>
  </outline>
</glyph>
<glyph name="n" format="2">
  <advance width="533.6274509803922"/>
  <unicode hex="006E"/>
  <anchor x="270.01960784313724" y="0.0" name="bottom"/>
  <outline>
    <contour>
      <point x="74.66666666666667" y="0.0" type="line"/>
      <point x="134.90196078431373" y="0.0" type="line"/>
      <point x="134.90196078431373" y="413.4901960784314" type="line"/>
      <point x="167.31372549019608" y="431.921568627451"/>
      <point x="231.39215686274508" y="455.3333333333333"/>
      <point x="288.4901960784314" y="455.3333333333333" type="curve" smooth="yes"/>
      <point x="387.7647058823529" y="455.3333333333333"/>
      <point x="403.72549019607845" y="406.3333333333333"/>
      <point x="403.72549019607845" y="260.29411764705884" type="curve" smooth="yes"/>
      <point x="403.72549019607845" y="0.0" type="line"/>
      <point x="463.96078431372547" y="0.0" type="line"/>
      <point x="463.96078431372547" y="262.80392156862746" type="line" smooth="yes"/>
      <point x="463.96078431372547" y="446.3529411764706"/>
      <point x="433.921568627451" y="509.7647058823529"/>
      <point x="296.9019607843137" y="509.7647058823529" type="curve" smooth="yes"/>
      <point x="239.2549019607843" y="509.7647058823529"/>
      <point x="170.35294117647058" y="483.03921568627453"/>
      <point x="134.64705882352942" y="463.05882352941177" type="curve"/>
      <point x="134.64705882352942" y="500.0" type="line"/>
      <point x="74.66666666666667" y="500.0" type="line"/>
    </contour>
  </outline>
</glyph>
<glyph name="o" format="2">
  <advance width="527.5294117647059"/>
  <unicode hex="006F"/>
  <outline>
    <contour>
      <point x="263.7647058823529" y="-9.764705882352942" type="curve" smooth="yes"/>
      <point x="431.05882352941177" y="-9.764705882352942"/>
      <point x="473.6470588235294" y="67.94117647058823"/>
      <point x="473.6470588235294" y="256.96078431372547" type="curve" smooth="yes"/>
      <point x="473.6470588235294" y="434.05882352941177"/>
      <point x="418.3921568627451" y="509.7647058823529"/>
      <point x="263.7647058823529" y="509.7647058823529" type="curve" smooth="yes"/>
      <point x="109.13725490196079" y="509.7647058823529"/>
      <point x="53.88235294117647" y="434.05882352941177"/>
      <point x="53.88235294117647" y="256.96078431372547" type="curve" smooth="yes"/>
      <point x="53.88235294117647" y="67.94117647058823"/>
      <point x="96.47058823529412" y="-9.764705882352942"/>
    </contour>
    <contour>
      <point x="263.7647058823529" y="43.13725490196078" type="curve" smooth="yes"/>
      <point x="134.62745098039215" y="43.13725490196078"/>
      <point x="116.11764705882354" y="104.07843137254902"/>
      <point x="116.11764705882354" y="256.96078431372547" type="curve" smooth="yes"/>
      <point x="116.11764705882354" y="406.8627450980392"/>
      <point x="149.52941176470588" y="456.8627450980392"/>
      <point x="263.7647058823529" y="456.8627450980392" type="curve" smooth="yes"/>
      <point x="378.0" y="456.8627450980392"/>
      <point x="411.4117647058824" y="406.8627450980392"/>
      <point x="411.4117647058824" y="256.96078431372547" type="curve" smooth="yes"/>
      <point x="411.4117647058824" y="104.07843137254902"/>
      <point x="392.9019607843137" y="43.13725490196078"/>
    </contour>
  </outline>
</glyph>
<glyph name="p" format="2">
  <advance width="523.1372549019608"/>
  <unicode hex="0070"/>
  <outline>
    <contour>
      <point x="74.66666666666667" y="-224.90196078431373" type="line"/>
      <point x="134.90196078431373" y="-224.90196078431373" type="line"/>
      <point x="134.90196078431373" y="2.7058823529411766" type="line"/>
      <point x="157.13725490196077" y="-1.784313725490196"/>
      <point x="207.29411764705884" y="-9.764705882352942"/>
      <point x="254.41176470588235" y="-9.764705882352942" type="curve" smooth="yes"/>
      <point x="408.9019607843137" y="-9.764705882352942"/>
      <point x="470.2352941176471" y="64.09803921568627"/>
      <point x="470.2352941176471" y="256.98039215686276" type="curve" smooth="yes"/>
      <point x="470.2352941176471" y="431.05882352941177"/>
      <point x="417.156862745098" y="509.7647058823529"/>
      <point x="292.6078431372549" y="509.7647058823529" type="curve" smooth="yes"/>
      <point x="234.2549019607843" y="509.7647058823529"/>
      <point x="167.86274509803923" y="482.54901960784315"/>
      <point x="134.64705882352942" y="461.8235294117647" type="curve"/>
      <point x="134.64705882352942" y="500.0" type="line"/>
      <point x="74.66666666666667" y="500.0" type="line"/>
    </contour>
    <contour>
      <point x="251.86274509803923" y="43.64705882352941" type="curve" smooth="yes"/>
      <point x="206.52941176470588" y="43.64705882352941"/>
      <point x="156.13725490196077" y="51.86274509803921"/>
      <point x="134.90196078431373" y="55.6078431372549" type="curve"/>
      <point x="134.90196078431373" y="410.7450980392157" type="line"/>
      <point x="167.5686274509804" y="430.1764705882353"/>
      <point x="231.39215686274508" y="455.3333333333333"/>
      <point x="285.98039215686276" y="455.3333333333333" type="curve" smooth="yes"/>
      <point x="363.5686274509804" y="455.3333333333333"/>
      <point x="408.0" y="402.6862745098039"/>
      <point x="408.0" y="256.98039215686276" type="curve" smooth="yes"/>
      <point x="408.0" y="103.29411764705883"/>
      <point x="368.37254901960785" y="43.64705882352941"/>
    </contour>
  </outline>
</glyph>
<glyph name="q" format="2">
  <advance width="521.3921568627451"/>
  <unicode hex="0071"/>
  <outline>
    <contour>
      <point x="386.4901960784314" y="-224.90196078431373" type="line"/>
      <point x="446.72549019607845" y="-224.90196078431373" type="line"/>
      <point x="446.72549019607845" y="499.7450980392157" type="line"/>
      <point x="399.6470588235294" y="504.2549019607843"/>
      <point x="322.7843137254902" y="509.7647058823529"/>
      <point x="286.0" y="509.7647058823529" type="curve" smooth="yes"/>
      <point x="110.0" y="509.7647058823529"/>
      <point x="52.90196078431373" y="434.156862745098"/>
      <point x="52.90196078431373" y="242.2549019607843" type="curve" smooth="yes"/>
      <point x="52.90196078431373" y="68.88235294117646"/>
      <point x="102.25490196078431" y="-9.764705882352942"/>
      <point x="238.2549019607843" y="-9.764705882352942" type="curve" smooth="yes"/>
      <point x="294.843137254902" y="-9.764705882352942"/>
      <point x="356.2549019607843" y="10.450980392156863"/>
      <point x="386.4901960784314" y="25.431372549019606" type="curve"/>
    </contour>
    <contour>
      <point x="242.84313725490196" y="44.666666666666664" type="curve" smooth="yes"/>
      <point x="146.88235294117646" y="44.666666666666664"/>
      <point x="114.62745098039215" y="111.45098039215686"/>
      <point x="114.62745098039215" y="242.2549019607843" type="curve" smooth="yes"/>
      <point x="114.62745098039215" y="387.5098039215686"/>
      <point x="146.31372549019608" y="456.3529411764706"/>
      <point x="286.7450980392157" y="456.3529411764706" type="curve" smooth="yes"/>
      <point x="310.70588235294116" y="456.3529411764706"/>
      <point x="357.078431372549" y="453.6078431372549"/>
      <point x="386.4901960784314" y="450.8627450980392" type="curve"/>
      <point x="386.4901960784314" y="77.7843137254902" type="line"/>
      <point x="358.03921568627453" y="63.588235294117645"/>
      <point x="298.6666666666667" y="44.666666666666664"/>
    </contour>
  </outline>
</glyph>
<glyph name="r" format="2">
  <advance width="339.21568627450984"/>
  <unicode hex="0072"/>
  <anchor x="105.15686274509804" y="0.0" name="bottom"/>
  <outline>
    <contour>
      <point x="74.66666666666667" y="0.0" type="line"/>
      <point x="134.90196078431373" y="0.0" type="line"/>
      <point x="134.90196078431373" y="375.2352941176471" type="line"/>
      <point x="174.84313725490196" y="398.9019607843137"/>
      <point x="253.0" y="435.03921568627453"/>
      <point x="322.96078431372547" y="449.27450980392155" type="curve"/>
      <point x="322.96078431372547" y="510.5098039215686" type="line"/>
      <point x="249.33333333333331" y="496.52941176470586"/>
      <point x="172.13725490196077" y="455.5882352941176"/>
      <point x="134.64705882352942" y="428.37254901960785" type="curve"/>
      <point x="134.64705882352942" y="500.0" type="line"/>
      <point x="74.66666666666667" y="500.0" type="line"/>
    </contour>
  </outline>
</glyph>
<glyph name="s" format="2">
  <advance width="463.80392156862746"/>
  <unicode hex="0073"/>
  <anchor x="244.72549019607843" y="0.0" name="bottom"/>
  <outline>
    <contour>
      <point x="225.5686274509804" y="-9.764705882352942" type="curve" smooth="yes"/>
      <point x="345.3529411764706" y="-9.764705882352942"/>
      <point x="418.37254901960785" y="28.529411764705884"/>
      <point x="418.37254901960785" y="145.52941176470588" type="curve" smooth="yes"/>
      <point x="418.37254901960785" y="241.31372549019608"/>
      <point x="369.921568627451" y="264.1372549019608"/>
      <point x="242.7450980392157" y="285.1372549019608" type="curve" smooth="yes"/>
      <point x="133.60784313725492" y="302.88235294117646"/>
      <point x="108.64705882352942" y="318.3137254901961"/>
      <point x="108.64705882352942" y="370.37254901960785" type="curve" smooth="yes"/>
      <point x="108.64705882352942" y="437.6078431372549"/>
      <point x="163.86274509803923" y="455.078431372549"/>
      <point x="226.33333333333334" y="455.078431372549" type="curve" smooth="yes"/>
      <point x="274.29411764705884" y="455.078431372549"/>
      <point x="353.0980392156863" y="446.078431372549"/>
      <point x="399.3921568627451" y="439.078431372549" type="curve"/>
      <point x="401.3921568627451" y="491.96078431372547" type="line"/>
      <point x="357.5882352941176" y="499.2352941176471"/>
      <point x="279.01960784313724" y="509.5098039215686"/>
      <point x="223.7843137254902" y="509.5098039215686" type="curve" smooth="yes"/>
      <point x="136.66666666666666" y="509.5098039215686"/>
      <point x="47.17647058823529" y="476.6666666666667"/>
      <point x="47.17647058823529" y="368.11764705882354" type="curve" smooth="yes"/>
      <point x="47.17647058823529" y="270.78431372549016"/>
      <point x="100.45098039215686" y="250.0"/>
      <point x="215.15686274509804" y="232.0" type="curve" smooth="yes"/>
      <point x="327.27450980392155" y="214.76470588235293"/>
      <point x="356.9019607843137" y="201.7843137254902"/>
      <point x="356.9019607843137" y="142.52941176470588" type="curve" smooth="yes"/>
      <point x="356.9019607843137" y="64.37254901960785"/>
      <point x="307.11764705882354" y="44.666666666666664"/>
      <point x="220.76470588235293" y="44.666666666666664" type="curve" smooth="yes"/>
      <point x="183.76470588235293" y="44.666666666666664"/>
      <point x="105.47058823529412" y="54.41176470588235"/>
      <point x="57.68627450980392" y="61.41176470588235" type="curve"/>
      <point x="53.68627450980392" y="8.274509803921568" type="line"/>
      <point x="100.9607843137255" y="0.5098039215686274"/>
      <point x="180.50980392156862" y="-9.764705882352942"/>
    </contour>
  </outline>
</glyph>
<glyph name="t" format="2">
  <advance width="347.6078431372549"/>
  <unicode hex="0074"/>
  <anchor x="210.13725490196077" y="0.0" name="bottom"/>
  <outline>
    <contour>
      <point x="235.76470588235293" y="-10.509803921568627" type="curve" smooth="yes"/>
      <point x="261.7647058823529" y="-10.509803921568627"/>
      <point x="308.7647058823529" y="-4.490196078431373"/>
      <point x="337.01960784313724" y="-0.7254901960784315" type="curve"/>
      <point x="333.2549019607843" y="50.3921568627451" type="line"/>
      <point x="305.54901960784315" y="47.90196078431372"/>
      <point x="260.8627450980392" y="43.92156862745098"/>
      <point x="240.86274509803923" y="43.92156862745098" type="curve" smooth="yes"/>
      <point x="169.80392156862746" y="43.92156862745098"/>
      <point x="161.60784313725492" y="75.86274509803921"/>
      <point x="161.60784313725492" y="199.62745098039215" type="curve" smooth="yes"/>
      <point x="161.60784313725492" y="447.0980392156863" type="line"/>
      <point x="328.5686274509804" y="447.0980392156863" type="line"/>
      <point x="328.5686274509804" y="500.0" type="line"/>
      <point x="161.60784313725492" y="500.0" type="line"/>
      <point x="161.60784313725492" y="656.8823529411765" type="line"/>
      <point x="101.37254901960785" y="656.8823529411765" type="line"/>
      <point x="101.37254901960785" y="500.0" type="line"/>
      <point x="27.470588235294116" y="500.0" type="line"/>
      <point x="27.470588235294116" y="447.0980392156863" type="line"/>
      <point x="101.37254901960785" y="447.0980392156863" type="line"/>
      <point x="101.37254901960785" y="170.54901960784315" type="line" smooth="yes"/>
      <point x="101.37254901960785" y="26.549019607843135"/>
      <point x="137.11764705882354" y="-10.509803921568627"/>
    </contour>
  </outline>
</glyph>
<glyph name="u" format="2">
  <advance width="525.4313725490196"/>
  <unicode hex="0075"/>
  <outline>
    <contour>
      <point x="225.47058823529412" y="-9.764705882352942" type="curve" smooth="yes"/>
      <point x="301.03921568627453" y="-9.764705882352942"/>
      <point x="350.94117647058823" y="14.901960784313726"/>
      <point x="390.78431372549016" y="36.94117647058823" type="curve"/>
      <point x="390.78431372549016" y="0.0" type="line"/>
      <point x="450.7647058823529" y="0.0" type="line"/>
      <point x="450.7647058823529" y="500.0" type="line"/>
      <point x="390.52941176470586" y="500.0" type="line"/>
      <point x="390.52941176470586" y="86.50980392156862" type="line"/>
      <point x="359.3529411764706" y="68.07843137254902"/>
      <point x="304.45098039215685" y="44.666666666666664"/>
      <point x="239.64705882352942" y="44.666666666666664" type="curve" smooth="yes"/>
      <point x="144.33333333333331" y="44.666666666666664"/>
      <point x="129.90196078431373" y="94.58823529411765"/>
      <point x="129.90196078431373" y="240.47058823529412" type="curve" smooth="yes"/>
      <point x="129.90196078431373" y="500.0" type="line"/>
      <point x="69.66666666666667" y="500.0" type="line"/>
      <point x="69.66666666666667" y="239.49019607843138" type="line" smooth="yes"/>
      <point x="69.66666666666667" y="60.627450980392155"/>
      <point x="98.17647058823529" y="-9.764705882352942"/>
    </contour>
  </outline>
</glyph>
<glyph name="v" format="2">
  <advance width="477.1372549019608"/>
  <unicode hex="0076"/>
  <outline>
    <contour>
      <point x="173.0" y="0.0" type="line"/>
      <point x="304.1372549019608" y="0.0" type="line"/>
      <point x="450.21568627450984" y="500.0" type="line"/>
      <point x="387.98039215686276" y="500.0" type="line"/>
      <point x="258.52941176470586" y="52.90196078431372" type="line"/>
      <point x="218.60784313725492" y="52.90196078431372" type="line"/>
      <point x="93.15686274509804" y="500.0" type="line"/>
      <point x="26.92156862745098" y="500.0" type="line"/>
    </contour>
  </outline>
</glyph>
<glyph name="w" format="2">
  <advance width="760.0784313725491"/>
  <unicode hex="0077"/>
  <outline>
    <contour>
      <point x="157.7450980392157" y="0.0" type="line"/>
      <point x="261.94117647058823" y="0.0" type="line"/>
      <point x="380.03921568627453" y="411.80392156862746" type="line"/>
      <point x="498.1372549019608" y="0.0" type="line"/>
      <point x="602.3333333333334" y="0.0" type="line"/>
      <point x="727.1372549019608" y="500.0" type="line"/>
      <point x="665.9215686274509" y="500.0" type="line"/>
      <point x="555.7450980392157" y="52.90196078431372" type="line"/>
      <point x="541.4313725490196" y="52.90196078431372" type="line"/>
      <point x="411.78431372549016" y="490.0" type="line"/>
      <point x="348.29411764705884" y="490.0" type="line"/>
      <point x="218.64705882352942" y="52.90196078431372" type="line"/>
      <point x="204.33333333333334" y="52.90196078431372" type="line"/>
      <point x="94.15686274509804" y="500.0" type="line"/>
      <point x="32.94117647058823" y="500.0" type="line"/>
    </contour>
  </outline>
</glyph>
<glyph name="x" format="2">
  <advance width="446.4313725490196"/>
  <unicode hex="0078"/>
  <outline>
    <contour>
      <point x="24.431372549019606" y="0.0" type="line"/>
      <point x="91.43137254901961" y="0.0" type="line"/>
      <point x="222.84313725490196" y="205.15686274509804" type="line"/>
      <point x="354.5098039215686" y="0.0" type="line"/>
      <point x="421.5098039215686" y="0.0" type="line"/>
      <point x="259.3921568627451" y="251.27450980392157" type="line"/>
      <point x="422.2549019607843" y="500.0" type="line"/>
      <point x="355.2549019607843" y="500.0" type="line"/>
      <point x="222.84313725490196" y="294.3333333333333" type="line"/>
      <point x="91.43137254901961" y="500.0" type="line"/>
      <point x="24.431372549019606" y="500.0" type="line"/>
      <point x="185.27450980392157" y="250.2549019607843" type="line"/>
    </contour>
  </outline>
</glyph>
<glyph name="y" format="2">
  <advance width="478.3921568627451"/>
  <unicode hex="0079"/>
  <outline>
    <contour>
      <point x="175.76470588235293" y="-224.90196078431373" type="line"/>
      <point x="236.72549019607843" y="-224.90196078431373" type="line"/>
      <point x="452.21568627450984" y="500.0" type="line"/>
      <point x="391.0" y="500.0" type="line"/>
      <point x="257.52941176470586" y="52.90196078431372" type="line"/>
      <point x="221.11764705882354" y="52.90196078431372" type="line"/>
      <point x="88.3921568627451" y="500.0" type="line"/>
      <point x="27.176470588235293" y="500.0" type="line"/>
      <point x="174.01960784313727" y="0.0" type="line"/>
      <point x="243.4313725490196" y="0.0" type="line"/>
    </contour>
  </outline>
</glyph>
<glyph name="z" format="2">
  <advance width="454.7450980392157"/>
  <unicode hex="007A"/>
  <outline>
    <contour>
      <point x="41.745098039215684" y="0.0" type="line"/>
      <point x="412.7450980392157" y="0.0" type="line"/>
      <point x="412.7450980392157" y="54.43137254901961" type="line"/>
      <point x="116.31372549019608" y="54.43137254901961" type="line"/>
      <point x="412.7450980392157" y="445.5686274509804" type="line"/>
      <point x="412.7450980392157" y="500.0" type="line"/>
      <point x="41.745098039215684" y="500.0" type="line"/>
      <point x="41.745098039215684" y="445.5686274509804" type="line"/>
      <point x="338.921568627451" y="445.5686274509804" type="line"/>
      <point x="41.745098039215684" y="54.43137254901961" type="line"/>
    </contour>
  </outline>
</glyph>
<glyph name="braceleft" format="2">
  <advance width="349.8235294117647"/>
  <unicode hex="007B"/>
  <outline>
    <contour>
      <point x="307.3529411764706" y="-126.54901960784314" type="curve"/>
      <point x="308.843137254902" y="-73.64705882352942" type="line"/>
      <point x="208.35294117647058" y="-68.64705882352942"/>
      <point x="184.19607843137254" y="-22.254901960784316"/>
      <point x="184.19607843137254" y="53.509803921568626" type="curve" smooth="yes"/>
      <point x="184.19607843137254" y="75.72549019607843"/>
      <point x="186.19607843137254" y="99.47058823529412"/>
      <point x="188.19607843137254" y="122.9607843137255" type="curve"/>
      <point x="189.19607843137254" y="139.49019607843138"/>
      <point x="190.45098039215685" y="155.01960784313727"/>
      <point x="191.19607843137254" y="169.76470588235293" type="curve" smooth="yes"/>
      <point x="191.19607843137254" y="252.7450980392157"/>
      <point x="167.2549019607843" y="287.7647058823529"/>
      <point x="87.88235294117646" y="311.7647058823529" type="curve"/>
      <point x="167.2549019607843" y="335.7647058823529"/>
      <point x="190.94117647058823" y="367.2549019607843"/>
      <point x="190.94117647058823" y="453.2156862745098" type="curve" smooth="yes"/>
      <point x="190.94117647058823" y="467.2156862745098"/>
      <point x="188.94117647058823" y="488.72549019607845"/>
      <point x="187.94117647058823" y="510.2352941176471" type="curve"/>
      <point x="185.94117647058823" y="533.7450980392157"/>
      <point x="183.94117647058823" y="557.5098039215686"/>
      <point x="183.94117647058823" y="574.5098039215686" type="curve" smooth="yes"/>
      <point x="183.94117647058823" y="651.7647058823529"/>
      <point x="208.86274509803923" y="695.6470588235294"/>
      <point x="309.3529411764706" y="700.6470588235294" type="curve"/>
      <point x="307.8627450980392" y="753.5490196078431" type="line"/>
      <point x="174.76470588235293" y="748.5490196078431"/>
      <point x="124.72549019607843" y="698.6078431372549"/>
      <point x="124.72549019607843" y="577.0588235294117" type="curve" smooth="yes"/>
      <point x="124.72549019607843" y="557.0588235294117"/>
      <point x="126.72549019607843" y="530.0588235294117"/>
      <point x="128.72549019607843" y="505.05882352941177" type="curve" smooth="yes"/>
      <point x="129.72549019607843" y="483.05882352941177"/>
      <point x="131.72549019607843" y="462.3137254901961"/>
      <point x="131.72549019607843" y="449.3137254901961" type="curve" smooth="yes"/>
      <point x="131.72549019607843" y="389.156862745098"/>
      <point x="102.68627450980392" y="354.6862745098039"/>
      <point x="25.686274509803923" y="335.94117647058823" type="curve"/>
      <point x="25.686274509803923" y="285.5882352941176" type="line"/>
      <point x="101.68627450980392" y="264.0980392156863"/>
      <point x="131.72549019607843" y="231.078431372549"/>
      <point x="131.72549019607843" y="171.66666666666666" type="curve" smooth="yes"/>
      <point x="131.72549019607843" y="160.66666666666666"/>
      <point x="130.72549019607843" y="142.66666666666666"/>
      <point x="128.72549019607843" y="122.92156862745098" type="curve" smooth="yes"/>
      <point x="126.72549019607843" y="98.17647058823529"/>
      <point x="124.72549019607843" y="71.17647058823529"/>
      <point x="124.72549019607843" y="49.17647058823529" type="curve" smooth="yes"/>
      <point x="124.72549019607843" y="-69.82352941176471"/>
      <point x="174.2549019607843" y="-121.54901960784314"/>
    </contour>
  </outline>
</glyph>
<glyph name="bar" format="2">
  <advance width="221.05882352941177"/>
  <unicode hex="007C"/>
  <outline>
    <contour>
      <point x="80.41176470588235" y="-224.90196078431373" type="line"/>
      <point x="140.64705882352942" y="-224.90196078431373" type="line"/>
      <point x="140.64705882352942" y="722.3529411764706" type="line"/>
      <point x="80.41176470588235" y="722.3529411764706" type="line"/>
    </contour>
  </outline>
</glyph>
<glyph name="braceright" format="2">
  <advance width="349.8235294117647"/>
  <unicode hex="007D"/>
  <outline>
    <contour>
      <point x="42.470588235294116" y="-126.54901960784314" type="line"/>
      <point x="175.5686274509804" y="-121.54901960784314"/>
      <point x="225.09803921568627" y="-69.82352941176471"/>
      <point x="225.09803921568627" y="49.17647058823529" type="curve" smooth="yes"/>
      <point x="225.09803921568627" y="71.17647058823529"/>
      <point x="223.09803921568627" y="98.17647058823529"/>
      <point x="221.09803921568627" y="122.92156862745098" type="curve" smooth="yes"/>
      <point x="219.09803921568627" y="142.66666666666666"/>
      <point x="218.09803921568627" y="160.66666666666666"/>
      <point x="218.09803921568627" y="171.66666666666666" type="curve" smooth="yes"/>
      <point x="218.09803921568627" y="231.078431372549"/>
      <point x="248.13725490196077" y="264.0980392156863"/>
      <point x="324.1372549019608" y="285.5882352941176" type="curve"/>
      <point x="324.1372549019608" y="335.94117647058823" type="line"/>
      <point x="247.13725490196077" y="354.6862745098039"/>
      <point x="218.09803921568627" y="389.156862745098"/>
      <point x="218.09803921568627" y="449.3137254901961" type="curve" smooth="yes"/>
      <point x="218.09803921568627" y="462.3137254901961"/>
      <point x="220.09803921568627" y="483.05882352941177"/>
      <point x="221.09803921568627" y="505.05882352941177" type="curve" smooth="yes"/>
      <point x="223.09803921568627" y="530.0588235294117"/>
      <point x="225.09803921568627" y="557.0588235294117"/>
      <point x="225.09803921568627" y="577.0588235294117" type="curve" smooth="yes"/>
      <point x="225.09803921568627" y="698.6078431372549"/>
      <point x="175.05882352941177" y="748.5490196078431"/>
      <point x="41.96078431372549" y="753.5490196078431" type="curve"/>
      <point x="40.470588235294116" y="700.6470588235294" type="line"/>
      <point x="140.9607843137255" y="695.6470588235294"/>
      <point x="165.88235294117646" y="651.7647058823529"/>
      <point x="165.88235294117646" y="574.5098039215686" type="curve" smooth="yes"/>
      <point x="165.88235294117646" y="557.5098039215686"/>
      <point x="163.88235294117646" y="533.7450980392157"/>
      <point x="161.88235294117646" y="510.2352941176471" type="curve" smooth="yes"/>
      <point x="160.88235294117646" y="488.72549019607845"/>
      <point x="158.88235294117646" y="467.2156862745098"/>
      <point x="158.88235294117646" y="453.2156862745098" type="curve" smooth="yes"/>
      <point x="158.88235294117646" y="367.2549019607843"/>
      <point x="182.5686274509804" y="335.7647058823529"/>
      <point x="261.94117647058823" y="311.7647058823529" type="curve"/>
      <point x="182.5686274509804" y="287.7647058823529"/>
      <point x="158.62745098039215" y="252.7450980392157"/>
      <point x="158.62745098039215" y="169.76470588235293" type="curve" smooth="yes"/>
      <point x="159.37254901960785" y="155.01960784313727"/>
      <point x="160.62745098039215" y="139.49019607843138"/>
      <point x="161.62745098039215" y="122.9607843137255" type="curve" smooth="yes"/>
      <point x="163.62745098039215" y="99.47058823529412"/>
      <point x="165.62745098039215" y="75.72549019607843"/>
      <point x="165.62745098039215" y="53.509803921568626" type="curve" smooth="yes"/>
      <point x="165.62745098039215" y="-22.254901960784316"/>
      <point x="141.47058823529412" y="-68.64705882352942"/>
      <point x="40.98039215686275" y="-73.64705882352942" type="curve"/>
    </contour>
  </outline>
</glyph>
<glyph name="asciitilde" format="2">
  <advance width="560.0"/>
  <unicode hex="007E"/>
  <outline>
    <contour>
      <point x="381.7647058823529" y="201.29411764705884" type="curve" smooth="yes"/>
      <point x="420.54901960784315" y="201.29411764705884"/>
      <point x="468.03921568627453" y="231.7843137254902"/>
      <point x="494.01960784313724" y="255.27450980392157" type="curve"/>
      <point x="483.7843137254902" y="305.6470588235294" type="line"/>
      <point x="456.03921568627453" y="285.1764705882353"/>
      <point x="408.29411764705884" y="257.21568627450984"/>
      <point x="381.7843137254902" y="257.21568627450984" type="curve" smooth="yes"/>
      <point x="338.0" y="257.21568627450984"/>
      <point x="236.7450980392157" y="322.8235294117647"/>
      <point x="183.2549019607843" y="322.8235294117647" type="curve" smooth="yes"/>
      <point x="145.2156862745098" y="322.8235294117647"/>
      <point x="95.45098039215686" y="292.078431372549"/>
      <point x="68.45098039215686" y="269.3333333333333" type="curve"/>
      <point x="79.19607843137254" y="218.2156862745098" type="line"/>
      <point x="106.68627450980392" y="238.94117647058823"/>
      <point x="154.68627450980392" y="266.9019607843137"/>
      <point x="182.98039215686273" y="266.9019607843137" type="curve" smooth="yes"/>
      <point x="222.68627450980392" y="266.9019607843137"/>
      <point x="329.03921568627453" y="201.29411764705884"/>
    </contour>
  </outline>
</glyph>
<glyph name="exclamdown" format="2">
  <advance width="219.29411764705884"/>
  <unicode hex="00A1"/>
  <outline>
    <contour>
      <point x="137.35294117647058" y="276.8235294117647" type="line"/>
      <point x="81.19607843137254" y="276.8235294117647" type="line"/>
      <point x="77.62745098039215" y="-194.90196078431373" type="line"/>
      <point x="140.66666666666666" y="-194.90196078431373" type="line"/>
    </contour>
    <contour>
      <point x="142.15686274509804" y="500.0" type="line"/>
      <point x="75.64705882352942" y="500.0" type="line"/>
      <point x="75.64705882352942" y="399.3529411764706" type="line"/>
      <point x="142.15686274509804" y="399.3529411764706" type="line"/>
    </contour>
  </outline>
</glyph>
<glyph name="sterling" format="2">
  <advance width="560.0"/>
  <unicode hex="00A3"/>
  <outline>
    <contour>
      <point x="80.9607843137255" y="0.0" type="line"/>
      <point x="396.8627450980392" y="0.0" type="line"/>
      <point x="478.6078431372549" y="18.0" type="line"/>
      <point x="468.03921568627453" y="70.3921568627451" type="line"/>
      <point x="389.3529411764706" y="54.3921568627451" type="line"/>
      <point x="228.09803921568627" y="54.3921568627451" type="line"/>
      <point x="228.09803921568627" y="359.98039215686276" type="line"/>
      <point x="402.70588235294116" y="359.98039215686276" type="line"/>
      <point x="402.70588235294116" y="412.88235294117646" type="line"/>
      <point x="228.09803921568627" y="412.88235294117646" type="line"/>
      <point x="228.09803921568627" y="462.156862745098" type="line" smooth="yes"/>
      <point x="228.09803921568627" y="584.6470588235294"/>
      <point x="247.078431372549" y="615.0784313725491"/>
      <point x="317.3529411764706" y="615.0784313725491" type="curve" smooth="yes"/>
      <point x="346.96078431372547" y="615.0784313725491"/>
      <point x="405.19607843137254" y="608.5882352941177"/>
      <point x="440.156862745098" y="604.0980392156863" type="curve"/>
      <point x="441.1764705882353" y="654.4509803921569" type="line"/>
      <point x="406.4313725490196" y="660.7254901960785"/>
      <point x="347.6470588235294" y="669.5098039215686"/>
      <point x="312.7647058823529" y="669.5098039215686" type="curve" smooth="yes"/>
      <point x="210.23529411764707" y="669.5098039215686"/>
      <point x="168.37254901960785" y="632.7843137254902"/>
      <point x="168.37254901960785" y="466.6666666666667" type="curve" smooth="yes"/>
      <point x="168.37254901960785" y="412.88235294117646" type="line"/>
      <point x="100.64705882352942" y="412.88235294117646" type="line"/>
      <point x="100.64705882352942" y="359.98039215686276" type="line"/>
      <point x="168.37254901960785" y="359.98039215686276" type="line"/>
      <point x="168.37254901960785" y="54.3921568627451" type="line"/>
      <point x="80.9607843137255" y="54.3921568627451" type="line"/>
    </contour>
  </outline>
</glyph>
<glyph name="currency" format="2">
  <advance width="560.0"/>
  <unicode hex="00A4"/>
  <outline>
    <contour>
      <point x="280.0" y="75.11764705882354" type="curve" smooth="yes"/>
      <point x="377.5686274509804" y="75.37254901960785"/>
      <point x="456.88235294117646" y="154.4313725490196"/>
      <point x="456.88235294117646" y="252.0" type="curve" smooth="yes"/>
      <point x="456.88235294117646" y="349.5686274509804"/>
      <point x="377.5686274509804" y="428.88235294117646"/>
      <point x="280.0" y="428.88235294117646" type="curve" smooth="yes"/>
      <point x="182.4313725490196" y="428.88235294117646"/>
      <point x="103.11764705882354" y="349.5686274509804"/>
      <point x="103.11764705882354" y="252.0" type="curve" smooth="yes"/>
      <point x="103.11764705882354" y="154.4313725490196"/>
      <point x="182.4313725490196" y="75.37254901960785"/>
    </contour>
    <contour>
      <point x="107.84313725490196" y="37.01960784313726" type="line"/>
      <point x="205.66666666666666" y="135.58823529411765" type="line"/>
      <point x="163.58823529411765" y="177.66666666666666" type="line"/>
      <point x="65.01960784313727" y="79.84313725490196" type="line"/>
    </contour>
    <contour>
      <point x="280.0" y="130.23529411764707" type="curve" smooth="yes"/>
      <point x="213.62745098039215" y="130.23529411764707"/>
      <point x="158.23529411764707" y="185.62745098039215"/>
      <point x="158.23529411764707" y="252.0" type="curve" smooth="yes"/>
      <point x="158.23529411764707" y="318.37254901960785"/>
      <point x="213.62745098039215" y="373.7647058823529"/>
      <point x="280.0" y="373.7647058823529" type="curve" smooth="yes"/>
      <point x="346.37254901960785" y="373.7647058823529"/>
      <point x="401.7647058823529" y="318.37254901960785"/>
      <point x="401.7647058823529" y="252.0" type="curve" smooth="yes"/>
      <point x="401.7647058823529" y="185.62745098039215"/>
      <point x="346.37254901960785" y="130.23529411764707"/>
    </contour>
    <contour>
      <point x="163.58823529411765" y="326.3333333333333" type="line"/>
      <point x="205.66666666666666" y="368.4117647058824" type="line"/>
      <point x="107.84313725490196" y="466.98039215686276" type="line"/>
      <point x="65.01960784313727" y="424.156862745098" type="line"/>
    </contour>
    <contour>
      <point x="452.156862745098" y="37.01960784313726" type="line"/>
      <point x="494.98039215686276" y="79.84313725490196" type="line"/>
      <point x="396.4117647058824" y="177.66666666666666" type="line"/>
      <point x="354.3333333333333" y="135.58823529411765" type="line"/>
    </contour>
    <contour>
      <point x="396.4117647058824" y="326.3333333333333" type="line"/>
      <point x="494.98039215686276" y="424.156862745098" type="line"/>
      <point x="452.156862745098" y="466.98039215686276" type="line"/>
      <point x="354.3333333333333" y="368.4117647058824" type="line"/>
    </contour>
  </outline>
</glyph>
<glyph name="yen" format="2">
  <advance width="560.0"/>
  <unicode hex="00A5"/>
  <outline>
    <contour>
      <point x="250.2549019607843" y="0.0" type="line"/>
      <point x="312.2549019607843" y="0.0" type="line"/>
      <point x="312.2549019607843" y="169.76470588235293" type="line"/>
      <point x="502.7450980392157" y="169.76470588235293" type="line"/>
      <point x="502.7450980392157" y="223.64705882352942" type="line"/>
      <point x="312.2549019607843" y="223.64705882352942" type="line"/>
      <point x="312.2549019607843" y="301.3137254901961" type="line"/>
      <point x="321.94117647058823" y="320.80392156862746" type="line"/>
      <point x="502.0" y="320.80392156862746" type="line"/>
      <point x="502.0" y="374.6862745098039" type="line"/>
      <point x="354.1372549019608" y="374.6862745098039" type="line"/>
      <point x="532.9019607843137" y="660.0" type="line"/>
      <point x="462.6078431372549" y="660.0" type="line"/>
      <point x="281.0" y="375.98039215686276" type="line"/>
      <point x="96.90196078431373" y="660.0" type="line"/>
      <point x="27.352941176470587" y="660.0" type="line"/>
      <point x="208.11764705882354" y="374.6862745098039" type="line"/>
      <point x="57.254901960784316" y="374.6862745098039" type="line"/>
      <point x="57.254901960784316" y="320.80392156862746" type="line"/>
      <point x="240.5686274509804" y="320.80392156862746" type="line"/>
      <point x="250.2549019607843" y="301.3137254901961" type="line"/>
      <point x="250.2549019607843" y="223.64705882352942" type="line"/>
      <point x="58.0" y="223.64705882352942" type="line"/>
      <point x="58.0" y="169.76470588235293" type="line"/>
      <point x="250.2549019607843" y="169.76470588235293" type="line"/>
    </contour>
  </outline>
</glyph>
<glyph name="brokenbar" format="2">
  <advance width="225.05882352941177"/>
  <unicode hex="00A6"/>
  <outline>
    <contour>
      <point x="82.41176470588235" y="347.37254901960785" type="line"/>
      <point x="142.64705882352942" y="347.37254901960785" type="line"/>
      <point x="142.64705882352942" y="722.3529411764706" type="line"/>
      <point x="82.41176470588235" y="722.3529411764706" type="line"/>
    </contour>
    <contour>
      <point x="82.41176470588235" y="-224.90196078431373" type="line"/>
      <point x="142.64705882352942" y="-224.90196078431373" type="line"/>
      <point x="142.64705882352942" y="152.11764705882354" type="line"/>
      <point x="82.41176470588235" y="152.11764705882354" type="line"/>
    </contour>
  </outline>
</glyph>
<glyph name="section" format="2">
  <advance width="494.6470588235294"/>
  <unicode hex="00A7"/>
  <outline>
    <contour>
      <point x="245.2549019607843" y="-140.078431372549" type="curve" smooth="yes"/>
      <point x="366.45098039215685" y="-140.078431372549"/>
      <point x="429.47058823529414" y="-86.33333333333333"/>
      <point x="429.47058823529414" y="24.294117647058826" type="curve" smooth="yes"/>
      <point x="429.47058823529414" y="74.64705882352942"/>
      <point x="416.96078431372547" y="101.6078431372549"/>
      <point x="392.96078431372547" y="121.37254901960785" type="curve"/>
      <point x="412.7647058823529" y="151.68627450980392"/>
      <point x="434.7647058823529" y="204.94117647058823"/>
      <point x="434.7647058823529" y="251.4313725490196" type="curve" smooth="yes"/>
      <point x="434.7647058823529" y="350.1764705882353"/>
      <point x="378.3921568627451" y="375.1764705882353"/>
      <point x="272.3333333333333" y="394.2352941176471" type="curve" smooth="yes"/>
      <point x="173.58823529411765" y="411.52941176470586"/>
      <point x="127.3921568627451" y="425.2549019607843"/>
      <point x="127.3921568627451" y="502.45098039215685" type="curve" smooth="yes"/>
      <point x="127.3921568627451" y="570.5686274509803"/>
      <point x="169.72549019607843" y="600.9803921568628"/>
      <point x="256.1764705882353" y="600.9803921568628" type="curve" smooth="yes"/>
      <point x="291.1764705882353" y="600.9803921568628"/>
      <point x="365.19607843137254" y="593.4705882352941"/>
      <point x="411.96078431372547" y="587.2156862745098" type="curve"/>
      <point x="414.98039215686276" y="638.5882352941177" type="line" name="hr00"/>
      <point x="373.70588235294116" y="645.6078431372549"/>
      <point x="301.4117647058824" y="654.3921568627451"/>
      <point x="253.88235294117646" y="654.3921568627451" type="curve" smooth="yes"/>
      <point x="136.98039215686273" y="654.3921568627451"/>
      <point x="68.17647058823529" y="604.843137254902"/>
      <point x="68.17647058823529" y="501.19607843137254" type="curve" smooth="yes"/>
      <point x="68.17647058823529" y="442.19607843137254"/>
      <point x="83.17647058823529" y="410.47058823529414"/>
      <point x="112.17647058823529" y="388.72549019607845" type="curve"/>
      <point x="87.13725490196079" y="365.96078431372547"/>
      <point x="55.627450980392155" y="314.6470588235294"/>
      <point x="55.627450980392155" y="265.156862745098" type="curve" smooth="yes"/>
      <point x="55.627450980392155" y="167.15686274509804"/>
      <point x="114.0392156862745" y="137.15686274509804"/>
      <point x="226.52941176470588" y="118.09803921568627" type="curve" smooth="yes"/>
      <point x="324.6078431372549" y="101.27450980392157"/>
      <point x="370.7647058823529" y="92.7843137254902"/>
      <point x="370.7647058823529" y="21.0" type="curve" smooth="yes"/>
      <point x="370.7647058823529" y="-52.78431372549019"/>
      <point x="325.6078431372549" y="-87.41176470588235"/>
      <point x="242.7058823529412" y="-87.41176470588235" type="curve" smooth="yes"/>
      <point x="202.7058823529412" y="-87.41176470588235"/>
      <point x="124.9607843137255" y="-79.15686274509804"/>
      <point x="78.2156862745098" y="-73.15686274509804" type="curve"/>
      <point x="72.66666666666667" y="-124.52941176470588" type="line"/>
      <point x="119.68627450980392" y="-131.54901960784315"/>
      <point x="199.47058823529412" y="-140.078431372549"/>
    </contour>
    <contour>
      <point x="347.078431372549" y="145.27450980392157" type="curve"/>
      <point x="321.0980392156863" y="157.0"/>
      <point x="285.1372549019608" y="164.76470588235293"/>
      <point x="241.68627450980392" y="172.52941176470588" type="curve" smooth="yes"/>
      <point x="155.68627450980392" y="186.27450980392157"/>
      <point x="116.11764705882354" y="206.94117647058823"/>
      <point x="116.11764705882354" y="273.01960784313724" type="curve" smooth="yes"/>
      <point x="116.11764705882354" y="305.94117647058823"/>
      <point x="137.0392156862745" y="346.62745098039215"/>
      <point x="153.23529411764707" y="366.8235294117647" type="curve"/>
      <point x="175.62745098039215" y="356.62745098039215"/>
      <point x="210.86274509803923" y="350.11764705882354"/>
      <point x="250.54901960784315" y="343.11764705882354" type="curve" smooth="yes"/>
      <point x="329.96078431372547" y="329.0980392156863"/>
      <point x="374.01960784313724" y="314.6078431372549"/>
      <point x="374.01960784313724" y="244.35294117647058" type="curve" smooth="yes"/>
      <point x="374.01960784313724" y="207.68627450980392"/>
      <point x="359.3137254901961" y="164.98039215686273"/>
    </contour>
  </outline>
</glyph>
<glyph name="dieresis" format="2">
  <advance width="228.50980392156862"/>
  <unicode hex="00A8"/>
  <outline>
    <contour>
      <point x="188.98039215686273" y="627.2941176470588" type="line"/>
      <point x="247.68627450980392" y="627.2941176470588" type="line"/>
      <point x="247.68627450980392" y="707.1372549019608" type="line"/>
      <point x="188.98039215686273" y="707.1372549019608" type="line"/>
    </contour>
    <contour>
      <point x="-7.647058823529413" y="627.2941176470588" type="line"/>
      <point x="51.05882352941176" y="627.2941176470588" type="line"/>
      <point x="51.05882352941176" y="707.1372549019608" type="line"/>
      <point x="-7.647058823529413" y="707.1372549019608" type="line"/>
    </contour>
  </outline>
</glyph>
<glyph name="copyright" format="2">
  <advance width="645.9803921568628"/>
  <unicode hex="00A9"/>
  <outline>
    <contour>
      <point x="322.2352941176471" y="164.15686274509804" type="curve" smooth="yes"/>
      <point x="475.0980392156863" y="164.15686274509804"/>
      <point x="583.5882352941177" y="283.4313725490196"/>
      <point x="583.5882352941177" y="434.0" type="curve" smooth="yes"/>
      <point x="583.5882352941177" y="582.7843137254902"/>
      <point x="475.0980392156863" y="704.5882352941177"/>
      <point x="322.7450980392157" y="704.5882352941177" type="curve" smooth="yes"/>
      <point x="172.4313725490196" y="704.5882352941177"/>
      <point x="62.3921568627451" y="585.3333333333334"/>
      <point x="62.3921568627451" y="434.0" type="curve" smooth="yes"/>
      <point x="62.3921568627451" y="283.6862745098039"/>
      <point x="172.68627450980392" y="164.15686274509804"/>
    </contour>
    <contour>
      <point x="324.7843137254902" y="277.94117647058823" type="curve" smooth="yes"/>
      <point x="352.37254901960785" y="277.94117647058823"/>
      <point x="384.8627450980392" y="284.2156862745098"/>
      <point x="401.3333333333333" y="288.4901960784314" type="curve"/>
      <point x="398.80392156862746" y="333.2352941176471" type="line"/>
      <point x="380.8235294117647" y="330.4901960784314"/>
      <point x="348.0980392156863" y="326.0"/>
      <point x="327.3333333333333" y="326.0" type="curve" smooth="yes"/>
      <point x="273.27450980392155" y="326.0"/>
      <point x="261.03921568627453" y="364.3921568627451"/>
      <point x="261.03921568627453" y="434.52941176470586" type="curve" smooth="yes"/>
      <point x="261.03921568627453" y="504.3921568627451"/>
      <point x="268.54901960784315" y="541.7450980392157"/>
      <point x="327.3333333333333" y="541.7450980392157" type="curve" smooth="yes"/>
      <point x="350.3333333333333" y="541.7450980392157"/>
      <point x="381.5686274509804" y="538.0"/>
      <point x="398.80392156862746" y="535.0" type="curve"/>
      <point x="401.3333333333333" y="580.7647058823529" type="line"/>
      <point x="386.5882352941176" y="584.5294117647059"/>
      <point x="355.5882352941176" y="589.8039215686274"/>
      <point x="325.80392156862746" y="589.8039215686274" type="curve" smooth="yes"/>
      <point x="235.2941176470588" y="589.8039215686274"/>
      <point x="210.94117647058823" y="533.4313725490196"/>
      <point x="210.94117647058823" y="434.52941176470586" type="curve" smooth="yes"/>
      <point x="210.94117647058823" y="332.05882352941177"/>
      <point x="236.7843137254902" y="277.94117647058823"/>
    </contour>
    <contour>
      <point x="322.2352941176471" y="203.2941176470588" type="curve" smooth="yes"/>
      <point x="195.01960784313727" y="203.2941176470588"/>
      <point x="102.0392156862745" y="306.7843137254902"/>
      <point x="102.0392156862745" y="434.0" type="curve" smooth="yes"/>
      <point x="102.0392156862745" y="561.2156862745098"/>
      <point x="195.27450980392157" y="665.4509803921569"/>
      <point x="322.4901960784314" y="665.4509803921569" type="curve" smooth="yes"/>
      <point x="449.70588235294116" y="665.4509803921569"/>
      <point x="543.9411764705883" y="561.2156862745098"/>
      <point x="543.9411764705883" y="434.0" type="curve" smooth="yes"/>
      <point x="543.9411764705883" y="306.52941176470586"/>
      <point x="450.2156862745098" y="203.2941176470588"/>
    </contour>
  </outline>
</glyph>
<glyph name="ordfeminine" format="2">
  <advance width="378.7450980392157"/>
  <unicode hex="00AA"/>
  <outline>
    <contour>
      <point x="317.8235294117647" y="366.6470588235294" type="curve"/>
      <point x="322.80392156862746" y="409.156862745098" type="line"/>
      <point x="310.5882352941176" y="411.6470588235294"/>
      <point x="297.88235294117646" y="417.62745098039215"/>
      <point x="290.6470588235294" y="428.3333333333333" type="curve"/>
      <point x="290.6470588235294" y="564.1176470588235" type="line" smooth="yes"/>
      <point x="290.6470588235294" y="633.2352941176471"/>
      <point x="258.52941176470586" y="659.0"/>
      <point x="191.58823529411765" y="659.0" type="curve" smooth="yes"/>
      <point x="157.7058823529412" y="659.0"/>
      <point x="109.47058823529412" y="652.9803921568628"/>
      <point x="75.13725490196079" y="646.4117647058823" type="curve"/>
      <point x="78.88235294117646" y="604.9411764705883" type="line"/>
      <point x="111.19607843137254" y="607.9411764705883"/>
      <point x="162.7843137254902" y="612.4313725490196"/>
      <point x="188.27450980392157" y="612.686274509804" type="curve" smooth="yes"/>
      <point x="225.47058823529412" y="612.9411764705883"/>
      <point x="238.23529411764707" y="601.7254901960785"/>
      <point x="238.23529411764707" y="565.6470588235294" type="curve" smooth="yes"/>
      <point x="238.23529411764707" y="415.19607843137254" type="line" smooth="yes"/>
      <point x="249.41176470588235" y="383.078431372549"/>
      <point x="273.0980392156863" y="371.8627450980392"/>
    </contour>
    <contour>
      <point x="135.8235294117647" y="367.6470588235294" type="curve" smooth="yes"/>
      <point x="179.8235294117647" y="367.6470588235294"/>
      <point x="231.0" y="382.921568627451"/>
      <point x="261.27450980392155" y="399.29411764705884" type="curve"/>
      <point x="256.37254901960785" y="435.19607843137254" type="line"/>
      <point x="229.11764705882354" y="424.921568627451"/>
      <point x="182.19607843137254" y="412.4313725490196"/>
      <point x="146.27450980392157" y="412.4313725490196" type="curve" smooth="yes"/>
      <point x="123.0392156862745" y="412.4313725490196"/>
      <point x="109.31372549019608" y="428.1372549019608"/>
      <point x="109.31372549019608" y="456.05882352941177" type="curve" smooth="yes"/>
      <point x="109.31372549019608" y="484.2352941176471"/>
      <point x="120.31372549019608" y="495.47058823529414"/>
      <point x="151.7450980392157" y="497.47058823529414" type="curve" smooth="yes"/>
      <point x="251.19607843137254" y="504.21568627450984" type="line"/>
      <point x="249.70588235294116" y="544.156862745098" type="line"/>
      <point x="145.15686274509804" y="537.6666666666666" type="line" smooth="yes"/>
      <point x="85.49019607843137" y="533.6666666666666"/>
      <point x="56.90196078431373" y="507.37254901960785"/>
      <point x="56.90196078431373" y="454.78431372549016" type="curve" smooth="yes"/>
      <point x="56.90196078431373" y="401.96078431372547"/>
      <point x="88.45098039215686" y="367.6470588235294"/>
    </contour>
  </outline>
</glyph>
<glyph name="logicalnot" format="2">
  <advance width="560.0"/>
  <unicode hex="00AC"/>
  <outline>
    <contour>
      <point x="435.5882352941177" y="120.3921568627451" type="line"/>
      <point x="493.0" y="120.3921568627451" type="line"/>
      <point x="493.0" y="338.62745098039215" type="line"/>
      <point x="67.43137254901961" y="338.62745098039215" type="line"/>
      <point x="67.43137254901961" y="282.70588235294116" type="line"/>
      <point x="435.5882352941177" y="282.70588235294116" type="line"/>
    </contour>
  </outline>
</glyph>
<glyph name="softhyphen" format="2">
  <advance width="446.0"/>
  <unicode hex="00AD"/>
  <outline>
    <contour>
      <point x="70.90196078431373" y="248.9607843137255" type="line"/>
      <point x="375.0980392156863" y="248.9607843137255" type="line"/>
      <point x="375.0980392156863" y="305.3921568627451" type="line"/>
      <point x="70.90196078431373" y="305.3921568627451" type="line"/>
    </contour>
  </outline>
</glyph>
<glyph name="registered" format="2">
  <advance width="645.9803921568628"/>
  <unicode hex="00AE"/>
  <outline>
    <contour>
      <point x="322.4901960784314" y="164.15686274509804" type="curve" smooth="yes"/>
      <point x="475.0980392156863" y="164.15686274509804"/>
      <point x="583.5882352941177" y="283.4313725490196"/>
      <point x="583.5882352941177" y="434.0" type="curve" smooth="yes"/>
      <point x="583.5882352941177" y="582.7843137254902"/>
      <point x="475.0980392156863" y="704.5882352941177"/>
      <point x="322.4901960784314" y="704.5882352941177" type="curve" smooth="yes"/>
      <point x="172.4313725490196" y="704.5882352941177"/>
      <point x="62.3921568627451" y="585.3333333333334"/>
      <point x="62.3921568627451" y="434.0" type="curve" smooth="yes"/>
      <point x="62.3921568627451" y="283.6862745098039"/>
      <point x="172.68627450980392" y="164.15686274509804"/>
    </contour>
    <contour>
      <point x="322.4901960784314" y="203.2941176470588" type="curve" smooth="yes"/>
      <point x="196.0392156862745" y="203.2941176470588"/>
      <point x="102.0392156862745" y="306.7843137254902"/>
      <point x="102.0392156862745" y="434.0" type="curve" smooth="yes"/>
      <point x="102.0392156862745" y="561.2156862745098"/>
      <point x="195.52941176470588" y="665.4509803921569"/>
      <point x="322.4901960784314" y="665.4509803921569" type="curve" smooth="yes"/>
      <point x="449.70588235294116" y="665.4509803921569"/>
      <point x="543.9411764705883" y="561.2156862745098"/>
      <point x="543.9411764705883" y="434.0" type="curve" smooth="yes"/>
      <point x="543.9411764705883" y="306.52941176470586"/>
      <point x="450.2156862745098" y="203.2941176470588"/>
    </contour>
    <contour>
      <point x="215.90196078431373" y="283.45098039215685" type="line"/>
      <point x="264.21568627450984" y="283.45098039215685" type="line"/>
      <point x="264.21568627450984" y="393.5882352941176" type="line"/>
      <point x="330.47058823529414" y="393.5882352941176" type="line"/>
      <point x="386.78431372549016" y="283.45098039215685" type="line"/>
      <point x="438.3529411764706" y="283.45098039215685" type="line"/>
      <point x="379.47058823529414" y="400.156862745098" type="line"/>
      <point x="419.6470588235294" y="414.47058823529414"/>
      <point x="433.11764705882354" y="442.19607843137254"/>
      <point x="433.11764705882354" y="490.47058823529414" type="curve" smooth="yes"/>
      <point x="433.11764705882354" y="560.5098039215686"/>
      <point x="393.05882352941177" y="583.5490196078431"/>
      <point x="319.8627450980392" y="583.5490196078431" type="curve" smooth="yes"/>
      <point x="215.90196078431373" y="583.5490196078431" type="line"/>
    </contour>
    <contour>
      <point x="263.96078431372547" y="434.7843137254902" type="line"/>
      <point x="263.96078431372547" y="542.0980392156863" type="line"/>
      <point x="317.03921568627453" y="542.0980392156863" type="line" smooth="yes"/>
      <point x="363.3921568627451" y="542.0980392156863"/>
      <point x="385.5686274509804" y="528.3333333333334"/>
      <point x="385.5686274509804" y="488.6862745098039" type="curve" smooth="yes"/>
      <point x="385.5686274509804" y="449.29411764705884"/>
      <point x="369.0980392156863" y="434.7843137254902"/>
      <point x="330.70588235294116" y="434.7843137254902" type="curve" smooth="yes"/>
    </contour>
  </outline>
</glyph>
<glyph name="macron" format="2">
  <advance width="228.50980392156862"/>
  <unicode hex="00AF"/>
  <outline>
    <contour>
      <point x="-16.176470588235293" y="630.5294117647059" type="line"/>
      <point x="255.921568627451" y="630.5294117647059" type="line"/>
      <point x="255.921568627451" y="679.8627450980392" type="line"/>
      <point x="-16.176470588235293" y="679.8627450980392" type="line"/>
    </contour>
  </outline>
</glyph>
<glyph name="degree" format="2">
  <advance width="560.0"/>
  <unicode hex="00B0"/>
  <outline>
    <contour>
      <point x="280.0" y="426.52941176470586" type="curve" smooth="yes"/>
      <point x="363.03921568627453" y="426.52941176470586"/>
      <point x="419.5686274509804" y="482.05882352941177"/>
      <point x="419.5686274509804" y="565.0980392156863" type="curve" smooth="yes"/>
      <point x="419.5686274509804" y="648.1372549019608"/>
      <point x="363.03921568627453" y="704.6666666666666"/>
      <point x="280.0" y="704.6666666666666" type="curve" smooth="yes"/>
      <point x="196.9607843137255" y="704.6666666666666"/>
      <point x="140.4313725490196" y="648.1372549019608"/>
      <point x="140.4313725490196" y="565.0980392156863" type="curve" smooth="yes"/>
      <point x="140.4313725490196" y="482.05882352941177"/>
      <point x="196.9607843137255" y="426.52941176470586"/>
    </contour>
    <contour>
      <point x="280.0" y="468.98039215686276" type="curve" smooth="yes"/>
      <point x="222.33333333333334" y="468.98039215686276"/>
      <point x="184.88235294117646" y="507.4313725490196"/>
      <point x="184.88235294117646" y="565.0980392156863" type="curve" smooth="yes"/>
      <point x="184.88235294117646" y="622.7647058823529"/>
      <point x="222.33333333333334" y="662.2156862745098"/>
      <point x="280.0" y="662.2156862745098" type="curve" smooth="yes"/>
      <point x="337.6666666666667" y="662.2156862745098"/>
      <point x="377.11764705882354" y="622.7647058823529"/>
      <point x="377.11764705882354" y="565.0980392156863" type="curve" smooth="yes"/>
      <point x="377.11764705882354" y="507.4313725490196"/>
      <point x="337.6666666666667" y="468.98039215686276"/>
    </contour>
  </outline>
</glyph>
<glyph name="plusminus" format="2">
  <advance width="560.0"/>
  <unicode hex="00B1"/>
  <outline>
    <contour>
      <point x="250.29411764705884" y="165.52941176470588" type="line"/>
      <point x="307.70588235294116" y="165.52941176470588" type="line"/>
      <point x="307.70588235294116" y="298.3137254901961" type="line"/>
      <point x="503.29411764705884" y="298.3137254901961" type="line"/>
      <point x="503.29411764705884" y="354.2352941176471" type="line"/>
      <point x="307.70588235294116" y="354.2352941176471" type="line"/>
      <point x="307.70588235294116" y="484.5882352941176" type="line"/>
      <point x="250.29411764705884" y="484.5882352941176" type="line"/>
      <point x="250.29411764705884" y="354.2352941176471" type="line"/>
      <point x="56.705882352941174" y="354.2352941176471" type="line"/>
      <point x="56.705882352941174" y="298.3137254901961" type="line"/>
      <point x="250.29411764705884" y="298.3137254901961" type="line"/>
    </contour>
    <contour>
      <point x="56.705882352941174" y="42.09803921568627" type="line"/>
      <point x="503.29411764705884" y="42.09803921568627" type="line"/>
      <point x="503.29411764705884" y="98.01960784313725" type="line"/>
      <point x="56.705882352941174" y="98.01960784313725" type="line"/>
    </contour>
  </outline>
</glyph>
<glyph name="twosuperior" format="2">
  <advance width="280.0"/>
  <unicode hex="00B2"/>
  <outline>
    <contour>
      <point x="32.17647058823529" y="478.0" type="line"/>
      <point x="235.60784313725492" y="478.0" type="line"/>
      <point x="235.60784313725492" y="526.8039215686274" type="line"/>
      <point x="99.13725490196077" y="526.8039215686274" type="line"/>
      <point x="168.4313725490196" y="595.7843137254902" type="line" smooth="yes"/>
      <point x="211.41176470588235" y="636.7058823529412"/>
      <point x="230.39215686274508" y="664.1960784313726"/>
      <point x="230.39215686274508" y="710.686274509804" type="curve" smooth="yes"/>
      <point x="230.39215686274508" y="771.2549019607843"/>
      <point x="200.15686274509804" y="799.5098039215686"/>
      <point x="134.2941176470588" y="799.5098039215686" type="curve" smooth="yes"/>
      <point x="102.7843137254902" y="799.5098039215686"/>
      <point x="59.21568627450981" y="793.0196078431372"/>
      <point x="34.92156862745098" y="787.5294117647059" type="curve"/>
      <point x="37.431372549019606" y="740.686274509804" type="line"/>
      <point x="61.17647058823529" y="744.4313725490196"/>
      <point x="101.15686274509804" y="749.6666666666666"/>
      <point x="123.86274509803921" y="749.6666666666666" type="curve" smooth="yes"/>
      <point x="154.078431372549" y="749.6666666666666"/>
      <point x="175.76470588235293" y="736.9803921568628"/>
      <point x="175.76470588235293" y="707.0980392156863" type="curve" smooth="yes"/>
      <point x="175.76470588235293" y="673.4705882352941"/>
      <point x="154.078431372549" y="648.7843137254902"/>
      <point x="123.80392156862746" y="618.8039215686274" type="curve" smooth="yes"/>
      <point x="32.17647058823529" y="524.0392156862745" type="line"/>
    </contour>
  </outline>
</glyph>
<glyph name="threesuperior" format="2">
  <advance width="280.0"/>
  <unicode hex="00B3"/>
  <outline>
    <contour>
      <point x="139.98039215686273" y="468.4901960784314" type="curve" smooth="yes"/>
      <point x="211.7843137254902" y="468.4901960784314"/>
      <point x="246.33333333333334" y="499.2549019607843"/>
      <point x="246.33333333333334" y="567.5294117647059" type="curve" smooth="yes"/>
      <point x="246.33333333333334" y="616.9607843137255"/>
      <point x="228.37254901960785" y="632.7450980392157"/>
      <point x="196.4313725490196" y="642.7450980392157" type="curve"/>
      <point x="217.66666666666666" y="651.5098039215686"/>
      <point x="238.09803921568627" y="675.7647058823529"/>
      <point x="238.09803921568627" y="718.9411764705883" type="curve" smooth="yes"/>
      <point x="238.09803921568627" y="774.7450980392157"/>
      <point x="205.2941176470588" y="799.5098039215686"/>
      <point x="135.2156862745098" y="799.5098039215686" type="curve" smooth="yes"/>
      <point x="105.72549019607843" y="799.5098039215686"/>
      <point x="64.19607843137254" y="795.0196078431372"/>
      <point x="36.66666666666667" y="791.2745098039215" type="curve"/>
      <point x="40.431372549019606" y="742.7254901960785" type="line"/>
      <point x="61.92156862745098" y="746.2156862745098"/>
      <point x="103.15686274509804" y="750.7058823529412"/>
      <point x="128.62745098039215" y="750.7058823529412" type="curve" smooth="yes"/>
      <point x="166.76470588235293" y="750.7058823529412"/>
      <point x="183.47058823529412" y="740.2549019607843"/>
      <point x="183.47058823529412" y="714.0980392156863" type="curve" smooth="yes"/>
      <point x="183.47058823529412" y="682.4901960784314"/>
      <point x="160.078431372549" y="661.3529411764706"/>
      <point x="140.37254901960785" y="661.3529411764706" type="curve" smooth="yes"/>
      <point x="75.62745098039215" y="661.3529411764706" type="line"/>
      <point x="75.62745098039215" y="615.0980392156863" type="line"/>
      <point x="140.88235294117646" y="615.0980392156863" type="line" smooth="yes"/>
      <point x="170.80392156862746" y="615.0980392156863"/>
      <point x="192.2156862745098" y="602.6666666666666"/>
      <point x="192.2156862745098" y="566.0784313725491" type="curve" smooth="yes"/>
      <point x="192.2156862745098" y="532.4705882352941"/>
      <point x="173.7843137254902" y="517.2941176470588"/>
      <point x="131.15686274509804" y="517.2941176470588" type="curve" smooth="yes"/>
      <point x="107.43137254901961" y="517.2941176470588"/>
      <point x="60.19607843137255" y="521.7843137254902"/>
      <point x="36.431372549019606" y="525.5294117647059" type="curve"/>
      <point x="32.66666666666667" y="478.72549019607845" type="line"/>
      <point x="59.19607843137255" y="474.2352941176471"/>
      <point x="108.23529411764706" y="468.4901960784314"/>
    </contour>
  </outline>
</glyph>
<glyph name="acute" format="2">
  <advance width="268.0"/>
  <unicode hex="00B4"/>
  <outline>
    <contour>
      <point x="238.37254901960785" y="737.3529411764706" type="line"/>
      <point x="31.07843137254902" y="639.8235294117648" type="line"/>
      <point x="49.90196078431373" y="597.5294117647059" type="line"/>
      <point x="260.4901960784314" y="684.9411764705883" type="line"/>
    </contour>
  </outline>
</glyph>
<glyph name="cedilla" format="2">
  <advance width="263.2549019607843"/>
  <unicode hex="00B8"/>
  <outline>
    <contour>
      <point x="128.9607843137255" y="-211.19607843137254" type="curve" smooth="yes"/>
      <point x="182.05882352941177" y="-211.19607843137254"/>
      <point x="218.35294117647058" y="-186.37254901960785"/>
      <point x="218.35294117647058" y="-127.0" type="curve" smooth="yes" name="hr00"/>
      <point x="218.35294117647058" y="-66.15686274509804"/>
      <point x="182.2941176470588" y="-52.15686274509804"/>
      <point x="109.50980392156863" y="-51.90196078431373" type="curve"/>
      <point x="109.50980392156863" y="1.0" type="line"/>
      <point x="71.41176470588235" y="1.0" type="line"/>
      <point x="71.41176470588235" y="-90.09803921568627" type="line"/>
      <point x="117.76470588235294" y="-90.09803921568627" type="line" smooth="yes"/>
      <point x="146.2549019607843" y="-90.09803921568627"/>
      <point x="163.2156862745098" y="-99.56862745098039"/>
      <point x="163.2156862745098" y="-127.0" type="curve" smooth="yes"/>
      <point x="163.2156862745098" y="-157.41176470588235"/>
      <point x="146.2549019607843" y="-167.90196078431373"/>
      <point x="117.76470588235294" y="-167.90196078431373" type="curve" smooth="yes"/>
      <point x="97.86274509803921" y="-167.90196078431373"/>
      <point x="62.07843137254902" y="-166.15686274509804"/>
      <point x="47.411764705882355" y="-164.66666666666666" type="curve"/>
      <point x="44.90196078431373" y="-205.41176470588235" type="line"/>
      <point x="62.431372549019606" y="-208.1764705882353"/>
      <point x="97.2156862745098" y="-211.19607843137254"/>
    </contour>
  </outline>
</glyph>
<glyph name="onesuperior" format="2">
  <advance width="280.0"/>
  <unicode hex="00B9"/>
  <outline>
    <contour>
      <point x="135.05882352941177" y="478.0" type="line"/>
      <point x="188.15686274509804" y="478.0" type="line"/>
      <point x="188.15686274509804" y="790.0" type="line"/>
      <point x="137.60784313725492" y="790.0" type="line"/>
      <point x="36.82352941176471" y="720.9607843137255" type="line"/>
      <point x="61.98039215686275" y="681.2352941176471" type="line"/>
      <point x="135.05882352941177" y="731.1176470588235" type="line"/>
    </contour>
  </outline>
</glyph>
<glyph name="ordmasculine" format="2">
  <advance width="370.078431372549"/>
  <unicode hex="00BA"/>
  <outline>
    <contour>
      <point x="185.66666666666666" y="367.6470588235294" type="curve" smooth="yes"/>
      <point x="270.5882352941176" y="367.6470588235294"/>
      <point x="312.94117647058823" y="414.70588235294116"/>
      <point x="312.94117647058823" y="515.0784313725491" type="curve" smooth="yes"/>
      <point x="312.94117647058823" y="615.1960784313726"/>
      <point x="270.5882352941176" y="659.0"/>
      <point x="185.66666666666666" y="659.0" type="curve" smooth="yes"/>
      <point x="100.49019607843137" y="659.0"/>
      <point x="56.3921568627451" y="615.1960784313726"/>
      <point x="56.3921568627451" y="515.0784313725491" type="curve" smooth="yes"/>
      <point x="56.3921568627451" y="414.70588235294116"/>
      <point x="100.49019607843137" y="367.6470588235294"/>
    </contour>
    <contour>
      <point x="185.66666666666666" y="418.2549019607843" type="curve" smooth="yes"/>
      <point x="133.0" y="418.2549019607843"/>
      <point x="112.31372549019608" y="446.47058823529414"/>
      <point x="112.31372549019608" y="514.8235294117648" type="curve" smooth="yes"/>
      <point x="112.31372549019608" y="583.1764705882352"/>
      <point x="133.0" y="608.6470588235294"/>
      <point x="185.66666666666666" y="608.6470588235294" type="curve" smooth="yes"/>
      <point x="238.33333333333334" y="608.6470588235294"/>
      <point x="256.7647058823529" y="583.1764705882352"/>
      <point x="256.7647058823529" y="514.8235294117648" type="curve" smooth="yes"/>
      <point x="256.7647058823529" y="446.47058823529414"/>
      <point x="238.33333333333334" y="418.2549019607843"/>
    </contour>
  </outline>
</glyph>
<glyph name="guillemotright" format="2">
  <advance width="524.0196078431372"/>
  <unicode hex="00BB"/>
  <outline>
    <contour>
      <point x="477.54901960784315" y="223.80392156862746" type="line"/>
      <point x="477.54901960784315" y="275.0980392156863" type="line"/>
      <point x="296.27450980392155" y="413.01960784313724" type="line"/>
      <point x="296.27450980392155" y="349.54901960784315" type="line"/>
      <point x="424.6470588235294" y="251.45098039215685" type="line"/>
      <point x="296.27450980392155" y="142.35294117647058" type="line"/>
      <point x="296.27450980392155" y="77.3921568627451" type="line"/>
    </contour>
    <contour>
      <point x="251.1764705882353" y="223.80392156862746" type="line"/>
      <point x="251.1764705882353" y="275.0980392156863" type="line"/>
      <point x="69.90196078431373" y="413.01960784313724" type="line"/>
      <point x="69.90196078431373" y="349.54901960784315" type="line"/>
      <point x="198.27450980392157" y="251.45098039215685" type="line"/>
      <point x="69.90196078431373" y="142.35294117647058" type="line"/>
      <point x="69.90196078431373" y="77.3921568627451" type="line"/>
    </contour>
  </outline>
</glyph>
<glyph name="questiondown" format="2">
  <advance width="443.4313725490196"/>
  <unicode hex="00BF"/>
  <outline>
    <contour>
      <point x="280.3333333333333" y="303.8627450980392" type="curve"/>
      <point x="227.72549019607843" y="303.8627450980392" type="line"/>
      <point x="227.72549019607843" y="267.6470588235294" type="line" smooth="yes"/>
      <point x="227.72549019607843" y="218.7843137254902"/>
      <point x="191.68627450980392" y="184.13725490196077"/>
      <point x="135.58823529411765" y="136.84313725490196" type="curve" smooth="yes"/>
      <point x="55.411764705882355" y="68.45098039215686"/>
      <point x="39.431372549019606" y="39.90196078431373"/>
      <point x="39.431372549019606" y="-44.3921568627451" type="curve" smooth="yes"/>
      <point x="39.431372549019606" y="-160.88235294117646"/>
      <point x="109.37254901960785" y="-203.921568627451"/>
      <point x="240.7058823529412" y="-203.921568627451" type="curve" smooth="yes"/>
      <point x="285.3137254901961" y="-203.921568627451"/>
      <point x="362.52941176470586" y="-187.64705882352942"/>
      <point x="407.72549019607845" y="-174.88235294117646" type="curve"/>
      <point x="402.2156862745098" y="-123.80392156862746" type="line"/>
      <point x="357.29411764705884" y="-134.52941176470588"/>
      <point x="284.11764705882354" y="-148.7450980392157"/>
      <point x="245.54901960784315" y="-148.7450980392157" type="curve" smooth="yes"/>
      <point x="149.49019607843138" y="-148.7450980392157"/>
      <point x="100.94117647058823" y="-120.76470588235294"/>
      <point x="100.94117647058823" y="-40.568627450980394" type="curve" smooth="yes"/>
      <point x="100.94117647058823" y="20.274509803921568"/>
      <point x="119.13725490196077" y="44.21568627450981"/>
      <point x="190.90196078431373" y="106.94117647058823" type="curve" smooth="yes"/>
      <point x="243.15686274509804" y="152.921568627451"/>
      <point x="288.98039215686276" y="195.05882352941177"/>
      <point x="288.98039215686276" y="250.11764705882354" type="curve" smooth="yes"/>
      <point x="288.98039215686276" y="271.2549019607843"/>
      <point x="283.6470588235294" y="289.6078431372549"/>
    </contour>
    <contour>
      <point x="288.1764705882353" y="500.0" type="line"/>
      <point x="221.66666666666669" y="500.0" type="line"/>
      <point x="221.66666666666669" y="399.3529411764706" type="line"/>
      <point x="288.1764705882353" y="399.3529411764706" type="line"/>
    </contour>
  </outline>
</glyph>
<glyph name="AE" format="2">
  <advance width="876.9607843137255"/>
  <unicode hex="00C6"/>
  <outline>
    <contour>
      <point x="21.686274509803923" y="0.0" type="line"/>
      <point x="86.66666666666666" y="0.0" type="line"/>
      <point x="152.1764705882353" y="189.76470588235293" type="line"/>
      <point x="412.11764705882354" y="189.76470588235293" type="line"/>
      <point x="412.11764705882354" y="0.0" type="line"/>
      <point x="828.5098039215686" y="0.0" type="line"/>
      <point x="828.5098039215686" y="58.98039215686275" type="line"/>
      <point x="473.6078431372549" y="58.98039215686275" type="line"/>
      <point x="473.6078431372549" y="328.70588235294116" type="line"/>
      <point x="768.5098039215686" y="328.70588235294116" type="line"/>
      <point x="768.5098039215686" y="387.4313725490196" type="line"/>
      <point x="473.6078431372549" y="387.4313725490196" type="line"/>
      <point x="473.6078431372549" y="638.4705882352941" type="line"/>
      <point x="828.5098039215686" y="638.4705882352941" type="line"/>
      <point x="828.5098039215686" y="697.4509803921569" type="line"/>
      <point x="255.60784313725492" y="697.4509803921569" type="line"/>
    </contour>
    <contour>
      <point x="169.7843137254902" y="249.0" type="line"/>
      <point x="301.19607843137254" y="638.4705882352941" type="line"/>
      <point x="412.37254901960785" y="638.4705882352941" type="line"/>
      <point x="412.11764705882354" y="249.0" type="line"/>
    </contour>
  </outline>
</glyph>
<glyph name="multiply" format="2">
  <advance width="560.0"/>
  <unicode hex="00D7"/>
  <outline>
    <contour>
      <point x="445.8235294117647" y="45.372549019607845" type="line"/>
      <point x="485.37254901960785" y="84.92156862745098" type="line"/>
      <point x="317.78431372549016" y="250.7450980392157" type="line"/>
      <point x="485.37254901960785" y="416.8235294117647" type="line"/>
      <point x="446.078431372549" y="456.37254901960785" type="line"/>
      <point x="280.0" y="288.78431372549016" type="line"/>
      <point x="114.43137254901961" y="455.8627450980392" type="line"/>
      <point x="74.88235294117646" y="416.3137254901961" type="line"/>
      <point x="241.9607843137255" y="250.7450980392157" type="line"/>
      <point x="74.62745098039215" y="84.92156862745098" type="line"/>
      <point x="114.17647058823529" y="45.627450980392155" type="line"/>
      <point x="280.0" y="212.70588235294116" type="line"/>
    </contour>
  </outline>
</glyph>
<glyph name="Oslash" format="2">
  <advance width="662.4313725490196"/>
  <unicode hex="00D8"/>
  <outline>
    <contour>
      <point x="101.56862745098039" y="-92.90196078431373" type="line"/>
      <point x="148.90196078431373" y="-113.58823529411765" type="line"/>
      <point x="565.6470588235294" y="776.686274509804" type="line"/>
      <point x="517.8039215686274" y="796.5882352941177" type="line"/>
    </contour>
    <component base="O"/>
  </outline>
</glyph>
<glyph name="Thorn" format="2">
  <advance width="599.7254901960785"/>
  <unicode hex="00DE"/>
  <outline>
    <contour>
      <point x="87.41176470588235" y="0.0" type="line"/>
      <point x="149.41176470588235" y="0.0" type="line"/>
      <point x="149.41176470588235" y="125.82352941176471" type="line"/>
      <point x="341.1372549019608" y="125.82352941176471" type="line" smooth="yes"/>
      <point x="489.96078431372547" y="125.82352941176471"/>
      <point x="557.5686274509804" y="214.60784313725492"/>
      <point x="557.5686274509804" y="363.4313725490196" type="curve" smooth="yes"/>
      <point x="557.5686274509804" y="512.2549019607843"/>
      <point x="489.96078431372547" y="581.5686274509804"/>
      <point x="341.1372549019608" y="581.5686274509804" type="curve" smooth="yes"/>
      <point x="149.41176470588235" y="581.5686274509804" type="line"/>
      <point x="149.41176470588235" y="697.4509803921569" type="line"/>
      <point x="87.41176470588235" y="697.4509803921569" type="line"/>
    </contour>
    <contour>
      <point x="149.41176470588235" y="185.31372549019608" type="line"/>
      <point x="149.41176470588235" y="522.5882352941177" type="line"/>
      <point x="340.88235294117646" y="522.5882352941177" type="line" smooth="yes"/>
      <point x="448.62745098039215" y="522.5882352941177"/>
      <point x="493.5686274509804" y="472.45098039215685"/>
      <point x="493.5686274509804" y="363.4313725490196" type="curve" smooth="yes"/>
      <point x="493.5686274509804" y="254.15686274509804"/>
      <point x="448.62745098039215" y="185.31372549019608"/>
      <point x="340.88235294117646" y="185.31372549019608" type="curve" smooth="yes"/>
    </contour>
  </outline>
</glyph>
<glyph name="germandbls" format="2">
  <advance width="564.8039215686274"/>
  <unicode hex="00DF"/>
  <outline>
    <contour>
      <point x="326.3921568627451" y="-9.764705882352942" type="curve" smooth="yes"/>
      <point x="472.1372549019608" y="-9.764705882352942"/>
      <point x="526.9019607843137" y="44.88235294117647"/>
      <point x="526.9019607843137" y="180.39215686274508" type="curve" smooth="yes"/>
      <point x="526.9019607843137" y="262.88235294117646"/>
      <point x="491.6470588235294" y="294.6078431372549"/>
      <point x="395.45098039215685" y="343.05882352941177" type="curve" smooth="yes"/>
      <point x="326.0980392156863" y="377.5882352941176"/>
      <point x="308.9019607843137" y="390.3137254901961"/>
      <point x="308.9019607843137" y="411.54901960784315" type="curve" smooth="yes"/>
      <point x="308.9019607843137" y="432.27450980392155"/>
      <point x="321.62745098039215" y="440.27450980392155"/>
      <point x="368.6470588235294" y="461.52941176470586" type="curve" smooth="yes"/>
      <point x="423.6862745098039" y="486.29411764705884"/>
      <point x="447.0" y="519.7254901960785"/>
      <point x="447.0" y="590.7647058823529" type="curve" smooth="yes"/>
      <point x="447.0" y="689.8627450980392"/>
      <point x="396.05882352941177" y="732.1176470588235"/>
      <point x="261.70588235294116" y="732.1176470588235" type="curve" smooth="yes"/>
      <point x="129.7450980392157" y="732.1176470588235"/>
      <point x="74.66666666666667" y="688.0588235294117"/>
      <point x="74.66666666666667" y="551.0588235294117" type="curve" smooth="yes"/>
      <point x="74.66666666666667" y="0.0" type="line"/>
      <point x="134.90196078431373" y="0.0" type="line"/>
      <point x="134.90196078431373" y="540.6078431372549" type="line" smooth="yes"/>
      <point x="134.90196078431373" y="651.4705882352941"/>
      <point x="171.54901960784315" y="676.7058823529412"/>
      <point x="261.70588235294116" y="676.7058823529412" type="curve" smooth="yes"/>
      <point x="354.05882352941177" y="676.7058823529412"/>
      <point x="383.5098039215686" y="653.0196078431372"/>
      <point x="383.5098039215686" y="588.2156862745098" type="curve" smooth="yes"/>
      <point x="383.5098039215686" y="542.1372549019608"/>
      <point x="371.5098039215686" y="517.9803921568628"/>
      <point x="323.156862745098" y="496.45098039215685" type="curve" smooth="yes"/>
      <point x="273.62745098039215" y="474.45098039215685"/>
      <point x="246.15686274509804" y="454.6078431372549"/>
      <point x="246.15686274509804" y="408.2352941176471" type="curve" smooth="yes"/>
      <point x="246.15686274509804" y="360.078431372549"/>
      <point x="269.47058823529414" y="338.21568627450984"/>
      <point x="350.05882352941177" y="298.9607843137255" type="curve" smooth="yes"/>
      <point x="439.5098039215686" y="255.01960784313724"/>
      <point x="463.4117647058824" y="233.60784313725492"/>
      <point x="463.4117647058824" y="171.5686274509804" type="curve" smooth="yes"/>
      <point x="463.4117647058824" y="88.72549019607843"/>
      <point x="431.27450980392155" y="45.64705882352941"/>
      <point x="322.3137254901961" y="45.64705882352941" type="curve" smooth="yes"/>
      <point x="296.05882352941177" y="45.64705882352941"/>
      <point x="239.2549019607843" y="51.15686274509804"/>
      <point x="203.9607843137255" y="55.41176470588235" type="curve"/>
      <point x="201.45098039215685" y="3.549019607843137" type="line"/>
      <point x="234.98039215686273" y="-1.9803921568627452"/>
      <point x="292.54901960784315" y="-9.764705882352942"/>
    </contour>
  </outline>
</glyph>
<glyph name="ae" format="2">
  <advance width="809.3333333333334"/>
  <unicode hex="00E6"/>
  <outline>
    <contour>
      <point x="175.76470588235293" y="-9.764705882352942" type="curve" smooth="yes"/>
      <point x="261.72549019607845" y="-9.764705882352942"/>
      <point x="330.1372549019608" y="11.980392156862745"/>
      <point x="407.01960784313724" y="45.68627450980392" type="curve"/>
      <point x="436.80392156862746" y="10.450980392156863"/>
      <point x="483.8235294117647" y="-9.764705882352942"/>
      <point x="552.5686274509804" y="-9.764705882352942" type="curve" smooth="yes"/>
      <point x="609.3921568627451" y="-9.764705882352942"/>
      <point x="695.1764705882352" y="-1.9607843137254903"/>
      <point x="743.4313725490196" y="4.078431372549019" type="curve"/>
      <point x="741.4313725490196" y="54.43137254901961" type="line"/>
      <point x="694.4509803921569" y="50.43137254901961"/>
      <point x="611.9607843137255" y="45.43137254901961"/>
      <point x="558.6666666666666" y="45.43137254901961" type="curve" smooth="yes" name="hr00"/>
      <point x="453.88235294117646" y="45.43137254901961"/>
      <point x="419.921568627451" y="107.43137254901961"/>
      <point x="419.6666666666667" y="224.7843137254902" type="curve"/>
      <point x="759.1176470588235" y="224.7843137254902" type="line"/>
      <point x="761.6666666666666" y="273.3333333333333" type="line"/>
      <point x="761.6666666666666" y="440.72549019607845"/>
      <point x="693.6470588235294" y="509.5098039215686"/>
      <point x="564.5294117647059" y="509.5098039215686" type="curve" smooth="yes"/>
      <point x="495.62745098039215" y="509.5098039215686"/>
      <point x="437.96078431372547" y="487.5686274509804"/>
      <point x="402.47058823529414" y="428.54901960784315" type="curve"/>
      <point x="382.9019607843137" y="482.8627450980392"/>
      <point x="338.156862745098" y="509.5098039215686"/>
      <point x="266.01960784313724" y="509.5098039215686" type="curve" smooth="yes"/>
      <point x="209.2941176470588" y="509.5098039215686"/>
      <point x="121.49019607843137" y="501.72549019607845"/>
      <point x="71.94117647058823" y="496.45098039215685" type="curve"/>
      <point x="74.45098039215686" y="442.03921568627453" type="line"/>
      <point x="124.2156862745098" y="446.29411764705884"/>
      <point x="209.98039215686273" y="451.54901960784315"/>
      <point x="263.98039215686276" y="451.54901960784315" type="curve" smooth="yes"/>
      <point x="325.01960784313724" y="451.54901960784315"/>
      <point x="359.4313725490196" y="421.62745098039215"/>
      <point x="359.4313725490196" y="349.1764705882353" type="curve" smooth="yes"/>
      <point x="359.4313725490196" y="304.05882352941177" type="line"/>
      <point x="225.35294117647058" y="291.0980392156863" type="line" smooth="yes"/>
      <point x="98.72549019607843" y="276.9019607843137"/>
      <point x="43.15686274509804" y="252.8235294117647"/>
      <point x="43.15686274509804" y="140.8235294117647" type="curve" smooth="yes"/>
      <point x="43.15686274509804" y="42.31372549019608"/>
      <point x="89.43137254901961" y="-9.764705882352942"/>
    </contour>
    <contour>
      <point x="183.39215686274508" y="43.3921568627451" type="curve" smooth="yes"/>
      <point x="134.52941176470588" y="43.3921568627451"/>
      <point x="105.13725490196077" y="77.7843137254902"/>
      <point x="105.13725490196077" y="141.84313725490196" type="curve" smooth="yes"/>
      <point x="105.13725490196077" y="204.66666666666666"/>
      <point x="133.58823529411765" y="233.31372549019608"/>
      <point x="197.64705882352942" y="239.0392156862745" type="curve" smooth="yes"/>
      <point x="357.6862745098039" y="253.47058823529412" type="line"/>
      <point x="357.6862745098039" y="189.8235294117647"/>
      <point x="362.4117647058824" y="125.07843137254902"/>
      <point x="380.29411764705884" y="85.2156862745098" type="curve"/>
      <point x="360.4901960784314" y="78.47058823529412"/>
      <point x="260.3333333333333" y="43.3921568627451"/>
    </contour>
    <contour>
      <point x="419.6666666666667" y="274.88235294117646" type="line"/>
      <point x="419.6666666666667" y="404.21568627450984"/>
      <point x="473.45098039215685" y="455.3333333333333"/>
      <point x="564.5294117647059" y="455.3333333333333" type="curve" smooth="yes"/>
      <point x="658.0784313725491" y="455.3333333333333"/>
      <point x="700.4509803921569" y="406.98039215686276"/>
      <point x="700.4509803921569" y="274.88235294117646" type="curve"/>
    </contour>
  </outline>
</glyph>
